{
.appVersion = "1356";
DisplayStrings = (
"!\"#$%&'()*+,-.//\0120123456789:;<=>?\012@ABCDEFGHIJKLMNO\012PQRSTUVWXYZ[/backslash ]^_\012`abcdefghijklmno\012pqrstuvwxyz{|}~/space \012\012",
"!\"#$%&'()*+,-.//0123456789\012!\"#$%&'()*+,-.//0123456789\012!\"#$%&'()*+,-.//0123456789\012/_cross \012ABCDEFGHIJKLMNOPQRSTUVWXYZ\012ABCDEFGHIJKLMNOPQRSTUVWXYZ\012ABCDEFGHIJKLMNOPQRSTUVWXYZ\012/_cross \012abcdefghijklmnopqrstuvwxyz\012abcdefghijklmnopqrstuvwxyz\012abcdefghijklmnopqrstuvwxyz\012/_cross \012:;<=>?@[/backslash ]^_`{|}~\012:;<=>?@[/backslash ]^_`{|}~\012:;<=>?@[/backslash ]^_`{|}~\012/_cross H:H;H,H;,!\012"
);
copyright = "Copyright © 2021 by Coji Morishita. All rights reserved.";
customParameters = (
{
name = vendorID;
value = UFDN;
},
{
name = ROS;
value = "Adobe-Identity-0";
},
{
name = "Enforce Compatibility Check";
value = 1;
},
{
name = Axes;
value = (
{
Name = Weight;
Tag = wght;
}
);
},
{
name = "Use Typo Metrics";
value = 1;
},
{
name = note;
value = "*sup: W68%/H44%(320,330) (Bold +20/30, Thin 20, Regular +8) \012\012\012%:    60% (Black +20, Thin 20, Medium +20)\012ord*: 80% (Black +10, Thin 20, Medium +10)\012*sup: 60% (Black +20, Thin 20, Medium +20)\012©®:   60% (Black +20, Thin 20, Medium +20)\012TM:   50% (Black +0~10, Thin 20, Medium +20)\012\012*sml: X100、Y-8、W80%、H80% (Black +20, Thin 20, Medium +6)\012\012full-width bracket pairs: X1000, Y720 Rotate180";
}
);
date = "2021-02-26 07:42:34 +0000";
designer = "Coji Morishita";
designerURL = "http://www.underforest.com";
familyName = "Mplus code";
featurePrefixes = (
{
automatic = 1;
code = "languagesystem DFLT dflt;\012\012languagesystem latn dflt;\012languagesystem latn AZE;\012languagesystem latn CRT;\012languagesystem latn KAZ;\012languagesystem latn TAT;\012languagesystem latn TRK;\012languagesystem latn ROM;\012languagesystem latn MOL;\012languagesystem latn CAT;\012";
name = Languagesystems;
}
);
features = (
{
automatic = 1;

glyphs = (
{
color = 10;
glyphname = A;
lastChange = "2021-04-10 02:31:46 +0000";
layers = (
{
layerId = "D65C9A1E-0FCA-4B2D-8EDF-9F36CA9182A1";
paths = (
{
closed = 1;
nodes = (
"56 0 LINE",
"248 711 LINE",
"252 711 LINE",
"444 0 LINE",
"465 0 LINE",
"267 730 LINE",
"233 730 LINE",
"35 0 LINE"
);
},
{
closed = 1;
nodes = (
"385 245 LINE",
"385 265 LINE",
"115 265 LINE",
"115 245 LINE"
);
}
);
width = 500;
},
{
layerId = "E27A6A66-A1F8-4E1B-8224-7C0FE77551F2";
paths = (
{
closed = 1;
nodes = (
"102 0 LINE",
"248 636 LINE",
"252 636 LINE",
"398 0 LINE",
"480 0 LINE",
"299 730 LINE",
"201 730 LINE",
"20 0 LINE"
);
},
{
closed = 1;
nodes = (
"388 200 LINE",
"388 270 LINE",
"112 270 LINE",
"112 200 LINE"
);
}
);
vertWidth = 1000;
width = 500;
},
{
layerId = "FC9CFCDA-9E80-4E73-BA51-8504D15957FA";
paths = (
{
closed = 1;
nodes = (
"147 0 LINE",
"248 560 LINE",
"252 560 LINE",
"353 0 LINE",
"495 0 LINE",
"330 730 LINE",
"170 730 LINE",
"5 0 LINE"
);
},
{
closed = 1;
nodes = (
"390 155 LINE",
"390 275 LINE",
"110 275 LINE",
"110 155 LINE"
);
}
);
vertWidth = 1000;
width = 500;
}
);
leftKerningGroup = A;
rightKerningGroup = A;
rightMetricsKey = "=|";
unicode = 0041;
},
{
glyphname = Aacute;
lastChange = "2021-04-04 07:57:41 +0000";
layers = (
{
components = (
{
name = A;
},
{
name = acutecomb;
transform = "{1, 0, 0, 1, 216, 210}";
}
);
layerId = "D65C9A1E-0FCA-4B2D-8EDF-9F36CA9182A1";
width = 500;
},
{
layerId = "E27A6A66-A1F8-4E1B-8224-7C0FE77551F2";
paths = (
{
closed = 1;
nodes = (
"104 0 LINE",
"348 661 LINE",
"350 661 LINE",
"595 0 LINE",
"683 0 LINE",
"404 730 LINE",
"295 730 LINE",
"16 0 LINE"
);
},
{
closed = 1;
nodes = (
"555 201 LINE",
"555 274 LINE",
"145 274 LINE",
"145 201 LINE"
);
},
{
closed = 1;
nodes = (
"337 780 LINE",
"458 1000 LINE",
"357 1000 LINE",
"256 780 LINE"
);
}
);
vertWidth = 1000;
width = 699;
},
{
layerId = "FC9CFCDA-9E80-4E73-BA51-8504D15957FA";
paths = (
{
closed = 1;
nodes = (
"165 0 LINE",
"356 611 LINE",
"358 611 LINE",
"550 0 LINE",
"704 0 LINE",
"452 730 LINE",
"263 730 LINE",
"11 0 LINE"
);
},
{
closed = 1;
nodes = (
"558 167 LINE",
"558 289 LINE",
"158 289 LINE",
"158 167 LINE"
);
},
{
closed = 1;
nodes = (
"379 780 LINE",
"499 1000 LINE",
"329 1000 LINE",
"249 780 LINE"
);
}
);
vertWidth = 1000;
width = 715;
}
);
leftKerningGroup = A;
rightKerningGroup = A;
unicode = 00C1;
},
{
glyphname = Abreve;
lastChange = "2021-04-04 07:57:41 +0000";
layers = (
{
components = (
{
name = A;
},
{
name = brevecomb;
transform = "{1, 0, 0, 1, 132, 210}";
}
);
layerId = "D65C9A1E-0FCA-4B2D-8EDF-9F36CA9182A1";
width = 500;
},
{
layerId = "E27A6A66-A1F8-4E1B-8224-7C0FE77551F2";
paths = (
{
closed = 1;
nodes = (
"104 0 LINE",
"348 661 LINE",
"350 661 LINE",
"595 0 LINE",
"683 0 LINE",
"404 730 LINE",
"295 730 LINE",
"16 0 LINE"
);
},
{
closed = 1;
nodes = (
"555 201 LINE",
"555 274 LINE",
"145 274 LINE",
"145 201 LINE"
);
},
{
closed = 1;
nodes = (
"464 787 OFFCURVE",
"549 860 OFFCURVE",
"560 967 CURVE",
"475 967 LINE",
"463 894 OFFCURVE",
"417 851 OFFCURVE",
"350 851 CURVE SMOOTH",
"282 851 OFFCURVE",
"234 894 OFFCURVE",
"224 967 CURVE",
"140 967 LINE",
"149 860 OFFCURVE",
"234 787 OFFCURVE",
"350 787 CURVE SMOOTH"
);
}
);
vertWidth = 1000;
width = 699;
},
{
layerId = "FC9CFCDA-9E80-4E73-BA51-8504D15957FA";
paths = (
{
closed = 1;
nodes = (
"165 0 LINE",
"356 611 LINE",
"358 611 LINE",
"550 0 LINE",
"704 0 LINE",
"452 730 LINE",
"263 730 LINE",
"11 0 LINE"
);
},
{
closed = 1;
nodes = (
"558 167 LINE",
"558 289 LINE",
"158 289 LINE",
"158 167 LINE"
);
},
{
closed = 1;
nodes = (
"487 773 OFFCURVE",
"582 856 OFFCURVE",
"588 973 CURVE",
"453 973 LINE",
"444 909 OFFCURVE",
"411 874 OFFCURVE",
"358 874 CURVE SMOOTH",
"304 874 OFFCURVE",
"270 909 OFFCURVE",
"262 973 CURVE",
"128 973 LINE",
"132 856 OFFCURVE",
"227 773 OFFCURVE",
"358 773 CURVE SMOOTH"
);
}
);
vertWidth = 1000;
width = 715;
}
);
leftKerningGroup = A;
rightKerningGroup = A;
unicode = 0102;
},
{
glyphname = Abreveacute;
lastChange = "2021-04-04 07:57:41 +0000";
layers = (
{
components = (
{
name = A;
},
{
name = brevecomb;
transform = "{1, 0, 0, 1, 132, 210}";
},
{
anchor = top_ac;
name = acutecomb;
transform = "{1, 0, 0, 1, 216, 370}";
}
);
layerId = "D65C9A1E-0FCA-4B2D-8EDF-9F36CA9182A1";
width = 500;
},
{
layerId = "E27A6A66-A1F8-4E1B-8224-7C0FE77551F2";
paths = (
{
closed = 1;
nodes = (
"104 0 LINE",
"348 661 LINE",
"350 661 LINE",
"595 0 LINE",
"683 0 LINE",
"404 730 LINE",
"295 730 LINE",
"16 0 LINE"
);
},
{
closed = 1;
nodes = (
"555 201 LINE",
"555 274 LINE",
"145 274 LINE",
"145 201 LINE"
);
},
{
closed = 1;
nodes = (
"464 787 OFFCURVE",
"549 860 OFFCURVE",
"560 967 CURVE",
"475 967 LINE",
"463 894 OFFCURVE",
"417 851 OFFCURVE",
"350 851 CURVE SMOOTH",
"282 851 OFFCURVE",
"234 894 OFFCURVE",
"224 967 CURVE",
"140 967 LINE",
"149 860 OFFCURVE",
"234 787 OFFCURVE",
"350 787 CURVE SMOOTH"
);
},
{
closed = 1;
nodes = (
"323 953 LINE",
"444 1173 LINE",
"343 1173 LINE",
"242 953 LINE"
);
}
);
vertWidth = 1000;
width = 699;
},
{
layerId = "FC9CFCDA-9E80-4E73-BA51-8504D15957FA";
paths = (
{
closed = 1;
nodes = (
"165 0 LINE",
"356 611 LINE",
"358 611 LINE",
"550 0 LINE",
"704 0 LINE",
"452 730 LINE",
"263 730 LINE",
"11 0 LINE"
);
},
{
closed = 1;
nodes = (
"558 167 LINE",
"558 289 LINE",
"158 289 LINE",
"158 167 LINE"
);
},
{
closed = 1;
nodes = (
"487 773 OFFCURVE",
"582 856 OFFCURVE",
"588 973 CURVE",
"453 973 LINE",
"444 909 OFFCURVE",
"411 874 OFFCURVE",
"358 874 CURVE SMOOTH",
"304 874 OFFCURVE",
"270 909 OFFCURVE",
"262 973 CURVE",
"128 973 LINE",
"132 856 OFFCURVE",
"227 773 OFFCURVE",
"358 773 CURVE SMOOTH"
);
},
{
closed = 1;
nodes = (
"352 967 LINE",
"472 1187 LINE",
"302 1187 LINE",
"222 967 LINE"
);
}
);
vertWidth = 1000;
width = 715;
}
);
leftKerningGroup = A;
rightKerningGroup = A;
unicode = 1EAE;
},
{
glyphname = Abrevedotbelow;
lastChange = "2021-04-04 07:57:41 +0000";
layers = (
{
components = (
{
name = A;
},
{
name = dotbelowcomb;
transform = "{1, 0, 0, 1, 279, -44}";
},
{
name = brevecomb;
transform = "{1, 0, 0, 1, 132, 210}";
}
);
layerId = "D65C9A1E-0FCA-4B2D-8EDF-9F36CA9182A1";
width = 500;
},
{
layerId = "E27A6A66-A1F8-4E1B-8224-7C0FE77551F2";
paths = (
{
closed = 1;
nodes = (
"104 0 LINE",
"348 661 LINE",
"350 661 LINE",
"595 0 LINE",
"683 0 LINE",
"404 730 LINE",
"295 730 LINE",
"16 0 LINE"
);
},
{
closed = 1;
nodes = (
"401 -197 LINE",
"401 -93 LINE",
"297 -93 LINE",
"297 -197 LINE"
);
},
{
closed = 1;
nodes = (
"555 201 LINE",
"555 274 LINE",
"145 274 LINE",
"145 201 LINE"
);
},
{
closed = 1;
nodes = (
"464 787 OFFCURVE",
"549 860 OFFCURVE",
"560 967 CURVE",
"475 967 LINE",
"463 894 OFFCURVE",
"417 851 OFFCURVE",
"350 851 CURVE SMOOTH",
"282 851 OFFCURVE",
"234 894 OFFCURVE",
"224 967 CURVE",
"140 967 LINE",
"149 860 OFFCURVE",
"234 787 OFFCURVE",
"350 787 CURVE SMOOTH"
);
}
);
vertWidth = 1000;
width = 699;
},
{
layerId = "FC9CFCDA-9E80-4E73-BA51-8504D15957FA";
paths = (
{
closed = 1;
nodes = (
"165 0 LINE",
"356 611 LINE",
"358 611 LINE",
"550 0 LINE",
"704 0 LINE",
"452 730 LINE",
"263 730 LINE",
"11 0 LINE"
);
},
{
closed = 1;
nodes = (
"431 -219 LINE",
"431 -71 LINE",
"284 -71 LINE",
"284 -219 LINE"
);
},
{
closed = 1;
nodes = (
"558 167 LINE",
"558 289 LINE",
"158 289 LINE",
"158 167 LINE"
);
},
{
closed = 1;
nodes = (
"487 773 OFFCURVE",
"582 856 OFFCURVE",
"588 973 CURVE",
"453 973 LINE",
"444 909 OFFCURVE",
"411 874 OFFCURVE",
"358 874 CURVE SMOOTH",
"304 874 OFFCURVE",
"270 909 OFFCURVE",
"262 973 CURVE",
"128 973 LINE",
"132 856 OFFCURVE",
"227 773 OFFCURVE",
"358 773 CURVE SMOOTH"
);
}
);
vertWidth = 1000;
width = 715;
}
);
leftKerningGroup = A;
rightKerningGroup = A;
unicode = 1EB6;
},
{
glyphname = Abrevegrave;
lastChange = "2021-04-04 07:57:41 +0000";
layers = (
{
components = (
{
name = A;
},
{
name = brevecomb;
transform = "{1, 0, 0, 1, 132, 210}";
},
{
anchor = top_gr;
name = gravecomb;
transform = "{1, 0, 0, 1, 232, 370}";
}
);
layerId = "D65C9A1E-0FCA-4B2D-8EDF-9F36CA9182A1";
width = 500;
},
{
layerId = "E27A6A66-A1F8-4E1B-8224-7C0FE77551F2";
paths = (
{
closed = 1;
nodes = (
"104 0 LINE",
"348 661 LINE",
"350 661 LINE",
"595 0 LINE",
"683 0 LINE",
"404 730 LINE",
"295 730 LINE",
"16 0 LINE"
);
},
{
closed = 1;
nodes = (
"555 201 LINE",
"555 274 LINE",
"145 274 LINE",
"145 201 LINE"
);
},
{
closed = 1;
nodes = (
"464 787 OFFCURVE",
"549 860 OFFCURVE",
"560 967 CURVE",
"475 967 LINE",
"463 894 OFFCURVE",
"417 851 OFFCURVE",
"350 851 CURVE SMOOTH",
"282 851 OFFCURVE",
"234 894 OFFCURVE",
"224 967 CURVE",
"140 967 LINE",
"149 860 OFFCURVE",
"234 787 OFFCURVE",
"350 787 CURVE SMOOTH"
);
},
{
closed = 1;
nodes = (
"451 953 LINE",
"350 1173 LINE",
"249 1173 LINE",
"370 953 LINE"
);
}
);
vertWidth = 1000;
width = 699;
},
{
layerId = "FC9CFCDA-9E80-4E73-BA51-8504D15957FA";
paths = (
{
closed = 1;
nodes = (
"165 0 LINE",
"356 611 LINE",
"358 611 LINE",
"550 0 LINE",
"704 0 LINE",
"452 730 LINE",
"263 730 LINE",
"11 0 LINE"
);
},
{
closed = 1;
nodes = (
"558 167 LINE",
"558 289 LINE",
"158 289 LINE",
"158 167 LINE"
);
},
{
closed = 1;
nodes = (
"487 773 OFFCURVE",
"582 856 OFFCURVE",
"588 973 CURVE",
"453 973 LINE",
"444 909 OFFCURVE",
"411 874 OFFCURVE",
"358 874 CURVE SMOOTH",
"304 874 OFFCURVE",
"270 909 OFFCURVE",
"262 973 CURVE",
"128 973 LINE",
"132 856 OFFCURVE",
"227 773 OFFCURVE",
"358 773 CURVE SMOOTH"
);
},
{
closed = 1;
nodes = (
"490 967 LINE",
"409 1187 LINE",
"239 1187 LINE",
"360 967 LINE"
);
}
);
vertWidth = 1000;
width = 715;
}
);
leftKerningGroup = A;
rightKerningGroup = A;
unicode = 1EB0;
},
{
glyphname = Abrevehookabove;
lastChange = "2021-04-04 07:57:41 +0000";
layers = (
{
components = (
{
name = A;
},
{
name = brevecomb;
transform = "{1, 0, 0, 1, 132, 210}";
},
{
anchor = top_hk;
name = hookabovecomb;
transform = "{1, 0, 0, 1, 154, 410}";
}
);
layerId = "D65C9A1E-0FCA-4B2D-8EDF-9F36CA9182A1";
width = 500;
},
{
layerId = "E27A6A66-A1F8-4E1B-8224-7C0FE77551F2";
paths = (
{
closed = 1;
nodes = (
"104 0 LINE",
"348 661 LINE",
"350 661 LINE",
"595 0 LINE",
"683 0 LINE",
"404 730 LINE",
"295 730 LINE",
"16 0 LINE"
);
},
{
closed = 1;
nodes = (
"555 201 LINE",
"555 274 LINE",
"145 274 LINE",
"145 201 LINE"
);
},
{
closed = 1;
nodes = (
"464 787 OFFCURVE",
"549 860 OFFCURVE",
"560 967 CURVE",
"475 967 LINE",
"463 894 OFFCURVE",
"417 851 OFFCURVE",
"350 851 CURVE SMOOTH",
"282 851 OFFCURVE",
"234 894 OFFCURVE",
"224 967 CURVE",
"140 967 LINE",
"149 860 OFFCURVE",
"234 787 OFFCURVE",
"350 787 CURVE SMOOTH"
);
},
{
closed = 1;
nodes = (
"496 1010 LINE",
"509 1039 OFFCURVE",
"518 1081 OFFCURVE",
"518 1110 CURVE SMOOTH",
"518 1171 OFFCURVE",
"477 1190 OFFCURVE",
"349 1190 CURVE SMOOTH",
"291 1190 OFFCURVE",
"236 1184 OFFCURVE",
"181 1173 CURVE",
"189 1108 LINE",
"240 1121 OFFCURVE",
"285 1126 OFFCURVE",
"333 1126 CURVE SMOOTH",
"412 1126 OFFCURVE",
"433 1117 OFFCURVE",
"433 1084 CURVE SMOOTH",
"433 1065 OFFCURVE",
"426 1035 OFFCURVE",
"416 1010 CURVE"
);
}
);
vertWidth = 1000;
width = 699;
},
{
layerId = "FC9CFCDA-9E80-4E73-BA51-8504D15957FA";
paths = (
{
closed = 1;
nodes = (
"165 0 LINE",
"356 611 LINE",
"358 611 LINE",
"550 0 LINE",
"704 0 LINE",
"452 730 LINE",
"263 730 LINE",
"11 0 LINE"
);
},
{
closed = 1;
nodes = (
"558 167 LINE",
"558 289 LINE",
"158 289 LINE",
"158 167 LINE"
);
},
{
closed = 1;
nodes = (
"487 773 OFFCURVE",
"582 856 OFFCURVE",
"588 973 CURVE",
"453 973 LINE",
"444 909 OFFCURVE",
"411 874 OFFCURVE",
"358 874 CURVE SMOOTH",
"304 874 OFFCURVE",
"270 909 OFFCURVE",
"262 973 CURVE",
"128 973 LINE",
"132 856 OFFCURVE",
"227 773 OFFCURVE",
"358 773 CURVE SMOOTH"
);
},
{
closed = 1;
nodes = (
"516 1025 LINE",
"530 1057 OFFCURVE",
"539 1105 OFFCURVE",
"539 1138 CURVE SMOOTH",
"539 1205 OFFCURVE",
"498 1225 OFFCURVE",
"358 1225 CURVE SMOOTH",
"298 1225 OFFCURVE",
"231 1218 OFFCURVE",
"176 1207 CURVE",
"188 1104 LINE",
"238 1118 OFFCURVE",
"288 1125 OFFCURVE",
"333 1125 CURVE SMOOTH",
"389 1125 OFFCURVE",
"403 1118 OFFCURVE",
"403 1090 CURVE SMOOTH",
"403 1073 OFFCURVE",
"398 1048 OFFCURVE",
"390 1025 CURVE"
);
}
);
vertWidth = 1000;
width = 715;
}
);
leftKerningGroup = A;
rightKerningGroup = A;
unicode = 1EB2;
},
{
glyphname = Abrevetilde;
lastChange = "2021-04-04 07:57:41 +0000";
layers = (
{
components = (
{
name = A;
},
{
name = brevecomb;
transform = "{1, 0, 0, 1, 132, 210}";
},
{
anchor = top_td;
name = tildecomb;
transform = "{1, 0, 0, 1, 119, 400}";
}
);
layerId = "D65C9A1E-0FCA-4B2D-8EDF-9F36CA9182A1";
width = 500;
},
{
layerId = "E27A6A66-A1F8-4E1B-8224-7C0FE77551F2";
paths = (
{
closed = 1;
nodes = (
"104 0 LINE",
"348 661 LINE",
"350 661 LINE",
"595 0 LINE",
"683 0 LINE",
"404 730 LINE",
"295 730 LINE",
"16 0 LINE"
);
},
{
closed = 1;
nodes = (
"555 201 LINE",
"555 274 LINE",
"145 274 LINE",
"145 201 LINE"
);
},
{
closed = 1;
nodes = (
"464 787 OFFCURVE",
"549 860 OFFCURVE",
"560 967 CURVE",
"475 967 LINE",
"463 894 OFFCURVE",
"417 851 OFFCURVE",
"350 851 CURVE SMOOTH",
"282 851 OFFCURVE",
"234 894 OFFCURVE",
"224 967 CURVE",
"140 967 LINE",
"149 860 OFFCURVE",
"234 787 OFFCURVE",
"350 787 CURVE SMOOTH"
);
},
{
closed = 1;
nodes = (
"528 1004 OFFCURVE",
"559 1060 OFFCURVE",
"559 1169 CURVE",
"486 1169 LINE",
"486 1106 OFFCURVE",
"474 1076 OFFCURVE",
"451 1076 CURVE SMOOTH",
"433 1076 OFFCURVE",
"398 1093 OFFCURVE",
"355 1124 CURVE SMOOTH",
"300 1163 OFFCURVE",
"262 1180 OFFCURVE",
"230 1180 CURVE SMOOTH",
"170 1180 OFFCURVE",
"139 1124 OFFCURVE",
"139 1015 CURVE",
"212 1015 LINE",
"212 1078 OFFCURVE",
"224 1108 OFFCURVE",
"247 1108 CURVE SMOOTH",
"265 1108 OFFCURVE",
"300 1091 OFFCURVE",
"343 1060 CURVE SMOOTH",
"398 1021 OFFCURVE",
"436 1004 OFFCURVE",
"468 1004 CURVE SMOOTH"
);
}
);
vertWidth = 1000;
width = 699;
},
{
layerId = "FC9CFCDA-9E80-4E73-BA51-8504D15957FA";
paths = (
{
closed = 1;
nodes = (
"165 0 LINE",
"356 611 LINE",
"358 611 LINE",
"550 0 LINE",
"704 0 LINE",
"452 730 LINE",
"263 730 LINE",
"11 0 LINE"
);
},
{
closed = 1;
nodes = (
"558 167 LINE",
"558 289 LINE",
"158 289 LINE",
"158 167 LINE"
);
},
{
closed = 1;
nodes = (
"487 773 OFFCURVE",
"582 856 OFFCURVE",
"588 973 CURVE",
"453 973 LINE",
"444 909 OFFCURVE",
"411 874 OFFCURVE",
"358 874 CURVE SMOOTH",
"304 874 OFFCURVE",
"270 909 OFFCURVE",
"262 973 CURVE",
"128 973 LINE",
"132 856 OFFCURVE",
"227 773 OFFCURVE",
"358 773 CURVE SMOOTH"
);
},
{
closed = 1;
nodes = (
"550 1014 OFFCURVE",
"587 1079 OFFCURVE",
"587 1208 CURVE",
"471 1208 LINE",
"471 1153 OFFCURVE",
"464 1131 OFFCURVE",
"445 1131 CURVE SMOOTH",
"430 1131 OFFCURVE",
"403 1144 OFFCURVE",
"369 1166 CURVE SMOOTH",
"314 1200 OFFCURVE",
"273 1216 OFFCURVE",
"237 1216 CURVE SMOOTH",
"164 1216 OFFCURVE",
"127 1151 OFFCURVE",
"127 1023 CURVE",
"243 1023 LINE",
"243 1078 OFFCURVE",
"250 1099 OFFCURVE",
"269 1099 CURVE SMOOTH",
"284 1099 OFFCURVE",
"311 1086 OFFCURVE",
"345 1065 CURVE SMOOTH",
"400 1030 OFFCURVE",
"441 1014 OFFCURVE",
"477 1014 CURVE SMOOTH"
);
}
);
vertWidth = 1000;
width = 715;
}
);
leftKerningGroup = A;
rightKerningGroup = A;
unicode = 1EB4;
},
{
glyphname = Acircumflex;
lastChange = "2021-04-04 07:57:41 +0000";
layers = (
{
components = (
{
name = A;
},
{
name = circumflexcomb;
transform = "{1, 0, 0, 1, 137, 210}";
}
);
layerId = "D65C9A1E-0FCA-4B2D-8EDF-9F36CA9182A1";
width = 500;
},
{
layerId = "E27A6A66-A1F8-4E1B-8224-7C0FE77551F2";
paths = (
{
closed = 1;
nodes = (
"104 0 LINE",
"348 661 LINE",
"350 661 LINE",
"595 0 LINE",
"683 0 LINE",
"404 730 LINE",
"295 730 LINE",
"16 0 LINE"
);
},
{
closed = 1;
nodes = (
"555 201 LINE",
"555 274 LINE",
"145 274 LINE",
"145 201 LINE"
);
},
{
closed = 1;
nodes = (
"239 780 LINE",
"348 962 LINE",
"350 962 LINE",
"459 780 LINE",
"554 780 LINE",
"418 1000 LINE",
"279 1000 LINE",
"144 780 LINE"
);
}
);
vertWidth = 1000;
width = 699;
},
{
layerId = "FC9CFCDA-9E80-4E73-BA51-8504D15957FA";
paths = (
{
closed = 1;
nodes = (
"165 0 LINE",
"356 611 LINE",
"358 611 LINE",
"550 0 LINE",
"704 0 LINE",
"452 730 LINE",
"263 730 LINE",
"11 0 LINE"
);
},
{
closed = 1;
nodes = (
"558 167 LINE",
"558 289 LINE",
"158 289 LINE",
"158 167 LINE"
);
},
{
closed = 1;
nodes = (
"277 780 LINE",
"357 940 LINE",
"359 940 LINE",
"438 780 LINE",
"595 780 LINE",
"472 1000 LINE",
"243 1000 LINE",
"120 780 LINE"
);
}
);
vertWidth = 1000;
width = 715;
}
);
leftKerningGroup = A;
rightKerningGroup = A;
unicode = 00C2;
},
{
glyphname = Acircumflexacute;
lastChange = "2021-04-04 07:57:41 +0000";
layers = (
{
components = (
{
name = A;
},
{
name = circumflexcomb;
transform = "{1, 0, 0, 1, 137, 210}";
},
{
anchor = top_acR;
name = acutecomb;
transform = "{1, 0, 0, 1, 360, 390}";
}
);
layerId = "D65C9A1E-0FCA-4B2D-8EDF-9F36CA9182A1";
width = 500;
},
{
layerId = "E27A6A66-A1F8-4E1B-8224-7C0FE77551F2";
paths = (
{
closed = 1;
nodes = (
"104 0 LINE",
"348 661 LINE",
"350 661 LINE",
"595 0 LINE",
"683 0 LINE",
"404 730 LINE",
"295 730 LINE",
"16 0 LINE"
);
},
{
closed = 1;
nodes = (
"555 201 LINE",
"555 274 LINE",
"145 274 LINE",
"145 201 LINE"
);
},
{
closed = 1;
nodes = (
"239 780 LINE",
"348 962 LINE",
"350 962 LINE",
"459 780 LINE",
"554 780 LINE",
"418 1000 LINE",
"279 1000 LINE",
"144 780 LINE"
);
},
{
closed = 1;
nodes = (
"504 960 LINE",
"625 1180 LINE",
"524 1180 LINE",
"423 960 LINE"
);
}
);
vertWidth = 1000;
width = 699;
},
{
layerId = "FC9CFCDA-9E80-4E73-BA51-8504D15957FA";
paths = (
{
closed = 1;
nodes = (
"165 0 LINE",
"356 611 LINE",
"358 611 LINE",
"550 0 LINE",
"704 0 LINE",
"452 730 LINE",
"263 730 LINE",
"11 0 LINE"
);
},
{
closed = 1;
nodes = (
"558 167 LINE",
"558 289 LINE",
"158 289 LINE",
"158 167 LINE"
);
},
{
closed = 1;
nodes = (
"277 780 LINE",
"357 940 LINE",
"359 940 LINE",
"438 780 LINE",
"595 780 LINE",
"472 1000 LINE",
"243 1000 LINE",
"120 780 LINE"
);
},
{
closed = 1;
nodes = (
"576 960 LINE",
"696 1180 LINE",
"526 1180 LINE",
"446 960 LINE"
);
}
);
vertWidth = 1000;
width = 715;
}
);
leftKerningGroup = A;
rightKerningGroup = A;
unicode = 1EA4;
},
{
glyphname = Acircumflexdotbelow;
lastChange = "2021-04-04 07:57:41 +0000";
layers = (
{
components = (
{
name = A;
},
{
name = dotbelowcomb;
transform = "{1, 0, 0, 1, 279, -44}";
},
{
name = circumflexcomb;
transform = "{1, 0, 0, 1, 137, 210}";
}
);
layerId = "D65C9A1E-0FCA-4B2D-8EDF-9F36CA9182A1";
width = 500;
},
{
layerId = "E27A6A66-A1F8-4E1B-8224-7C0FE77551F2";
paths = (
{
closed = 1;
nodes = (
"104 0 LINE",
"348 661 LINE",
"350 661 LINE",
"595 0 LINE",
"683 0 LINE",
"404 730 LINE",
"295 730 LINE",
"16 0 LINE"
);
},
{
closed = 1;
nodes = (
"401 -197 LINE",
"401 -93 LINE",
"297 -93 LINE",
"297 -197 LINE"
);
},
{
closed = 1;
nodes = (
"555 201 LINE",
"555 274 LINE",
"145 274 LINE",
"145 201 LINE"
);
},
{
closed = 1;
nodes = (
"239 780 LINE",
"348 962 LINE",
"350 962 LINE",
"459 780 LINE",
"554 780 LINE",
"418 1000 LINE",
"279 1000 LINE",
"144 780 LINE"
);
}
);
vertWidth = 1000;
width = 699;
},
{
layerId = "FC9CFCDA-9E80-4E73-BA51-8504D15957FA";
paths = (
{
closed = 1;
nodes = (
"165 0 LINE",
"356 611 LINE",
"358 611 LINE",
"550 0 LINE",
"704 0 LINE",
"452 730 LINE",
"263 730 LINE",
"11 0 LINE"
);
},
{
closed = 1;
nodes = (
"431 -219 LINE",
"431 -71 LINE",
"284 -71 LINE",
"284 -219 LINE"
);
},
{
closed = 1;
nodes = (
"558 167 LINE",
"558 289 LINE",
"158 289 LINE",
"158 167 LINE"
);
},
{
closed = 1;
nodes = (
"277 780 LINE",
"357 940 LINE",
"359 940 LINE",
"438 780 LINE",
"595 780 LINE",
"472 1000 LINE",
"243 1000 LINE",
"120 780 LINE"
);
}
);
vertWidth = 1000;
width = 715;
}
);
leftKerningGroup = A;
rightKerningGroup = A;
unicode = 1EAC;
},
{
glyphname = Acircumflexgrave;
lastChange = "2021-04-04 07:57:41 +0000";
layers = (
{
components = (
{
name = A;
},
{
name = circumflexcomb;
transform = "{1, 0, 0, 1, 137, 210}";
},
{
anchor = top_grL;
name = gravecomb;
transform = "{1, 0, 0, 1, 88, 390}";
}
);
layerId = "D65C9A1E-0FCA-4B2D-8EDF-9F36CA9182A1";
width = 500;
},
{
layerId = "E27A6A66-A1F8-4E1B-8224-7C0FE77551F2";
paths = (
{
closed = 1;
nodes = (
"104 0 LINE",
"348 661 LINE",
"350 661 LINE",
"595 0 LINE",
"683 0 LINE",
"404 730 LINE",
"295 730 LINE",
"16 0 LINE"
);
},
{
closed = 1;
nodes = (
"555 201 LINE",
"555 274 LINE",
"145 274 LINE",
"145 201 LINE"
);
},
{
closed = 1;
nodes = (
"239 780 LINE",
"348 962 LINE",
"350 962 LINE",
"459 780 LINE",
"554 780 LINE",
"418 1000 LINE",
"279 1000 LINE",
"144 780 LINE"
);
},
{
closed = 1;
nodes = (
"271 960 LINE",
"170 1180 LINE",
"69 1180 LINE",
"190 960 LINE"
);
}
);
vertWidth = 1000;
width = 699;
},
{
layerId = "FC9CFCDA-9E80-4E73-BA51-8504D15957FA";
paths = (
{
closed = 1;
nodes = (
"165 0 LINE",
"356 611 LINE",
"358 611 LINE",
"550 0 LINE",
"704 0 LINE",
"452 730 LINE",
"263 730 LINE",
"11 0 LINE"
);
},
{
closed = 1;
nodes = (
"558 167 LINE",
"558 289 LINE",
"158 289 LINE",
"158 167 LINE"
);
},
{
closed = 1;
nodes = (
"266 960 LINE",
"185 1180 LINE",
"15 1180 LINE",
"136 960 LINE"
);
},
{
closed = 1;
nodes = (
"277 780 LINE",
"357 940 LINE",
"359 940 LINE",
"438 780 LINE",
"595 780 LINE",
"472 1000 LINE",
"243 1000 LINE",
"120 780 LINE"
);
}
);
vertWidth = 1000;
width = 715;
}
);
leftKerningGroup = A;
rightKerningGroup = A;
unicode = 1EA6;
},
{
glyphname = Acircumflexhookabove;
lastChange = "2021-04-04 07:57:41 +0000";
layers = (
{
components = (
{
name = A;
},
{
name = circumflexcomb;
transform = "{1, 0, 0, 1, 137, 210}";
},
{
anchor = top_hkR;
name = hookabovecomb;
transform = "{1, 0, 0, 1, 164, 390}";
}
);
layerId = "D65C9A1E-0FCA-4B2D-8EDF-9F36CA9182A1";
width = 500;
},
{
layerId = "E27A6A66-A1F8-4E1B-8224-7C0FE77551F2";
paths = (
{
closed = 1;
nodes = (
"104 0 LINE",
"348 661 LINE",
"350 661 LINE",
"595 0 LINE",
"683 0 LINE",
"404 730 LINE",
"295 730 LINE",
"16 0 LINE"
);
},
{
closed = 1;
nodes = (
"555 201 LINE",
"555 274 LINE",
"145 274 LINE",
"145 201 LINE"
);
},
{
closed = 1;
nodes = (
"239 780 LINE",
"348 962 LINE",
"350 962 LINE",
"459 780 LINE",
"554 780 LINE",
"418 1000 LINE",
"279 1000 LINE",
"144 780 LINE"
);
},
{
closed = 1;
nodes = (
"529 983 LINE",
"542 1012 OFFCURVE",
"551 1054 OFFCURVE",
"551 1083 CURVE SMOOTH",
"551 1144 OFFCURVE",
"510 1163 OFFCURVE",
"382 1163 CURVE SMOOTH",
"324 1163 OFFCURVE",
"269 1157 OFFCURVE",
"214 1146 CURVE",
"222 1081 LINE",
"273 1094 OFFCURVE",
"318 1099 OFFCURVE",
"366 1099 CURVE SMOOTH",
"445 1099 OFFCURVE",
"466 1090 OFFCURVE",
"466 1057 CURVE SMOOTH",
"466 1038 OFFCURVE",
"459 1008 OFFCURVE",
"449 983 CURVE"
);
}
);
vertWidth = 1000;
width = 699;
},
{
layerId = "FC9CFCDA-9E80-4E73-BA51-8504D15957FA";
paths = (
{
closed = 1;
nodes = (
"165 0 LINE",
"356 611 LINE",
"358 611 LINE",
"550 0 LINE",
"704 0 LINE",
"452 730 LINE",
"263 730 LINE",
"11 0 LINE"
);
},
{
closed = 1;
nodes = (
"558 167 LINE",
"558 289 LINE",
"158 289 LINE",
"158 167 LINE"
);
},
{
closed = 1;
nodes = (
"277 780 LINE",
"357 940 LINE",
"359 940 LINE",
"438 780 LINE",
"595 780 LINE",
"472 1000 LINE",
"243 1000 LINE",
"120 780 LINE"
);
},
{
closed = 1;
nodes = (
"572 992 LINE",
"586 1024 OFFCURVE",
"595 1072 OFFCURVE",
"595 1105 CURVE SMOOTH",
"595 1172 OFFCURVE",
"554 1192 OFFCURVE",
"414 1192 CURVE SMOOTH",
"354 1192 OFFCURVE",
"287 1185 OFFCURVE",
"232 1174 CURVE",
"244 1071 LINE",
"294 1085 OFFCURVE",
"344 1092 OFFCURVE",
"389 1092 CURVE SMOOTH",
"445 1092 OFFCURVE",
"459 1085 OFFCURVE",
"459 1057 CURVE SMOOTH",
"459 1040 OFFCURVE",
"454 1015 OFFCURVE",
"446 992 CURVE"
);
}
);
vertWidth = 1000;
width = 715;
}
);
leftKerningGroup = A;
rightKerningGroup = A;
unicode = 1EA8;
},
{
glyphname = Acircumflextilde;
lastChange = "2021-04-04 07:57:41 +0000";
layers = (
{
components = (
{
name = A;
},
{
name = circumflexcomb;
transform = "{1, 0, 0, 1, 137, 210}";
},
{
anchor = top_td;
name = tildecomb;
transform = "{1, 0, 0, 1, 119, 409}";
}
);
layerId = "D65C9A1E-0FCA-4B2D-8EDF-9F36CA9182A1";
width = 500;
},
{
layerId = "E27A6A66-A1F8-4E1B-8224-7C0FE77551F2";
paths = (
{
closed = 1;
nodes = (
"104 0 LINE",
"348 661 LINE",
"350 661 LINE",
"595 0 LINE",
"683 0 LINE",
"404 730 LINE",
"295 730 LINE",
"16 0 LINE"
);
},
{
closed = 1;
nodes = (
"555 201 LINE",
"555 274 LINE",
"145 274 LINE",
"145 201 LINE"
);
},
{
closed = 1;
nodes = (
"239 780 LINE",
"348 962 LINE",
"350 962 LINE",
"459 780 LINE",
"554 780 LINE",
"418 1000 LINE",
"279 1000 LINE",
"144 780 LINE"
);
},
{
closed = 1;
nodes = (
"528 1014 OFFCURVE",
"559 1070 OFFCURVE",
"559 1179 CURVE",
"486 1179 LINE",
"486 1116 OFFCURVE",
"474 1086 OFFCURVE",
"451 1086 CURVE SMOOTH",
"433 1086 OFFCURVE",
"398 1103 OFFCURVE",
"355 1134 CURVE SMOOTH",
"300 1173 OFFCURVE",
"262 1190 OFFCURVE",
"230 1190 CURVE SMOOTH",
"170 1190 OFFCURVE",
"139 1134 OFFCURVE",
"139 1025 CURVE",
"212 1025 LINE",
"212 1088 OFFCURVE",
"224 1118 OFFCURVE",
"247 1118 CURVE SMOOTH",
"265 1118 OFFCURVE",
"300 1101 OFFCURVE",
"343 1070 CURVE SMOOTH",
"398 1031 OFFCURVE",
"436 1014 OFFCURVE",
"468 1014 CURVE SMOOTH"
);
}
);
vertWidth = 1000;
width = 699;
},
{
layerId = "FC9CFCDA-9E80-4E73-BA51-8504D15957FA";
paths = (
{
closed = 1;
nodes = (
"165 0 LINE",
"356 611 LINE",
"358 611 LINE",
"550 0 LINE",
"704 0 LINE",
"452 730 LINE",
"263 730 LINE",
"11 0 LINE"
);
},
{
closed = 1;
nodes = (
"558 167 LINE",
"558 289 LINE",
"158 289 LINE",
"158 167 LINE"
);
},
{
closed = 1;
nodes = (
"277 780 LINE",
"357 940 LINE",
"359 940 LINE",
"438 780 LINE",
"595 780 LINE",
"472 1000 LINE",
"243 1000 LINE",
"120 780 LINE"
);
},
{
closed = 1;
nodes = (
"550 1024 OFFCURVE",
"587 1089 OFFCURVE",
"587 1218 CURVE",
"471 1218 LINE",
"471 1163 OFFCURVE",
"464 1141 OFFCURVE",
"445 1141 CURVE SMOOTH",
"430 1141 OFFCURVE",
"403 1154 OFFCURVE",
"369 1176 CURVE SMOOTH",
"314 1210 OFFCURVE",
"273 1226 OFFCURVE",
"237 1226 CURVE SMOOTH",
"164 1226 OFFCURVE",
"127 1161 OFFCURVE",
"127 1033 CURVE",
"243 1033 LINE",
"243 1088 OFFCURVE",
"250 1109 OFFCURVE",
"269 1109 CURVE SMOOTH",
"284 1109 OFFCURVE",
"311 1096 OFFCURVE",
"345 1075 CURVE SMOOTH",
"400 1040 OFFCURVE",
"441 1024 OFFCURVE",
"477 1024 CURVE SMOOTH"
);
}
);
vertWidth = 1000;
width = 715;
}
);
leftKerningGroup = A;
rightKerningGroup = A;
unicode = 1EAA;
},
{
glyphname = Adblgrave;
lastChange = "2021-04-04 07:57:41 +0000";
layers = (
{
components = (
{
name = A;
},
{
name = dblgravecomb;
transform = "{1, 0, 0, 1, 131, 210}";
}
);
layerId = "D65C9A1E-0FCA-4B2D-8EDF-9F36CA9182A1";
width = 500;
},
{
layerId = "E27A6A66-A1F8-4E1B-8224-7C0FE77551F2";
paths = (
{
closed = 1;
nodes = (
"104 0 LINE",
"348 661 LINE",
"350 661 LINE",
"595 0 LINE",
"683 0 LINE",
"404 730 LINE",
"295 730 LINE",
"16 0 LINE"
);
},
{
closed = 1;
nodes = (
"555 201 LINE",
"555 274 LINE",
"145 274 LINE",
"145 201 LINE"
);
},
{
closed = 1;
nodes = (
"332 780 LINE",
"235 1000 LINE",
"137 1000 LINE",
"254 780 LINE"
);
},
{
closed = 1;
nodes = (
"546 780 LINE",
"448 1000 LINE",
"350 1000 LINE",
"467 780 LINE"
);
}
);
vertWidth = 1000;
width = 699;
},
{
layerId = "FC9CFCDA-9E80-4E73-BA51-8504D15957FA";
paths = (
{
closed = 1;
nodes = (
"165 0 LINE",
"356 611 LINE",
"358 611 LINE",
"550 0 LINE",
"704 0 LINE",
"452 730 LINE",
"263 730 LINE",
"11 0 LINE"
);
},
{
closed = 1;
nodes = (
"558 167 LINE",
"558 289 LINE",
"158 289 LINE",
"158 167 LINE"
);
},
{
closed = 1;
nodes = (
"347 780 LINE",
"272 1000 LINE",
"113 1000 LINE",
"226 780 LINE"
);
},
{
closed = 1;
nodes = (
"574 780 LINE",
"498 1000 LINE",
"340 1000 LINE",
"452 780 LINE"
);
}
);
vertWidth = 1000;
width = 715;
}
);
leftKerningGroup = A;
rightKerningGroup = A;
unicode = 0200;
},
{
glyphname = Adieresis;
lastChange = "2021-04-04 07:57:41 +0000";
layers = (
{
components = (
{
name = A;
},
{
name = dieresiscomb;
transform = "{1, 0, 0, 1, 159, 210}";
}
);
layerId = "D65C9A1E-0FCA-4B2D-8EDF-9F36CA9182A1";
width = 500;
},
{
layerId = "E27A6A66-A1F8-4E1B-8224-7C0FE77551F2";
paths = (
{
closed = 1;
nodes = (
"104 0 LINE",
"348 661 LINE",
"350 661 LINE",
"595 0 LINE",
"683 0 LINE",
"404 730 LINE",
"295 730 LINE",
"16 0 LINE"
);
},
{
closed = 1;
nodes = (
"555 201 LINE",
"555 274 LINE",
"145 274 LINE",
"145 201 LINE"
);
},
{
closed = 1;
nodes = (
"276 823 LINE",
"276 927 LINE",
"172 927 LINE",
"172 823 LINE"
);
},
{
closed = 1;
nodes = (
"525 823 LINE",
"525 927 LINE",
"421 927 LINE",
"421 823 LINE"
);
}
);
vertWidth = 1000;
width = 699;
},
{
layerId = "FC9CFCDA-9E80-4E73-BA51-8504D15957FA";
paths = (
{
closed = 1;
nodes = (
"165 0 LINE",
"356 611 LINE",
"358 611 LINE",
"550 0 LINE",
"704 0 LINE",
"452 730 LINE",
"263 730 LINE",
"11 0 LINE"
);
},
{
closed = 1;
nodes = (
"558 167 LINE",
"558 289 LINE",
"158 289 LINE",
"158 167 LINE"
);
},
{
closed = 1;
nodes = (
"300 801 LINE",
"300 949 LINE",
"153 949 LINE",
"153 801 LINE"
);
},
{
closed = 1;
nodes = (
"560 801 LINE",
"560 949 LINE",
"412 949 LINE",
"412 801 LINE"
);
}
);
vertWidth = 1000;
width = 715;
}
);
leftKerningGroup = A;
rightKerningGroup = A;
unicode = 00C4;
},
{
glyphname = Adotaccent;
lastChange = "2021-04-04 07:57:41 +0000";
layers = (
{
components = (
{
name = A;
},
{
name = dotaccentcomb;
transform = "{1, 0, 0, 1, 279, 210}";
}
);
layerId = "D65C9A1E-0FCA-4B2D-8EDF-9F36CA9182A1";
width = 500;
},
{
layerId = "E27A6A66-A1F8-4E1B-8224-7C0FE77551F2";
paths = (
{
closed = 1;
nodes = (
"104 0 LINE",
"348 661 LINE",
"350 661 LINE",
"595 0 LINE",
"683 0 LINE",
"404 730 LINE",
"295 730 LINE",
"16 0 LINE"
);
},
{
closed = 1;
nodes = (
"555 201 LINE",
"555 274 LINE",
"145 274 LINE",
"145 201 LINE"
);
},
{
closed = 1;
nodes = (
"401 823 LINE",
"401 927 LINE",
"297 927 LINE",
"297 823 LINE"
);
}
);
vertWidth = 1000;
width = 699;
},
{
layerId = "FC9CFCDA-9E80-4E73-BA51-8504D15957FA";
paths = (
{
closed = 1;
nodes = (
"165 0 LINE",
"356 611 LINE",
"358 611 LINE",
"550 0 LINE",
"704 0 LINE",
"452 730 LINE",
"263 730 LINE",
"11 0 LINE"
);
},
{
closed = 1;
nodes = (
"558 167 LINE",
"558 289 LINE",
"158 289 LINE",
"158 167 LINE"
);
},
{
closed = 1;
nodes = (
"431 801 LINE",
"431 949 LINE",
"284 949 LINE",
"284 801 LINE"
);
}
);
vertWidth = 1000;
width = 715;
}
);
leftKerningGroup = A;
rightKerningGroup = A;
unicode = 0226;
},
{
glyphname = Adotbelow;
lastChange = "2021-04-04 07:57:41 +0000";
layers = (
{
components = (
{
name = A;
},
{
name = dotbelowcomb;
transform = "{1, 0, 0, 1, 279, -44}";
}
);
layerId = "D65C9A1E-0FCA-4B2D-8EDF-9F36CA9182A1";
width = 500;
},
{
layerId = "E27A6A66-A1F8-4E1B-8224-7C0FE77551F2";
paths = (
{
closed = 1;
nodes = (
"104 0 LINE",
"348 661 LINE",
"350 661 LINE",
"595 0 LINE",
"683 0 LINE",
"404 730 LINE",
"295 730 LINE",
"16 0 LINE"
);
},
{
closed = 1;
nodes = (
"401 -197 LINE",
"401 -93 LINE",
"297 -93 LINE",
"297 -197 LINE"
);
},
{
closed = 1;
nodes = (
"555 201 LINE",
"555 274 LINE",
"145 274 LINE",
"145 201 LINE"
);
}
);
vertWidth = 1000;
width = 699;
},
{
layerId = "FC9CFCDA-9E80-4E73-BA51-8504D15957FA";
paths = (
{
closed = 1;
nodes = (
"165 0 LINE",
"356 611 LINE",
"358 611 LINE",
"550 0 LINE",
"704 0 LINE",
"452 730 LINE",
"263 730 LINE",
"11 0 LINE"
);
},
{
closed = 1;
nodes = (
"431 -219 LINE",
"431 -71 LINE",
"284 -71 LINE",
"284 -219 LINE"
);
},
{
closed = 1;
nodes = (
"558 167 LINE",
"558 289 LINE",
"158 289 LINE",
"158 167 LINE"
);
}
);
vertWidth = 1000;
width = 715;
}
);
leftKerningGroup = A;
rightKerningGroup = A;
unicode = 1EA0;
},
{
glyphname = Agrave;
lastChange = "2021-04-04 07:57:41 +0000";
layers = (
{
components = (
{
name = A;
},
{
name = gravecomb;
transform = "{1, 0, 0, 1, 232, 210}";
}
);
layerId = "D65C9A1E-0FCA-4B2D-8EDF-9F36CA9182A1";
width = 500;
},
{
layerId = "E27A6A66-A1F8-4E1B-8224-7C0FE77551F2";
paths = (
{
closed = 1;
nodes = (
"104 0 LINE",
"348 661 LINE",
"350 661 LINE",
"595 0 LINE",
"683 0 LINE",
"404 730 LINE",
"295 730 LINE",
"16 0 LINE"
);
},
{
closed = 1;
nodes = (
"555 201 LINE",
"555 274 LINE",
"145 274 LINE",
"145 201 LINE"
);
},
{
closed = 1;
nodes = (
"438 780 LINE",
"337 1000 LINE",
"236 1000 LINE",
"357 780 LINE"
);
}
);
vertWidth = 1000;
width = 699;
},
{
layerId = "FC9CFCDA-9E80-4E73-BA51-8504D15957FA";
paths = (
{
closed = 1;
nodes = (
"165 0 LINE",
"356 611 LINE",
"358 611 LINE",
"550 0 LINE",
"704 0 LINE",
"452 730 LINE",
"263 730 LINE",
"11 0 LINE"
);
},
{
closed = 1;
nodes = (
"558 167 LINE",
"558 289 LINE",
"158 289 LINE",
"158 167 LINE"
);
},
{
closed = 1;
nodes = (
"464 780 LINE",
"383 1000 LINE",
"213 1000 LINE",
"334 780 LINE"
);
}
);
vertWidth = 1000;
width = 715;
}
);
leftKerningGroup = A;
rightKerningGroup = A;
unicode = 00C0;
},
{
glyphname = Ahookabove;
lastChange = "2021-04-04 07:57:41 +0000";
layers = (
{
components = (
{
name = A;
},
{
name = hookabovecomb;
transform = "{1, 0, 0, 1, 154, 210}";
}
);
layerId = "D65C9A1E-0FCA-4B2D-8EDF-9F36CA9182A1";
width = 500;
},
{
layerId = "E27A6A66-A1F8-4E1B-8224-7C0FE77551F2";
paths = (
{
closed = 1;
nodes = (
"104 0 LINE",
"348 661 LINE",
"350 661 LINE",
"595 0 LINE",
"683 0 LINE",
"404 730 LINE",
"295 730 LINE",
"16 0 LINE"
);
},
{
closed = 1;
nodes = (
"555 201 LINE",
"555 274 LINE",
"145 274 LINE",
"145 201 LINE"
);
},
{
closed = 1;
nodes = (
"496 790 LINE",
"509 819 OFFCURVE",
"518 861 OFFCURVE",
"518 890 CURVE SMOOTH",
"518 951 OFFCURVE",
"477 970 OFFCURVE",
"349 970 CURVE SMOOTH",
"291 970 OFFCURVE",
"236 964 OFFCURVE",
"181 953 CURVE",
"189 888 LINE",
"240 901 OFFCURVE",
"285 906 OFFCURVE",
"333 906 CURVE SMOOTH",
"412 906 OFFCURVE",
"433 897 OFFCURVE",
"433 864 CURVE SMOOTH",
"433 845 OFFCURVE",
"426 815 OFFCURVE",
"416 790 CURVE"
);
}
);
vertWidth = 1000;
width = 699;
},
{
layerId = "FC9CFCDA-9E80-4E73-BA51-8504D15957FA";
paths = (
{
closed = 1;
nodes = (
"165 0 LINE",
"356 611 LINE",
"358 611 LINE",
"550 0 LINE",
"704 0 LINE",
"452 730 LINE",
"263 730 LINE",
"11 0 LINE"
);
},
{
closed = 1;
nodes = (
"558 167 LINE",
"558 289 LINE",
"158 289 LINE",
"158 167 LINE"
);
},
{
closed = 1;
nodes = (
"516 785 LINE",
"530 817 OFFCURVE",
"539 865 OFFCURVE",
"539 898 CURVE SMOOTH",
"539 965 OFFCURVE",
"498 985 OFFCURVE",
"358 985 CURVE SMOOTH",
"298 985 OFFCURVE",
"231 978 OFFCURVE",
"176 967 CURVE",
"188 864 LINE",
"238 878 OFFCURVE",
"288 885 OFFCURVE",
"333 885 CURVE SMOOTH",
"389 885 OFFCURVE",
"403 878 OFFCURVE",
"403 850 CURVE SMOOTH",
"403 833 OFFCURVE",
"398 808 OFFCURVE",
"390 785 CURVE"
);
}
);
vertWidth = 1000;
width = 715;
}
);
leftKerningGroup = A;
rightKerningGroup = A;
unicode = 1EA2;
},
{
glyphname = Ainvertedbreve;
lastChange = "2021-04-04 07:57:41 +0000";
layers = (
{
components = (
{
name = A;
},
{
name = breveinvertedcomb;
transform = "{1, 0, 0, 1, 135, 210}";
}
);
layerId = "D65C9A1E-0FCA-4B2D-8EDF-9F36CA9182A1";
width = 500;
},
{
layerId = "E27A6A66-A1F8-4E1B-8224-7C0FE77551F2";
paths = (
{
closed = 1;
nodes = (
"104 0 LINE",
"348 661 LINE",
"350 661 LINE",
"595 0 LINE",
"683 0 LINE",
"404 730 LINE",
"295 730 LINE",
"16 0 LINE"
);
},
{
closed = 1;
nodes = (
"555 201 LINE",
"555 274 LINE",
"145 274 LINE",
"145 201 LINE"
);
},
{
closed = 1;
nodes = (
"225 813 LINE",
"235 886 OFFCURVE",
"283 929 OFFCURVE",
"351 929 CURVE SMOOTH",
"418 929 OFFCURVE",
"464 886 OFFCURVE",
"476 813 CURVE",
"561 813 LINE",
"550 920 OFFCURVE",
"465 993 OFFCURVE",
"351 993 CURVE SMOOTH",
"235 993 OFFCURVE",
"150 920 OFFCURVE",
"141 813 CURVE"
);
}
);
vertWidth = 1000;
width = 699;
},
{
layerId = "FC9CFCDA-9E80-4E73-BA51-8504D15957FA";
paths = (
{
closed = 1;
nodes = (
"165 0 LINE",
"356 611 LINE",
"358 611 LINE",
"550 0 LINE",
"704 0 LINE",
"452 730 LINE",
"263 730 LINE",
"11 0 LINE"
);
},
{
closed = 1;
nodes = (
"558 167 LINE",
"558 289 LINE",
"158 289 LINE",
"158 167 LINE"
);
},
{
closed = 1;
nodes = (
"262 807 LINE",
"270 871 OFFCURVE",
"304 906 OFFCURVE",
"358 906 CURVE SMOOTH",
"411 906 OFFCURVE",
"444 871 OFFCURVE",
"453 807 CURVE",
"588 807 LINE",
"582 924 OFFCURVE",
"487 1007 OFFCURVE",
"358 1007 CURVE SMOOTH",
"227 1007 OFFCURVE",
"132 924 OFFCURVE",
"128 807 CURVE"
);
}
);
vertWidth = 1000;
width = 715;
}
);
leftKerningGroup = A;
rightKerningGroup = A;
unicode = 0202;
},
{
glyphname = Amacron;
lastChange = "2021-04-04 07:57:41 +0000";
layers = (
{
components = (
{
name = A;
},
{
name = macroncomb;
transform = "{1, 0, 0, 1, 142, 210}";
}
);
layerId = "D65C9A1E-0FCA-4B2D-8EDF-9F36CA9182A1";
width = 500;
},
{
layerId = "E27A6A66-A1F8-4E1B-8224-7C0FE77551F2";
paths = (
{
closed = 1;
nodes = (
"104 0 LINE",
"348 661 LINE",
"350 661 LINE",
"595 0 LINE",
"683 0 LINE",
"404 730 LINE",
"295 730 LINE",
"16 0 LINE"
);
},
{
closed = 1;
nodes = (
"555 201 LINE",
"555 274 LINE",
"145 274 LINE",
"145 201 LINE"
);
},
{
closed = 1;
nodes = (
"531 843 LINE",
"531 907 LINE",
"168 907 LINE",
"168 843 LINE"
);
}
);
vertWidth = 1000;
width = 699;
},
{
layerId = "FC9CFCDA-9E80-4E73-BA51-8504D15957FA";
paths = (
{
closed = 1;
nodes = (
"165 0 LINE",
"356 611 LINE",
"358 611 LINE",
"550 0 LINE",
"704 0 LINE",
"452 730 LINE",
"263 730 LINE",
"11 0 LINE"
);
},
{
closed = 1;
nodes = (
"558 167 LINE",
"558 289 LINE",
"158 289 LINE",
"158 167 LINE"
);
},
{
closed = 1;
nodes = (
"553 823 LINE",
"553 927 LINE",
"161 927 LINE",
"161 823 LINE"
);
}
);
vertWidth = 1000;
width = 715;
}
);
leftKerningGroup = A;
rightKerningGroup = A;
unicode = 0100;
},
{
glyphname = Aogonek;
lastChange = "2021-04-04 07:57:41 +0000";
layers = (
{
components = (
{
name = A;
},
{
name = ogonekcomb;
transform = "{1, 0, 0, 1, 487, 0}";
}
);
layerId = "D65C9A1E-0FCA-4B2D-8EDF-9F36CA9182A1";
width = 500;
},
{
layerId = "E27A6A66-A1F8-4E1B-8224-7C0FE77551F2";
paths = (
{
closed = 1;
nodes = (
"104 0 LINE",
"348 661 LINE",
"350 661 LINE",
"595 0 LINE",
"683 0 LINE",
"404 730 LINE",
"295 730 LINE",
"16 0 LINE"
);
},
{
closed = 1;
nodes = (
"702 -218 OFFCURVE",
"739 -211 OFFCURVE",
"771 -197 CURVE",
"757 -134 LINE",
"730 -147 OFFCURVE",
"699 -153 OFFCURVE",
"667 -153 CURVE SMOOTH",
"621 -153 OFFCURVE",
"586 -141 OFFCURVE",
"586 -107 CURVE SMOOTH",
"586 -74 OFFCURVE",
"621 -36 OFFCURVE",
"683 0 CURVE",
"612 21 LINE",
"547 -21 OFFCURVE",
"511 -69 OFFCURVE",
"511 -120 CURVE SMOOTH",
"511 -175 OFFCURVE",
"556 -218 OFFCURVE",
"661 -218 CURVE SMOOTH"
);
},
{
closed = 1;
nodes = (
"555 201 LINE",
"555 274 LINE",
"145 274 LINE",
"145 201 LINE"
);
}
);
vertWidth = 1000;
width = 699;
},
{
layerId = "FC9CFCDA-9E80-4E73-BA51-8504D15957FA";
paths = (
{
closed = 1;
nodes = (
"165 0 LINE",
"356 611 LINE",
"358 611 LINE",
"550 0 LINE",
"704 0 LINE",
"452 730 LINE",
"263 730 LINE",
"11 0 LINE"
);
},
{
closed = 1;
nodes = (
"720 -218 OFFCURVE",
"759 -211 OFFCURVE",
"794 -197 CURVE",
"778 -96 LINE",
"749 -108 OFFCURVE",
"716 -115 OFFCURVE",
"686 -115 CURVE SMOOTH",
"646 -115 OFFCURVE",
"624 -103 OFFCURVE",
"624 -81 CURVE SMOOTH",
"624 -56 OFFCURVE",
"652 -28 OFFCURVE",
"704 0 CURVE",
"580 33 LINE",
"524 -12 OFFCURVE",
"497 -54 OFFCURVE",
"497 -102 CURVE SMOOTH",
"497 -176 OFFCURVE",
"562 -218 OFFCURVE",
"676 -218 CURVE SMOOTH"
);
},
{
closed = 1;
nodes = (
"558 167 LINE",
"558 289 LINE",
"158 289 LINE",
"158 167 LINE"
);
}
);
vertWidth = 1000;
width = 715;
}
);
leftKerningGroup = A;
rightKerningGroup = A;
unicode = 0104;
},
{
glyphname = Aring;
lastChange = "2021-04-04 07:57:41 +0000";
layers = (
{
components = (
{
name = A;
},
{
anchor = top_ring;
name = ringcomb;
transform = "{1, 0, 0, 1, 191, 195}";
}
);
layerId = "D65C9A1E-0FCA-4B2D-8EDF-9F36CA9182A1";
width = 500;
},
{
layerId = "E27A6A66-A1F8-4E1B-8224-7C0FE77551F2";
paths = (
{
closed = 1;
nodes = (
"104 0 LINE",
"348 661 LINE",
"350 661 LINE",
"595 0 LINE",
"683 0 LINE",
"404 730 LINE",
"295 730 LINE",
"16 0 LINE"
);
},
{
closed = 1;
nodes = (
"555 201 LINE",
"555 274 LINE",
"145 274 LINE",
"145 201 LINE"
);
},
{
closed = 1;
nodes = (
"429 703 OFFCURVE",
"492 766 OFFCURVE",
"492 845 CURVE SMOOTH",
"492 923 OFFCURVE",
"429 986 OFFCURVE",
"350 986 CURVE SMOOTH",
"272 986 OFFCURVE",
"209 923 OFFCURVE",
"209 845 CURVE SMOOTH",
"209 766 OFFCURVE",
"272 703 OFFCURVE",
"350 703 CURVE SMOOTH"
);
},
{
closed = 1;
nodes = (
"305 763 OFFCURVE",
"269 799 OFFCURVE",
"269 845 CURVE SMOOTH",
"269 890 OFFCURVE",
"305 926 OFFCURVE",
"350 926 CURVE SMOOTH",
"396 926 OFFCURVE",
"432 890 OFFCURVE",
"432 845 CURVE SMOOTH",
"432 799 OFFCURVE",
"396 763 OFFCURVE",
"350 763 CURVE SMOOTH"
);
}
);
vertWidth = 1000;
width = 699;
},
{
layerId = "FC9CFCDA-9E80-4E73-BA51-8504D15957FA";
paths = (
{
closed = 1;
nodes = (
"165 0 LINE",
"356 611 LINE",
"358 611 LINE",
"550 0 LINE",
"704 0 LINE",
"452 730 LINE",
"263 730 LINE",
"11 0 LINE"
);
},
{
closed = 1;
nodes = (
"558 167 LINE",
"558 289 LINE",
"158 289 LINE",
"158 167 LINE"
);
},
{
closed = 1;
nodes = (
"445 684 OFFCURVE",
"515 754 OFFCURVE",
"515 840 CURVE SMOOTH",
"515 927 OFFCURVE",
"445 997 OFFCURVE",
"358 997 CURVE SMOOTH",
"271 997 OFFCURVE",
"201 927 OFFCURVE",
"201 840 CURVE SMOOTH",
"201 754 OFFCURVE",
"271 684 OFFCURVE",
"358 684 CURVE SMOOTH"
);
},
{
closed = 1;
nodes = (
"322 775 OFFCURVE",
"293 804 OFFCURVE",
"293 840 CURVE SMOOTH",
"293 877 OFFCURVE",
"322 905 OFFCURVE",
"358 905 CURVE SMOOTH",
"394 905 OFFCURVE",
"423 877 OFFCURVE",
"423 840 CURVE SMOOTH",
"423 804 OFFCURVE",
"394 775 OFFCURVE",
"358 775 CURVE SMOOTH"
);
}
);
vertWidth = 1000;
width = 715;
}
);
leftKerningGroup = A;
rightKerningGroup = A;
unicode = 00C5;
},
{
glyphname = Aringacute;
lastChange = "2021-04-04 07:57:41 +0000";
layers = (
{
components = (
{
name = A;
},
{
anchor = top_ring;
name = ringcomb;
transform = "{1, 0, 0, 1, 191, 195}";
},
{
anchor = top_acC;
name = acutecomb;
transform = "{1, 0, 0, 1, 229, 385}";
}
);
layerId = "D65C9A1E-0FCA-4B2D-8EDF-9F36CA9182A1";
width = 500;
},
{
layerId = "E27A6A66-A1F8-4E1B-8224-7C0FE77551F2";
paths = (
{
closed = 1;
nodes = (
"104 0 LINE",
"348 661 LINE",
"350 661 LINE",
"595 0 LINE",
"683 0 LINE",
"404 730 LINE",
"295 730 LINE",
"16 0 LINE"
);
},
{
closed = 1;
nodes = (
"555 201 LINE",
"555 274 LINE",
"145 274 LINE",
"145 201 LINE"
);
},
{
closed = 1;
nodes = (
"429 703 OFFCURVE",
"492 766 OFFCURVE",
"492 845 CURVE SMOOTH",
"492 923 OFFCURVE",
"429 986 OFFCURVE",
"350 986 CURVE SMOOTH",
"272 986 OFFCURVE",
"209 923 OFFCURVE",
"209 845 CURVE SMOOTH",
"209 766 OFFCURVE",
"272 703 OFFCURVE",
"350 703 CURVE SMOOTH"
);
},
{
closed = 1;
nodes = (
"305 763 OFFCURVE",
"269 799 OFFCURVE",
"269 845 CURVE SMOOTH",
"269 890 OFFCURVE",
"305 926 OFFCURVE",
"350 926 CURVE SMOOTH",
"396 926 OFFCURVE",
"432 890 OFFCURVE",
"432 845 CURVE SMOOTH",
"432 799 OFFCURVE",
"396 763 OFFCURVE",
"350 763 CURVE SMOOTH"
);
},
{
closed = 1;
nodes = (
"350 958 LINE",
"471 1178 LINE",
"370 1178 LINE",
"269 958 LINE"
);
}
);
vertWidth = 1000;
width = 699;
},
{
layerId = "FC9CFCDA-9E80-4E73-BA51-8504D15957FA";
paths = (
{
closed = 1;
nodes = (
"165 0 LINE",
"356 611 LINE",
"358 611 LINE",
"550 0 LINE",
"704 0 LINE",
"452 730 LINE",
"263 730 LINE",
"11 0 LINE"
);
},
{
closed = 1;
nodes = (
"558 167 LINE",
"558 289 LINE",
"158 289 LINE",
"158 167 LINE"
);
},
{
closed = 1;
nodes = (
"445 684 OFFCURVE",
"515 754 OFFCURVE",
"515 840 CURVE SMOOTH",
"515 927 OFFCURVE",
"445 997 OFFCURVE",
"358 997 CURVE SMOOTH",
"271 997 OFFCURVE",
"201 927 OFFCURVE",
"201 840 CURVE SMOOTH",
"201 754 OFFCURVE",
"271 684 OFFCURVE",
"358 684 CURVE SMOOTH"
);
},
{
closed = 1;
nodes = (
"322 775 OFFCURVE",
"293 804 OFFCURVE",
"293 840 CURVE SMOOTH",
"293 877 OFFCURVE",
"322 905 OFFCURVE",
"358 905 CURVE SMOOTH",
"394 905 OFFCURVE",
"423 877 OFFCURVE",
"423 840 CURVE SMOOTH",
"423 804 OFFCURVE",
"394 775 OFFCURVE",
"358 775 CURVE SMOOTH"
);
},
{
closed = 1;
nodes = (
"394 962 LINE",
"514 1182 LINE",
"344 1182 LINE",
"264 962 LINE"
);
}
);
vertWidth = 1000;
width = 715;
}
);
leftKerningGroup = A;
rightKerningGroup = A;
unicode = 01FA;
},
{
glyphname = Atilde;
lastChange = "2021-04-04 07:57:41 +0000";
layers = (
{
components = (
{
name = A;
},
{
name = tildecomb;
transform = "{1, 0, 0, 1, 119, 210}";
}
);
layerId = "D65C9A1E-0FCA-4B2D-8EDF-9F36CA9182A1";
width = 500;
},
{
layerId = "E27A6A66-A1F8-4E1B-8224-7C0FE77551F2";
paths = (
{
closed = 1;
nodes = (
"104 0 LINE",
"348 661 LINE",
"350 661 LINE",
"595 0 LINE",
"683 0 LINE",
"404 730 LINE",
"295 730 LINE",
"16 0 LINE"
);
},
{
closed = 1;
nodes = (
"555 201 LINE",
"555 274 LINE",
"145 274 LINE",
"145 201 LINE"
);
},
{
closed = 1;
nodes = (
"528 794 OFFCURVE",
"559 850 OFFCURVE",
"559 959 CURVE",
"486 959 LINE",
"486 896 OFFCURVE",
"474 866 OFFCURVE",
"451 866 CURVE SMOOTH",
"433 866 OFFCURVE",
"398 883 OFFCURVE",
"355 914 CURVE SMOOTH",
"300 953 OFFCURVE",
"262 970 OFFCURVE",
"230 970 CURVE SMOOTH",
"170 970 OFFCURVE",
"139 914 OFFCURVE",
"139 805 CURVE",
"212 805 LINE",
"212 868 OFFCURVE",
"224 898 OFFCURVE",
"247 898 CURVE SMOOTH",
"265 898 OFFCURVE",
"300 881 OFFCURVE",
"343 850 CURVE SMOOTH",
"398 811 OFFCURVE",
"436 794 OFFCURVE",
"468 794 CURVE SMOOTH"
);
}
);
vertWidth = 1000;
width = 699;
},
{
layerId = "FC9CFCDA-9E80-4E73-BA51-8504D15957FA";
paths = (
{
closed = 1;
nodes = (
"165 0 LINE",
"356 611 LINE",
"358 611 LINE",
"550 0 LINE",
"704 0 LINE",
"452 730 LINE",
"263 730 LINE",
"11 0 LINE"
);
},
{
closed = 1;
nodes = (
"558 167 LINE",
"558 289 LINE",
"158 289 LINE",
"158 167 LINE"
);
},
{
closed = 1;
nodes = (
"550 784 OFFCURVE",
"587 849 OFFCURVE",
"587 978 CURVE",
"471 978 LINE",
"471 923 OFFCURVE",
"464 901 OFFCURVE",
"445 901 CURVE SMOOTH",
"430 901 OFFCURVE",
"403 914 OFFCURVE",
"369 936 CURVE SMOOTH",
"314 970 OFFCURVE",
"273 986 OFFCURVE",
"237 986 CURVE SMOOTH",
"164 986 OFFCURVE",
"127 921 OFFCURVE",
"127 793 CURVE",
"243 793 LINE",
"243 848 OFFCURVE",
"250 869 OFFCURVE",
"269 869 CURVE SMOOTH",
"284 869 OFFCURVE",
"311 856 OFFCURVE",
"345 835 CURVE SMOOTH",
"400 800 OFFCURVE",
"441 784 OFFCURVE",
"477 784 CURVE SMOOTH"
);
}
);
vertWidth = 1000;
width = 715;
}
);
leftKerningGroup = A;
rightKerningGroup = A;
unicode = 00C3;
},
{
glyphname = AE;
lastChange = "2021-04-04 01:01:52 +0000";
layers = (
{
anchors = (
{
name = bottom;
position = "{491, 0}";
},
{
name = top;
position = "{491, 730}";
}
);
layerId = "D65C9A1E-0FCA-4B2D-8EDF-9F36CA9182A1";
paths = (
{
closed = 1;
nodes = (
"45 0 LINE",
"460 710 LINE",
"472 710 LINE",
"472 0 LINE",
"832 0 LINE",
"832 20 LINE",
"492 20 LINE",
"492 380 LINE",
"809 380 LINE",
"809 400 LINE",
"492 400 LINE",
"492 710 LINE",
"832 710 LINE",
"832 730 LINE",
"449 730 LINE",
"22 0 LINE"
);
},
{
closed = 1;
nodes = (
"482 237 LINE",
"482 257 LINE",
"178 257 LINE",
"178 237 LINE"
);
}
);
width = 915;
},
{
layerId = "E27A6A66-A1F8-4E1B-8224-7C0FE77551F2";
paths = (
{
closed = 1;
nodes = (
"105 0 LINE",
"431 663 LINE",
"449 663 LINE",
"449 0 LINE",
"839 0 LINE",
"839 72 LINE",
"529 72 LINE",
"529 349 LINE",
"818 349 LINE",
"818 420 LINE",
"529 420 LINE",
"529 658 LINE",
"839 658 LINE",
"839 730 LINE",
"381 730 LINE",
"16 0 LINE"
);
},
{
closed = 1;
nodes = (
"493 201 LINE",
"493 274 LINE",
"172 274 LINE",
"172 201 LINE"
);
}
);
vertWidth = 1000;
width = 912;
},
{
layerId = "FC9CFCDA-9E80-4E73-BA51-8504D15957FA";
paths = (
{
closed = 1;
nodes = (
"165 0 LINE",
"403 617 LINE",
"427 617 LINE",
"427 0 LINE",
"847 0 LINE",
"847 119 LINE",
"567 119 LINE",
"567 322 LINE",
"827 322 LINE",
"827 437 LINE",
"567 437 LINE",
"567 611 LINE",
"847 611 LINE",
"847 730 LINE",
"313 730 LINE",
"11 0 LINE"
);
},
{
closed = 1;
nodes = (
"504 167 LINE",
"504 289 LINE",
"166 289 LINE",
"166 167 LINE"
);
}
);
vertWidth = 1000;
width = 910;
}
);
leftKerningGroup = A;
leftMetricsKey = "=A";
rightKerningGroup = E;
rightMetricsKey = "=E";
unicode = 00C6;
},
{
glyphname = AEacute;
lastChange = "2021-04-04 01:01:52 +0000";
layers = (
{
components = (
{
name = AE;
},
{
name = acutecomb;
transform = "{1, 0, 0, 1, 365, 210}";
}
);
layerId = "D65C9A1E-0FCA-4B2D-8EDF-9F36CA9182A1";
width = 915;
},
{
layerId = "E27A6A66-A1F8-4E1B-8224-7C0FE77551F2";
paths = (
{
closed = 1;
nodes = (
"105 0 LINE",
"431 663 LINE",
"449 663 LINE",
"449 0 LINE",
"839 0 LINE",
"839 72 LINE",
"529 72 LINE",
"529 349 LINE",
"818 349 LINE",
"818 420 LINE",
"529 420 LINE",
"529 658 LINE",
"839 658 LINE",
"839 730 LINE",
"381 730 LINE",
"16 0 LINE"
);
},
{
closed = 1;
nodes = (
"493 201 LINE",
"493 274 LINE",
"172 274 LINE",
"172 201 LINE"
);
},
{
closed = 1;
nodes = (
"474 780 LINE",
"595 1000 LINE",
"494 1000 LINE",
"393 780 LINE"
);
}
);
vertWidth = 1000;
width = 912;
},
{
layerId = "FC9CFCDA-9E80-4E73-BA51-8504D15957FA";
paths = (
{
closed = 1;
nodes = (
"165 0 LINE",
"403 617 LINE",
"427 617 LINE",
"427 0 LINE",
"847 0 LINE",
"847 119 LINE",
"567 119 LINE",
"567 322 LINE",
"827 322 LINE",
"827 437 LINE",
"567 437 LINE",
"567 611 LINE",
"847 611 LINE",
"847 730 LINE",
"313 730 LINE",
"11 0 LINE"
);
},
{
closed = 1;
nodes = (
"504 167 LINE",
"504 289 LINE",
"166 289 LINE",
"166 167 LINE"
);
},
{
closed = 1;
nodes = (
"504 780 LINE",
"624 1000 LINE",
"454 1000 LINE",
"374 780 LINE"
);
}
);
vertWidth = 1000;
width = 910;
}
);
leftKerningGroup = A;
rightKerningGroup = E;
unicode = 01FC;
},
{
color = 10;
glyphname = B;
lastChange = "2021-04-10 04:34:40 +0000";
layers = (
{
layerId = "D65C9A1E-0FCA-4B2D-8EDF-9F36CA9182A1";
paths = (
{
closed = 1;
nodes = (
"372 -10 OFFCURVE",
"450 60 OFFCURVE",
"450 200 CURVE SMOOTH",
"450 305 OFFCURVE",
"406 363 OFFCURVE",
"311 386 CURVE",
"311 390 LINE",
"390 415 OFFCURVE",
"432 471 OFFCURVE",
"432 565 CURVE SMOOTH",
"432 685 OFFCURVE",
"364 740 OFFCURVE",
"216 740 CURVE SMOOTH",
"182 740 OFFCURVE",
"136 737 OFFCURVE",
"80 728 CURVE",
"80 2 LINE",
"135 -7 OFFCURVE",
"182 -10 OFFCURVE",
"216 -10 CURVE SMOOTH"
);
},
{
closed = 1;
nodes = (
"100 728 LINE",
"83 708 LINE",
"132 716 OFFCURVE",
"176 720 OFFCURVE",
"216 720 CURVE SMOOTH",
"353 720 OFFCURVE",
"412 673 OFFCURVE",
"412 565 CURVE SMOOTH",
"412 452 OFFCURVE",
"347 396 OFFCURVE",
"216 396 CURVE SMOOTH",
"90 396 LINE",
"90 376 LINE",
"216 376 LINE SMOOTH",
"366 376 OFFCURVE",
"430 324 OFFCURVE",
"430 200 CURVE SMOOTH",
"430 71 OFFCURVE",
"361 10 OFFCURVE",
"216 10 CURVE SMOOTH",
"184 10 OFFCURVE",
"137 13 OFFCURVE",
"83 22 CURVE",
"100 2 LINE"
);
}
);
width = 500;
},
{
layerId = "E27A6A66-A1F8-4E1B-8224-7C0FE77551F2";
paths = (
{
closed = 1;
nodes = (
"380 -10 OFFCURVE",
"465 64 OFFCURVE",
"465 210 CURVE SMOOTH",
"465 308 OFFCURVE",
"427 366 OFFCURVE",
"347 389 CURVE",
"347 393 LINE",
"412 418 OFFCURVE",
"446 473 OFFCURVE",
"446 555 CURVE SMOOTH",
"446 679 OFFCURVE",
"369 740 OFFCURVE",
"212 740 CURVE SMOOTH",
"177 740 OFFCURVE",
"126 737 OFFCURVE",
"65 728 CURVE",
"65 2 LINE",
"125 -7 OFFCURVE",
"178 -10 OFFCURVE",
"212 -10 CURVE SMOOTH"
);
},
{
closed = 1;
nodes = (
"145 687 LINE",
"125 655 LINE",
"157 664 OFFCURVE",
"189 668 OFFCURVE",
"221 668 CURVE SMOOTH",
"320 668 OFFCURVE",
"365 630 OFFCURVE",
"365 548 CURVE SMOOTH",
"365 461 OFFCURVE",
"315 420 OFFCURVE",
"210 420 CURVE SMOOTH",
"105 420 LINE",
"105 352 LINE",
"218 352 LINE SMOOTH",
"333 352 OFFCURVE",
"383 310 OFFCURVE",
"383 210 CURVE SMOOTH",
"383 110 OFFCURVE",
"331 62 OFFCURVE",
"221 62 CURVE SMOOTH",
"189 62 OFFCURVE",
"159 66 OFFCURVE",
"125 75 CURVE",
"145 43 LINE"
);
}
);
vertWidth = 1000;
width = 500;
},
{
layerId = "FC9CFCDA-9E80-4E73-BA51-8504D15957FA";
paths = (
{
closed = 1;
nodes = (
"395 -10 OFFCURVE",
"480 56 OFFCURVE",
"480 200 CURVE SMOOTH",
"480 308 OFFCURVE",
"431 376 OFFCURVE",
"342 392 CURVE",
"342 396 LINE",
"415 413 OFFCURVE",
"459 477 OFFCURVE",
"459 565 CURVE SMOOTH",
"459 684 OFFCURVE",
"379 740 OFFCURVE",
"208 740 CURVE SMOOTH",
"168 740 OFFCURVE",
"115 737 OFFCURVE",
"50 728 CURVE",
"50 2 LINE",
"114 -7 OFFCURVE",
"168 -10 OFFCURVE",
"208 -10 CURVE SMOOTH"
);
},
{
closed = 1;
nodes = (
"190 646 LINE",
"167 604 LINE",
"182 614 OFFCURVE",
"202 618 OFFCURVE",
"225 618 CURVE SMOOTH",
"287 618 OFFCURVE",
"317 589 OFFCURVE",
"317 531 CURVE SMOOTH",
"317 470 OFFCURVE",
"283 444 OFFCURVE",
"204 444 CURVE SMOOTH",
"120 444 LINE",
"120 328 LINE",
"219 328 LINE SMOOTH",
"300 328 OFFCURVE",
"336 295 OFFCURVE",
"336 220 CURVE SMOOTH",
"336 146 OFFCURVE",
"301 112 OFFCURVE",
"225 112 CURVE SMOOTH",
"196 112 OFFCURVE",
"180 117 OFFCURVE",
"167 126 CURVE",
"190 84 LINE"
);
}
);
vertWidth = 1000;
width = 500;
}
);
leftKerningGroup = H;
rightKerningGroup = B;
unicode = 0042;
},
{
color = 10;
glyphname = C;
lastChange = "2021-04-09 16:45:05 +0000";
layers = (
{
layerId = "D65C9A1E-0FCA-4B2D-8EDF-9F36CA9182A1";
paths = (
{
closed = 1;
nodes = (
"354 -10 OFFCURVE",
"389 -5 OFFCURVE",
"416 6 CURVE",
"416 28 LINE",
"393 17 OFFCURVE",
"357 10 OFFCURVE",
"318 10 CURVE SMOOTH",
"159 10 OFFCURVE",
"76 121 OFFCURVE",
"76 335 CURVE SMOOTH",
"76 395 LINE SMOOTH",
"76 609 OFFCURVE",
"152 720 OFFCURVE",
"297 720 CURVE SMOOTH",
"341 720 OFFCURVE",
"377 711 OFFCURVE",
"406 693 CURVE",
"396 713 LINE",
"396 480 LINE",
"416 480 LINE",
"416 710 LINE",
"383 730 OFFCURVE",
"342 740 OFFCURVE",
"297 740 CURVE SMOOTH",
"140 740 OFFCURVE",
"56 620 OFFCURVE",
"56 395 CURVE SMOOTH",
"56 335 LINE SMOOTH",
"56 110 OFFCURVE",
"147 -10 OFFCURVE",
"318 -10 CURVE SMOOTH"
);
}
);
width = 500;
},
{
layerId = "E27A6A66-A1F8-4E1B-8224-7C0FE77551F2";
paths = (
{
closed = 1;
nodes = (
"349 -10 OFFCURVE",
"394 -5 OFFCURVE",
"427 5 CURVE",
"427 80 LINE",
"395 69 OFFCURVE",
"354 62 OFFCURVE",
"318 62 CURVE SMOOTH",
"190 62 OFFCURVE",
"129 149 OFFCURVE",
"129 340 CURVE SMOOTH",
"129 390 LINE SMOOTH",
"129 574 OFFCURVE",
"187 668 OFFCURVE",
"298 668 CURVE SMOOTH",
"332 668 OFFCURVE",
"361 659 OFFCURVE",
"387 640 CURVE",
"347 702 LINE",
"347 470 LINE",
"427 470 LINE",
"427 714 LINE",
"392 731 OFFCURVE",
"346 740 OFFCURVE",
"300 740 CURVE SMOOTH",
"133 740 OFFCURVE",
"47 623 OFFCURVE",
"47 395 CURVE SMOOTH",
"47 335 LINE SMOOTH",
"47 107 OFFCURVE",
"136 -10 OFFCURVE",
"310 -10 CURVE SMOOTH"
);
}
);
vertWidth = 1000;
width = 500;
},
{
layerId = "FC9CFCDA-9E80-4E73-BA51-8504D15957FA";
paths = (
{
closed = 1;
nodes = (
"341 -10 OFFCURVE",
"396 -4 OFFCURVE",
"436 4 CURVE",
"436 134 LINE",
"394 123 OFFCURVE",
"349 116 OFFCURVE",
"316 116 CURVE SMOOTH",
"218 116 OFFCURVE",
"180 179 OFFCURVE",
"180 345 CURVE SMOOTH",
"180 385 LINE SMOOTH",
"180 536 OFFCURVE",
"220 614 OFFCURVE",
"296 614 CURVE SMOOTH",
"319 614 OFFCURVE",
"343 604 OFFCURVE",
"366 584 CURVE",
"296 691 LINE",
"296 460 LINE",
"436 460 LINE",
"436 718 LINE",
"398 731 OFFCURVE",
"346 740 OFFCURVE",
"301 740 CURVE SMOOTH",
"123 740 OFFCURVE",
"36 626 OFFCURVE",
"36 395 CURVE SMOOTH",
"36 335 LINE SMOOTH",
"36 104 OFFCURVE",
"123 -10 OFFCURVE",
"300 -10 CURVE SMOOTH"
);
}
);
vertWidth = 1000;
width = 500;
}
);
leftKerningGroup = O;
rightKerningGroup = C;
unicode = 0043;
},
{
glyphname = Cacute;
lastChange = "2021-04-04 09:39:28 +0000";
layers = (
{
components = (
{
name = C;
},
{
name = acutecomb;
transform = "{1, 0, 0, 1, 287, 210}";
}
);
layerId = "D65C9A1E-0FCA-4B2D-8EDF-9F36CA9182A1";
width = 500;
},
{
layerId = "E27A6A66-A1F8-4E1B-8224-7C0FE77551F2";
paths = (
{
closed = 1;
nodes = (
"511 -10 OFFCURVE",
"591 11 OFFCURVE",
"660 52 CURVE",
"639 123 LINE",
"571 83 OFFCURVE",
"501 63 OFFCURVE",
"426 63 CURVE SMOOTH",
"244 63 OFFCURVE",
"130 179 OFFCURVE",
"130 365 CURVE SMOOTH",
"130 551 OFFCURVE",
"244 667 OFFCURVE",
"426 667 CURVE SMOOTH",
"501 667 OFFCURVE",
"572 647 OFFCURVE",
"639 607 CURVE",
"660 678 LINE",
"591 719 OFFCURVE",
"511 740 OFFCURVE",
"423 740 CURVE SMOOTH",
"191 740 OFFCURVE",
"47 596 OFFCURVE",
"47 365 CURVE SMOOTH",
"47 134 OFFCURVE",
"191 -10 OFFCURVE",
"423 -10 CURVE SMOOTH"
);
},
{
closed = 1;
nodes = (
"395 780 LINE",
"516 1000 LINE",
"415 1000 LINE",
"314 780 LINE"
);
}
);
vertWidth = 1000;
width = 716;
},
{
layerId = "FC9CFCDA-9E80-4E73-BA51-8504D15957FA";
paths = (
{
closed = 1;
nodes = (
"513 -10 OFFCURVE",
"594 9 OFFCURVE",
"665 49 CURVE",
"633 171 LINE",
"562 132 OFFCURVE",
"495 113 OFFCURVE",
"428 113 CURVE SMOOTH",
"276 113 OFFCURVE",
"184 207 OFFCURVE",
"184 365 CURVE SMOOTH",
"184 523 OFFCURVE",
"276 617 OFFCURVE",
"428 617 CURVE SMOOTH",
"496 617 OFFCURVE",
"564 598 OFFCURVE",
"633 559 CURVE",
"665 681 LINE",
"594 721 OFFCURVE",
"513 740 OFFCURVE",
"422 740 CURVE SMOOTH",
"181 740 OFFCURVE",
"39 601 OFFCURVE",
"39 365 CURVE SMOOTH",
"39 129 OFFCURVE",
"181 -10 OFFCURVE",
"422 -10 CURVE SMOOTH"
);
},
{
closed = 1;
nodes = (
"423 780 LINE",
"543 1000 LINE",
"373 1000 LINE",
"293 780 LINE"
);
}
);
vertWidth = 1000;
width = 711;
}
);
leftKerningGroup = O;
rightKerningGroup = C;
unicode = 0106;
},
{
glyphname = Ccaron;
lastChange = "2021-04-04 09:39:28 +0000";
layers = (
{
components = (
{
name = C;
},
{
name = caroncomb;
transform = "{1, 0, 0, 1, 212, 210}";
}
);
layerId = "D65C9A1E-0FCA-4B2D-8EDF-9F36CA9182A1";
width = 500;
},
{
layerId = "E27A6A66-A1F8-4E1B-8224-7C0FE77551F2";
paths = (
{
closed = 1;
nodes = (
"511 -10 OFFCURVE",
"591 11 OFFCURVE",
"660 52 CURVE",
"639 123 LINE",
"571 83 OFFCURVE",
"501 63 OFFCURVE",
"426 63 CURVE SMOOTH",
"244 63 OFFCURVE",
"130 179 OFFCURVE",
"130 365 CURVE SMOOTH",
"130 551 OFFCURVE",
"244 667 OFFCURVE",
"426 667 CURVE SMOOTH",
"501 667 OFFCURVE",
"572 647 OFFCURVE",
"639 607 CURVE",
"660 678 LINE",
"591 719 OFFCURVE",
"511 740 OFFCURVE",
"423 740 CURVE SMOOTH",
"191 740 OFFCURVE",
"47 596 OFFCURVE",
"47 365 CURVE SMOOTH",
"47 134 OFFCURVE",
"191 -10 OFFCURVE",
"423 -10 CURVE SMOOTH"
);
},
{
closed = 1;
nodes = (
"479 780 LINE",
"615 1000 LINE",
"520 1000 LINE",
"411 818 LINE",
"409 818 LINE",
"300 1000 LINE",
"205 1000 LINE",
"340 780 LINE"
);
}
);
vertWidth = 1000;
width = 716;
},
{
layerId = "FC9CFCDA-9E80-4E73-BA51-8504D15957FA";
paths = (
{
closed = 1;
nodes = (
"513 -10 OFFCURVE",
"594 9 OFFCURVE",
"665 49 CURVE",
"633 171 LINE",
"562 132 OFFCURVE",
"495 113 OFFCURVE",
"428 113 CURVE SMOOTH",
"276 113 OFFCURVE",
"184 207 OFFCURVE",
"184 365 CURVE SMOOTH",
"184 523 OFFCURVE",
"276 617 OFFCURVE",
"428 617 CURVE SMOOTH",
"496 617 OFFCURVE",
"564 598 OFFCURVE",
"633 559 CURVE",
"665 681 LINE",
"594 721 OFFCURVE",
"513 740 OFFCURVE",
"422 740 CURVE SMOOTH",
"181 740 OFFCURVE",
"39 601 OFFCURVE",
"39 365 CURVE SMOOTH",
"39 129 OFFCURVE",
"181 -10 OFFCURVE",
"422 -10 CURVE SMOOTH"
);
},
{
closed = 1;
nodes = (
"517 780 LINE",
"640 1000 LINE",
"483 1000 LINE",
"404 840 LINE",
"402 840 LINE",
"322 1000 LINE",
"165 1000 LINE",
"288 780 LINE"
);
}
);
vertWidth = 1000;
width = 711;
}
);
leftKerningGroup = O;
rightKerningGroup = C;
unicode = 010C;
},
{
glyphname = Ccedilla;
lastChange = "2021-04-04 09:39:28 +0000";
layers = (
{
components = (
{
name = C;
},
{
name = cedillacomb;
transform = "{1, 0, 0, 1, 198, 0}";
}
);
layerId = "D65C9A1E-0FCA-4B2D-8EDF-9F36CA9182A1";
width = 500;
},
{
layerId = "E27A6A66-A1F8-4E1B-8224-7C0FE77551F2";
paths = (
{
closed = 1;
nodes = (
"511 -10 OFFCURVE",
"591 11 OFFCURVE",
"660 52 CURVE",
"639 123 LINE",
"571 83 OFFCURVE",
"501 63 OFFCURVE",
"426 63 CURVE SMOOTH",
"244 63 OFFCURVE",
"130 179 OFFCURVE",
"130 365 CURVE SMOOTH",
"130 551 OFFCURVE",
"244 667 OFFCURVE",
"426 667 CURVE SMOOTH",
"501 667 OFFCURVE",
"572 647 OFFCURVE",
"639 607 CURVE",
"660 678 LINE",
"591 719 OFFCURVE",
"511 740 OFFCURVE",
"423 740 CURVE SMOOTH",
"191 740 OFFCURVE",
"47 596 OFFCURVE",
"47 365 CURVE SMOOTH",
"47 134 OFFCURVE",
"191 -10 OFFCURVE",
"423 -10 CURVE SMOOTH"
);
},
{
closed = 1;
nodes = (
"465 -218 OFFCURVE",
"510 -175 OFFCURVE",
"510 -120 CURVE SMOOTH",
"510 -69 OFFCURVE",
"474 -21 OFFCURVE",
"409 21 CURVE",
"338 0 LINE",
"400 -36 OFFCURVE",
"435 -74 OFFCURVE",
"435 -107 CURVE SMOOTH",
"435 -141 OFFCURVE",
"399 -153 OFFCURVE",
"354 -153 CURVE SMOOTH",
"322 -153 OFFCURVE",
"291 -147 OFFCURVE",
"263 -134 CURVE",
"249 -197 LINE",
"281 -211 OFFCURVE",
"319 -218 OFFCURVE",
"360 -218 CURVE SMOOTH"
);
}
);
vertWidth = 1000;
width = 716;
},
{
layerId = "FC9CFCDA-9E80-4E73-BA51-8504D15957FA";
paths = (
{
closed = 1;
nodes = (
"513 -10 OFFCURVE",
"594 9 OFFCURVE",
"665 49 CURVE",
"633 171 LINE",
"562 132 OFFCURVE",
"495 113 OFFCURVE",
"428 113 CURVE SMOOTH",
"276 113 OFFCURVE",
"184 207 OFFCURVE",
"184 365 CURVE SMOOTH",
"184 523 OFFCURVE",
"276 617 OFFCURVE",
"428 617 CURVE SMOOTH",
"496 617 OFFCURVE",
"564 598 OFFCURVE",
"633 559 CURVE",
"665 681 LINE",
"594 721 OFFCURVE",
"513 740 OFFCURVE",
"422 740 CURVE SMOOTH",
"181 740 OFFCURVE",
"39 601 OFFCURVE",
"39 365 CURVE SMOOTH",
"39 129 OFFCURVE",
"181 -10 OFFCURVE",
"422 -10 CURVE SMOOTH"
);
},
{
closed = 1;
nodes = (
"467 -218 OFFCURVE",
"532 -176 OFFCURVE",
"532 -102 CURVE SMOOTH",
"532 -54 OFFCURVE",
"504 -12 OFFCURVE",
"448 33 CURVE",
"324 0 LINE",
"377 -28 OFFCURVE",
"405 -56 OFFCURVE",
"405 -81 CURVE SMOOTH",
"405 -103 OFFCURVE",
"383 -115 OFFCURVE",
"343 -115 CURVE SMOOTH",
"312 -115 OFFCURVE",
"279 -108 OFFCURVE",
"251 -96 CURVE",
"234 -197 LINE",
"270 -211 OFFCURVE",
"308 -218 OFFCURVE",
"353 -218 CURVE SMOOTH"
);
}
);
vertWidth = 1000;
width = 711;
}
);
leftKerningGroup = O;
rightKerningGroup = C;
unicode = 00C7;
},
{
glyphname = Ccircumflex;
lastChange = "2021-04-04 09:39:28 +0000";
layers = (
{
components = (
{
name = C;
},
{
name = circumflexcomb;
transform = "{1, 0, 0, 1, 208, 210}";
}
);
layerId = "D65C9A1E-0FCA-4B2D-8EDF-9F36CA9182A1";
width = 500;
},
{
layerId = "E27A6A66-A1F8-4E1B-8224-7C0FE77551F2";
paths = (
{
closed = 1;
nodes = (
"511 -10 OFFCURVE",
"591 11 OFFCURVE",
"660 52 CURVE",
"639 123 LINE",
"571 83 OFFCURVE",
"501 63 OFFCURVE",
"426 63 CURVE SMOOTH",
"244 63 OFFCURVE",
"130 179 OFFCURVE",
"130 365 CURVE SMOOTH",
"130 551 OFFCURVE",
"244 667 OFFCURVE",
"426 667 CURVE SMOOTH",
"501 667 OFFCURVE",
"572 647 OFFCURVE",
"639 607 CURVE",
"660 678 LINE",
"591 719 OFFCURVE",
"511 740 OFFCURVE",
"423 740 CURVE SMOOTH",
"191 740 OFFCURVE",
"47 596 OFFCURVE",
"47 365 CURVE SMOOTH",
"47 134 OFFCURVE",
"191 -10 OFFCURVE",
"423 -10 CURVE SMOOTH"
);
},
{
closed = 1;
nodes = (
"298 780 LINE",
"407 962 LINE",
"409 962 LINE",
"518 780 LINE",
"613 780 LINE",
"477 1000 LINE",
"338 1000 LINE",
"203 780 LINE"
);
}
);
vertWidth = 1000;
width = 716;
},
{
layerId = "FC9CFCDA-9E80-4E73-BA51-8504D15957FA";
paths = (
{
closed = 1;
nodes = (
"513 -10 OFFCURVE",
"594 9 OFFCURVE",
"665 49 CURVE",
"633 171 LINE",
"562 132 OFFCURVE",
"495 113 OFFCURVE",
"428 113 CURVE SMOOTH",
"276 113 OFFCURVE",
"184 207 OFFCURVE",
"184 365 CURVE SMOOTH",
"184 523 OFFCURVE",
"276 617 OFFCURVE",
"428 617 CURVE SMOOTH",
"496 617 OFFCURVE",
"564 598 OFFCURVE",
"633 559 CURVE",
"665 681 LINE",
"594 721 OFFCURVE",
"513 740 OFFCURVE",
"422 740 CURVE SMOOTH",
"181 740 OFFCURVE",
"39 601 OFFCURVE",
"39 365 CURVE SMOOTH",
"39 129 OFFCURVE",
"181 -10 OFFCURVE",
"422 -10 CURVE SMOOTH"
);
},
{
closed = 1;
nodes = (
"321 780 LINE",
"401 940 LINE",
"403 940 LINE",
"482 780 LINE",
"639 780 LINE",
"516 1000 LINE",
"287 1000 LINE",
"164 780 LINE"
);
}
);
vertWidth = 1000;
width = 711;
}
);
leftKerningGroup = O;
rightKerningGroup = C;
unicode = 0108;
},
{
glyphname = Cdotaccent;
lastChange = "2021-04-04 09:39:28 +0000";
layers = (
{
components = (
{
name = C;
},
{
name = dotaccentcomb;
transform = "{1, 0, 0, 1, 350, 210}";
}
);
layerId = "D65C9A1E-0FCA-4B2D-8EDF-9F36CA9182A1";
width = 500;
},
{
layerId = "E27A6A66-A1F8-4E1B-8224-7C0FE77551F2";
paths = (
{
closed = 1;
nodes = (
"511 -10 OFFCURVE",
"591 11 OFFCURVE",
"660 52 CURVE",
"639 123 LINE",
"571 83 OFFCURVE",
"501 63 OFFCURVE",
"426 63 CURVE SMOOTH",
"244 63 OFFCURVE",
"130 179 OFFCURVE",
"130 365 CURVE SMOOTH",
"130 551 OFFCURVE",
"244 667 OFFCURVE",
"426 667 CURVE SMOOTH",
"501 667 OFFCURVE",
"572 647 OFFCURVE",
"639 607 CURVE",
"660 678 LINE",
"591 719 OFFCURVE",
"511 740 OFFCURVE",
"423 740 CURVE SMOOTH",
"191 740 OFFCURVE",
"47 596 OFFCURVE",
"47 365 CURVE SMOOTH",
"47 134 OFFCURVE",
"191 -10 OFFCURVE",
"423 -10 CURVE SMOOTH"
);
},
{
closed = 1;
nodes = (
"460 823 LINE",
"460 927 LINE",
"356 927 LINE",
"356 823 LINE"
);
}
);
vertWidth = 1000;
width = 716;
},
{
layerId = "FC9CFCDA-9E80-4E73-BA51-8504D15957FA";
paths = (
{
closed = 1;
nodes = (
"513 -10 OFFCURVE",
"594 9 OFFCURVE",
"665 49 CURVE",
"633 171 LINE",
"562 132 OFFCURVE",
"495 113 OFFCURVE",
"428 113 CURVE SMOOTH",
"276 113 OFFCURVE",
"184 207 OFFCURVE",
"184 365 CURVE SMOOTH",
"184 523 OFFCURVE",
"276 617 OFFCURVE",
"428 617 CURVE SMOOTH",
"496 617 OFFCURVE",
"564 598 OFFCURVE",
"633 559 CURVE",
"665 681 LINE",
"594 721 OFFCURVE",
"513 740 OFFCURVE",
"422 740 CURVE SMOOTH",
"181 740 OFFCURVE",
"39 601 OFFCURVE",
"39 365 CURVE SMOOTH",
"39 129 OFFCURVE",
"181 -10 OFFCURVE",
"422 -10 CURVE SMOOTH"
);
},
{
closed = 1;
nodes = (
"475 801 LINE",
"475 949 LINE",
"328 949 LINE",
"328 801 LINE"
);
}
);
vertWidth = 1000;
width = 711;
}
);
leftKerningGroup = O;
rightKerningGroup = C;
unicode = 010A;
},
{
color = 10;
glyphname = D;
lastChange = "2021-04-04 11:31:13 +0000";
layers = (
{
layerId = "D65C9A1E-0FCA-4B2D-8EDF-9F36CA9182A1";
paths = (
{
closed = 1;
nodes = (
"373 -10 OFFCURVE",
"446 90 OFFCURVE",
"446 335 CURVE SMOOTH",
"446 395 LINE SMOOTH",
"446 640 OFFCURVE",
"373 740 OFFCURVE",
"195 740 CURVE SMOOTH",
"159 740 OFFCURVE",
"121 736 OFFCURVE",
"76 728 CURVE",
"76 2 LINE",
"121 -6 OFFCURVE",
"159 -10 OFFCURVE",
"195 -10 CURVE SMOOTH"
);
},
{
closed = 1;
nodes = (
"96 720 LINE",
"89 710 LINE",
"129 717 OFFCURVE",
"165 720 OFFCURVE",
"195 720 CURVE SMOOTH",
"361 720 OFFCURVE",
"426 629 OFFCURVE",
"426 395 CURVE SMOOTH",
"426 335 LINE SMOOTH",
"426 101 OFFCURVE",
"361 10 OFFCURVE",
"195 10 CURVE SMOOTH",
"165 10 OFFCURVE",
"129 13 OFFCURVE",
"89 20 CURVE",
"96 10 LINE"
);
}
);
width = 500;
},
{
layerId = "E27A6A66-A1F8-4E1B-8224-7C0FE77551F2";
paths = (
{
closed = 1;
nodes = (
"382 -10 OFFCURVE",
"461 90 OFFCURVE",
"461 335 CURVE SMOOTH",
"461 395 LINE SMOOTH",
"461 640 OFFCURVE",
"382 740 OFFCURVE",
"190 740 CURVE SMOOTH",
"151 740 OFFCURVE",
"110 736 OFFCURVE",
"61 728 CURVE",
"61 2 LINE",
"110 -6 OFFCURVE",
"151 -10 OFFCURVE",
"190 -10 CURVE SMOOTH"
);
},
{
closed = 1;
nodes = (
"141 683 LINE",
"126 656 LINE",
"149 664 OFFCURVE",
"174 668 OFFCURVE",
"202 668 CURVE SMOOTH",
"328 668 OFFCURVE",
"380 587 OFFCURVE",
"380 390 CURVE SMOOTH",
"380 340 LINE SMOOTH",
"380 143 OFFCURVE",
"328 62 OFFCURVE",
"202 62 CURVE SMOOTH",
"174 62 OFFCURVE",
"149 66 OFFCURVE",
"126 74 CURVE",
"141 47 LINE"
);
}
);
vertWidth = 1000;
width = 500;
},
{
layerId = "FC9CFCDA-9E80-4E73-BA51-8504D15957FA";
paths = (
{
closed = 1;
nodes = (
"391 -10 OFFCURVE",
"476 90 OFFCURVE",
"476 335 CURVE SMOOTH",
"476 395 LINE SMOOTH",
"476 640 OFFCURVE",
"391 740 OFFCURVE",
"184 740 CURVE SMOOTH",
"143 740 OFFCURVE",
"98 736 OFFCURVE",
"46 728 CURVE",
"46 2 LINE",
"98 -6 OFFCURVE",
"143 -10 OFFCURVE",
"184 -10 CURVE SMOOTH"
);
},
{
closed = 1;
nodes = (
"186 646 LINE",
"163 600 LINE",
"175 610 OFFCURVE",
"190 614 OFFCURVE",
"210 614 CURVE SMOOTH",
"295 614 OFFCURVE",
"334 542 OFFCURVE",
"334 385 CURVE SMOOTH",
"334 345 LINE SMOOTH",
"334 188 OFFCURVE",
"295 116 OFFCURVE",
"210 116 CURVE SMOOTH",
"190 116 OFFCURVE",
"175 120 OFFCURVE",
"163 130 CURVE",
"186 84 LINE"
);
}
);
vertWidth = 1000;
width = 500;
}
);
leftKerningGroup = H;
rightKerningGroup = O;
unicode = 0044;
},
{
glyphname = DZcaron;
lastChange = "2021-04-05 13:43:45 +0000";
layers = (
{
components = (
{
name = D;
},
{
name = Zcaron;
transform = "{1, 0, 0, 1, 500, 0}";
}
);
layerId = "D65C9A1E-0FCA-4B2D-8EDF-9F36CA9182A1";
width = 1000;
},
{
layerId = "E27A6A66-A1F8-4E1B-8224-7C0FE77551F2";
paths = (
{
closed = 1;
nodes = (
"277 0 LINE SMOOTH",
"533 0 OFFCURVE",
"660 121 OFFCURVE",
"660 365 CURVE SMOOTH",
"660 609 OFFCURVE",
"533 730 OFFCURVE",
"277 730 CURVE SMOOTH",
"93 730 LINE",
"93 0 LINE"
);
},
{
closed = 1;
nodes = (
"173 657 LINE",
"281 657 LINE SMOOTH",
"484 657 OFFCURVE",
"579 564 OFFCURVE",
"579 365 CURVE SMOOTH",
"579 166 OFFCURVE",
"484 73 OFFCURVE",
"281 73 CURVE SMOOTH",
"173 73 LINE"
);
},
{
closed = 1;
nodes = (
"1252 0 LINE",
"1252 73 LINE",
"837 73 LINE",
"837 75 LINE",
"1252 657 LINE",
"1252 730 LINE",
"739 730 LINE",
"739 657 LINE",
"1154 657 LINE",
"1154 655 LINE",
"739 73 LINE",
"739 0 LINE"
);
},
{
closed = 1;
nodes = (
"1067 780 LINE",
"1203 1000 LINE",
"1108 1000 LINE",
"999 818 LINE",
"997 818 LINE",
"888 1000 LINE",
"793 1000 LINE",
"928 780 LINE"
);
}
);
vertWidth = 1000;
width = 1327;
},
{
layerId = "FC9CFCDA-9E80-4E73-BA51-8504D15957FA";
paths = (
{
closed = 1;
nodes = (
"293 0 LINE SMOOTH",
"551 0 OFFCURVE",
"670 115 OFFCURVE",
"670 365 CURVE SMOOTH",
"670 615 OFFCURVE",
"551 730 OFFCURVE",
"293 730 CURVE SMOOTH",
"77 730 LINE",
"77 0 LINE"
);
},
{
closed = 1;
nodes = (
"217 610 LINE",
"302 610 LINE SMOOTH",
"463 610 OFFCURVE",
"527 541 OFFCURVE",
"527 365 CURVE SMOOTH",
"527 189 OFFCURVE",
"463 120 OFFCURVE",
"302 120 CURVE SMOOTH",
"217 120 LINE"
);
},
{
closed = 1;
nodes = (
"1260 0 LINE",
"1260 122 LINE",
"902 122 LINE",
"902 124 LINE",
"1260 608 LINE",
"1260 730 LINE",
"733 730 LINE",
"733 608 LINE",
"1092 608 LINE",
"1092 606 LINE",
"733 122 LINE",
"733 0 LINE"
);
},
{
closed = 1;
nodes = (
"1111 780 LINE",
"1235 1000 LINE",
"1078 1000 LINE",
"998 840 LINE",
"996 840 LINE",
"917 1000 LINE",
"760 1000 LINE",
"883 780 LINE"
);
}
);
vertWidth = 1000;
width = 1321;
}
);
leftKerningGroup = H;
rightKerningGroup = Z;
unicode = 01C4;
},
{
glyphname = Eth;
lastChange = "2021-04-04 01:01:52 +0000";
layers = (
{
anchors = (
{
name = bottom;
position = "{387, 0}";
},
{
name = center;
position = "{387, 365}";
},
{
name = top;
position = "{387, 730}";
}
);
components = (
{
name = D;
transform = "{1, 0, 0, 1, 51, 0}";
}
);
layerId = "D65C9A1E-0FCA-4B2D-8EDF-9F36CA9182A1";
paths = (
{
closed = 1;
nodes = (
"446 355 LINE",
"446 375 LINE",
"36 375 LINE",
"36 355 LINE"
);
}
);
width = 756;
},
{
layerId = "E27A6A66-A1F8-4E1B-8224-7C0FE77551F2";
paths = (
{
closed = 1;
nodes = (
"331 0 LINE SMOOTH",
"587 0 OFFCURVE",
"714 121 OFFCURVE",
"714 365 CURVE SMOOTH",
"714 609 OFFCURVE",
"587 730 OFFCURVE",
"331 730 CURVE SMOOTH",
"148 730 LINE",
"148 0 LINE"
);
},
{
closed = 1;
nodes = (
"446 332 LINE",
"446 398 LINE",
"31 398 LINE",
"31 332 LINE"
);
},
{
closed = 1;
nodes = (
"228 657 LINE",
"336 657 LINE SMOOTH",
"539 657 OFFCURVE",
"633 564 OFFCURVE",
"633 365 CURVE SMOOTH",
"633 166 OFFCURVE",
"539 73 OFFCURVE",
"336 73 CURVE SMOOTH",
"228 73 LINE"
);
}
);
vertWidth = 1000;
width = 761;
},
{
layerId = "FC9CFCDA-9E80-4E73-BA51-8504D15957FA";
paths = (
{
closed = 1;
nodes = (
"350 0 LINE SMOOTH",
"608 0 OFFCURVE",
"727 115 OFFCURVE",
"727 365 CURVE SMOOTH",
"727 615 OFFCURVE",
"608 730 OFFCURVE",
"350 730 CURVE SMOOTH",
"134 730 LINE",
"134 0 LINE"
);
},
{
closed = 1;
nodes = (
"446 312 LINE",
"446 418 LINE",
"25 418 LINE",
"25 312 LINE"
);
},
{
closed = 1;
nodes = (
"274 610 LINE",
"359 610 LINE SMOOTH",
"520 610 OFFCURVE",
"584 541 OFFCURVE",
"584 365 CURVE SMOOTH",
"584 189 OFFCURVE",
"520 120 OFFCURVE",
"359 120 CURVE SMOOTH",
"274 120 LINE"
);
}
);
vertWidth = 1000;
width = 766;
}
);
leftKerningGroup = f;
leftMetricsKey = "=f*1.2";
rightKerningGroup = O;
rightMetricsKey = "=O";
unicode = 00D0;
},
{
glyphname = Dcaron;
lastChange = "2021-04-04 10:18:04 +0000";
layers = (
{
components = (
{
name = D;
},
{
name = caroncomb;
transform = "{1, 0, 0, 1, 134, 210}";
}
);
layerId = "D65C9A1E-0FCA-4B2D-8EDF-9F36CA9182A1";
width = 500;
},
{
layerId = "E27A6A66-A1F8-4E1B-8224-7C0FE77551F2";
paths = (
{
closed = 1;
nodes = (
"277 0 LINE SMOOTH",
"533 0 OFFCURVE",
"660 121 OFFCURVE",
"660 365 CURVE SMOOTH",
"660 609 OFFCURVE",
"533 730 OFFCURVE",
"277 730 CURVE SMOOTH",
"93 730 LINE",
"93 0 LINE"
);
},
{
closed = 1;
nodes = (
"173 657 LINE",
"281 657 LINE SMOOTH",
"484 657 OFFCURVE",
"579 564 OFFCURVE",
"579 365 CURVE SMOOTH",
"579 166 OFFCURVE",
"484 73 OFFCURVE",
"281 73 CURVE SMOOTH",
"173 73 LINE"
);
},
{
closed = 1;
nodes = (
"407 780 LINE",
"543 1000 LINE",
"448 1000 LINE",
"339 818 LINE",
"337 818 LINE",
"228 1000 LINE",
"133 1000 LINE",
"268 780 LINE"
);
}
);
vertWidth = 1000;
width = 707;
},
{
layerId = "FC9CFCDA-9E80-4E73-BA51-8504D15957FA";
paths = (
{
closed = 1;
nodes = (
"293 0 LINE SMOOTH",
"551 0 OFFCURVE",
"670 115 OFFCURVE",
"670 365 CURVE SMOOTH",
"670 615 OFFCURVE",
"551 730 OFFCURVE",
"293 730 CURVE SMOOTH",
"77 730 LINE",
"77 0 LINE"
);
},
{
closed = 1;
nodes = (
"217 610 LINE",
"302 610 LINE SMOOTH",
"463 610 OFFCURVE",
"527 541 OFFCURVE",
"527 365 CURVE SMOOTH",
"527 189 OFFCURVE",
"463 120 OFFCURVE",
"302 120 CURVE SMOOTH",
"217 120 LINE"
);
},
{
closed = 1;
nodes = (
"450 780 LINE",
"573 1000 LINE",
"416 1000 LINE",
"337 840 LINE",
"335 840 LINE",
"255 1000 LINE",
"98 1000 LINE",
"221 780 LINE"
);
}
);
vertWidth = 1000;
width = 709;
}
);
leftKerningGroup = H;
rightKerningGroup = O;
unicode = 010E;
},
{
glyphname = Dcroat;
lastChange = "2021-04-04 01:01:52 +0000";
layers = (
{
components = (
{
name = Eth;
}
);
layerId = "D65C9A1E-0FCA-4B2D-8EDF-9F36CA9182A1";
width = 756;
},
{
layerId = "E27A6A66-A1F8-4E1B-8224-7C0FE77551F2";
paths = (
{
closed = 1;
nodes = (
"331 0 LINE SMOOTH",
"587 0 OFFCURVE",
"714 121 OFFCURVE",
"714 365 CURVE SMOOTH",
"714 609 OFFCURVE",
"587 730 OFFCURVE",
"331 730 CURVE SMOOTH",
"148 730 LINE",
"148 0 LINE"
);
},
{
closed = 1;
nodes = (
"446 332 LINE",
"446 398 LINE",
"31 398 LINE",
"31 332 LINE"
);
},
{
closed = 1;
nodes = (
"228 657 LINE",
"336 657 LINE SMOOTH",
"539 657 OFFCURVE",
"633 564 OFFCURVE",
"633 365 CURVE SMOOTH",
"633 166 OFFCURVE",
"539 73 OFFCURVE",
"336 73 CURVE SMOOTH",
"228 73 LINE"
);
}
);
vertWidth = 1000;
width = 761;
},
{
layerId = "FC9CFCDA-9E80-4E73-BA51-8504D15957FA";
paths = (
{
closed = 1;
nodes = (
"350 0 LINE SMOOTH",
"608 0 OFFCURVE",
"727 115 OFFCURVE",
"727 365 CURVE SMOOTH",
"727 615 OFFCURVE",
"608 730 OFFCURVE",
"350 730 CURVE SMOOTH",
"134 730 LINE",
"134 0 LINE"
);
},
{
closed = 1;
nodes = (
"446 312 LINE",
"446 418 LINE",
"25 418 LINE",
"25 312 LINE"
);
},
{
closed = 1;
nodes = (
"274 610 LINE",
"359 610 LINE SMOOTH",
"520 610 OFFCURVE",
"584 541 OFFCURVE",
"584 365 CURVE SMOOTH",
"584 189 OFFCURVE",
"520 120 OFFCURVE",
"359 120 CURVE SMOOTH",
"274 120 LINE"
);
}
);
vertWidth = 1000;
width = 766;
}
);
leftKerningGroup = f;
rightKerningGroup = O;
unicode = 0110;
},
{
glyphname = Dzcaron;
lastChange = "2021-04-08 13:11:52 +0000";
layers = (
{
components = (
{
name = D;
},
{
name = zcaron;
transform = "{1, 0, 0, 1, 500, 0}";
}
);
layerId = "D65C9A1E-0FCA-4B2D-8EDF-9F36CA9182A1";
width = 1000;
},
{
layerId = "E27A6A66-A1F8-4E1B-8224-7C0FE77551F2";
paths = (
{
closed = 1;
nodes = (
"277 0 LINE SMOOTH",
"533 0 OFFCURVE",
"660 121 OFFCURVE",
"660 365 CURVE SMOOTH",
"660 609 OFFCURVE",
"533 730 OFFCURVE",
"277 730 CURVE SMOOTH",
"93 730 LINE",
"93 0 LINE"
);
},
{
closed = 1;
nodes = (
"173 657 LINE",
"281 657 LINE SMOOTH",
"484 657 OFFCURVE",
"579 564 OFFCURVE",
"579 365 CURVE SMOOTH",
"579 166 OFFCURVE",
"484 73 OFFCURVE",
"281 73 CURVE SMOOTH",
"173 73 LINE"
);
},
{
closed = 1;
nodes = (
"1172 0 LINE",
"1172 67 LINE",
"858 67 LINE",
"858 69 LINE",
"1172 453 LINE",
"1172 520 LINE",
"755 520 LINE",
"755 453 LINE",
"1069 453 LINE",
"1069 451 LINE",
"755 67 LINE",
"755 0 LINE"
);
},
{
closed = 1;
nodes = (
"1035 570 LINE",
"1171 790 LINE",
"1076 790 LINE",
"967 608 LINE",
"965 608 LINE",
"857 790 LINE",
"762 790 LINE",
"897 570 LINE"
);
}
);
vertWidth = 1000;
width = 1230;
},
{
layerId = "FC9CFCDA-9E80-4E73-BA51-8504D15957FA";
paths = (
{
closed = 1;
nodes = (
"293 0 LINE SMOOTH",
"551 0 OFFCURVE",
"670 115 OFFCURVE",
"670 365 CURVE SMOOTH",
"670 615 OFFCURVE",
"551 730 OFFCURVE",
"293 730 CURVE SMOOTH",
"77 730 LINE",
"77 0 LINE"
);
},
{
closed = 1;
nodes = (
"217 610 LINE",
"302 610 LINE SMOOTH",
"463 610 OFFCURVE",
"527 541 OFFCURVE",
"527 365 CURVE SMOOTH",
"527 189 OFFCURVE",
"463 120 OFFCURVE",
"302 120 CURVE SMOOTH",
"217 120 LINE"
);
},
{
closed = 1;
nodes = (
"1197 0 LINE",
"1197 107 LINE",
"930 107 LINE",
"930 109 LINE",
"1197 413 LINE",
"1197 520 LINE",
"754 520 LINE",
"754 413 LINE",
"1021 413 LINE",
"1021 411 LINE",
"754 107 LINE",
"754 0 LINE"
);
},
{
closed = 1;
nodes = (
"1090 570 LINE",
"1214 790 LINE",
"1057 790 LINE",
"977 630 LINE",
"975 630 LINE",
"896 790 LINE",
"739 790 LINE",
"862 570 LINE"
);
}
);
vertWidth = 1000;
width = 1252;
}
);
leftKerningGroup = H;
rightKerningGroup = z;
unicode = 01C5;
},
{
color = 10;
glyphname = E;
lastChange = "2021-04-04 13:39:40 +0000";
layers = (
{
layerId = "D65C9A1E-0FCA-4B2D-8EDF-9F36CA9182A1";
paths = (
{
closed = 1;
nodes = (
"424 0 LINE",
"424 20 LINE",
"114 20 LINE",
"114 376 LINE",
"414 376 LINE",
"414 396 LINE",
"114 396 LINE",
"114 710 LINE",
"424 710 LINE",
"424 730 LINE",
"94 730 LINE",
"94 0 LINE"
);
}
);
width = 500;
},
{
layerId = "E27A6A66-A1F8-4E1B-8224-7C0FE77551F2";
paths = (
{
closed = 1;
nodes = (
"431 0 LINE",
"431 70 LINE",
"161 70 LINE",
"161 351 LINE",
"421 351 LINE",
"421 421 LINE",
"161 421 LINE",
"161 660 LINE",
"431 660 LINE",
"431 730 LINE",
"81 730 LINE",
"81 0 LINE"
);
}
);
vertWidth = 1000;
width = 500;
},
{
layerId = "FC9CFCDA-9E80-4E73-BA51-8504D15957FA";
paths = (
{
closed = 1;
nodes = (
"438 0 LINE",
"438 118 LINE",
"208 118 LINE",
"208 328 LINE",
"428 328 LINE",
"428 444 LINE",
"208 444 LINE",
"208 612 LINE",
"438 612 LINE",
"438 730 LINE",
"68 730 LINE",
"68 0 LINE"
);
}
);
vertWidth = 1000;
width = 500;
}
);
leftKerningGroup = H;
rightKerningGroup = E;
unicode = 0045;
},
{
glyphname = Eacute;
lastChange = "2021-04-04 08:12:55 +0000";
layers = (
{
components = (
{
name = E;
},
{
name = acutecomb;
transform = "{1, 0, 0, 1, 199, 210}";
}
);
layerId = "D65C9A1E-0FCA-4B2D-8EDF-9F36CA9182A1";
width = 500;
},
{
layerId = "E27A6A66-A1F8-4E1B-8224-7C0FE77551F2";
paths = (
{
closed = 1;
nodes = (
"557 0 LINE",
"557 72 LINE",
"173 72 LINE",
"173 349 LINE",
"537 349 LINE",
"537 420 LINE",
"173 420 LINE",
"173 658 LINE",
"557 658 LINE",
"557 730 LINE",
"93 730 LINE",
"93 0 LINE"
);
},
{
closed = 1;
nodes = (
"312 780 LINE",
"433 1000 LINE",
"332 1000 LINE",
"231 780 LINE"
);
}
);
vertWidth = 1000;
width = 630;
},
{
layerId = "FC9CFCDA-9E80-4E73-BA51-8504D15957FA";
paths = (
{
closed = 1;
nodes = (
"573 0 LINE",
"573 119 LINE",
"217 119 LINE",
"217 322 LINE",
"553 322 LINE",
"553 437 LINE",
"217 437 LINE",
"217 611 LINE",
"573 611 LINE",
"573 730 LINE",
"77 730 LINE",
"77 0 LINE"
);
},
{
closed = 1;
nodes = (
"346 780 LINE",
"466 1000 LINE",
"296 1000 LINE",
"216 780 LINE"
);
}
);
vertWidth = 1000;
width = 636;
}
);
leftKerningGroup = H;
rightKerningGroup = E;
unicode = 00C9;
},
{
glyphname = Ebreve;
lastChange = "2021-04-04 08:12:55 +0000";
layers = (
{
components = (
{
name = E;
},
{
name = brevecomb;
transform = "{1, 0, 0, 1, 115, 210}";
}
);
layerId = "D65C9A1E-0FCA-4B2D-8EDF-9F36CA9182A1";
width = 500;
},
{
layerId = "E27A6A66-A1F8-4E1B-8224-7C0FE77551F2";
paths = (
{
closed = 1;
nodes = (
"557 0 LINE",
"557 72 LINE",
"173 72 LINE",
"173 349 LINE",
"537 349 LINE",
"537 420 LINE",
"173 420 LINE",
"173 658 LINE",
"557 658 LINE",
"557 730 LINE",
"93 730 LINE",
"93 0 LINE"
);
},
{
closed = 1;
nodes = (
"439 787 OFFCURVE",
"524 860 OFFCURVE",
"535 967 CURVE",
"450 967 LINE",
"438 894 OFFCURVE",
"392 851 OFFCURVE",
"325 851 CURVE SMOOTH",
"257 851 OFFCURVE",
"209 894 OFFCURVE",
"199 967 CURVE",
"115 967 LINE",
"124 860 OFFCURVE",
"209 787 OFFCURVE",
"325 787 CURVE SMOOTH"
);
}
);
vertWidth = 1000;
width = 630;
},
{
layerId = "FC9CFCDA-9E80-4E73-BA51-8504D15957FA";
paths = (
{
closed = 1;
nodes = (
"573 0 LINE",
"573 119 LINE",
"217 119 LINE",
"217 322 LINE",
"553 322 LINE",
"553 437 LINE",
"217 437 LINE",
"217 611 LINE",
"573 611 LINE",
"573 730 LINE",
"77 730 LINE",
"77 0 LINE"
);
},
{
closed = 1;
nodes = (
"454 773 OFFCURVE",
"549 856 OFFCURVE",
"555 973 CURVE",
"420 973 LINE",
"411 909 OFFCURVE",
"378 874 OFFCURVE",
"325 874 CURVE SMOOTH",
"271 874 OFFCURVE",
"237 909 OFFCURVE",
"229 973 CURVE",
"95 973 LINE",
"99 856 OFFCURVE",
"194 773 OFFCURVE",
"325 773 CURVE SMOOTH"
);
}
);
vertWidth = 1000;
width = 636;
}
);
leftKerningGroup = H;
rightKerningGroup = E;
unicode = 0114;
},
{
glyphname = Ecaron;
lastChange = "2021-04-04 08:12:55 +0000";
layers = (
{
components = (
{
name = E;
},
{
name = caroncomb;
transform = "{1, 0, 0, 1, 124, 210}";
}
);
layerId = "D65C9A1E-0FCA-4B2D-8EDF-9F36CA9182A1";
width = 500;
},
{
layerId = "E27A6A66-A1F8-4E1B-8224-7C0FE77551F2";
paths = (
{
closed = 1;
nodes = (
"557 0 LINE",
"557 72 LINE",
"173 72 LINE",
"173 349 LINE",
"537 349 LINE",
"537 420 LINE",
"173 420 LINE",
"173 658 LINE",
"557 658 LINE",
"557 730 LINE",
"93 730 LINE",
"93 0 LINE"
);
},
{
closed = 1;
nodes = (
"397 780 LINE",
"533 1000 LINE",
"438 1000 LINE",
"329 818 LINE",
"327 818 LINE",
"218 1000 LINE",
"123 1000 LINE",
"258 780 LINE"
);
}
);
vertWidth = 1000;
width = 630;
},
{
layerId = "FC9CFCDA-9E80-4E73-BA51-8504D15957FA";
paths = (
{
closed = 1;
nodes = (
"573 0 LINE",
"573 119 LINE",
"217 119 LINE",
"217 322 LINE",
"553 322 LINE",
"553 437 LINE",
"217 437 LINE",
"217 611 LINE",
"573 611 LINE",
"573 730 LINE",
"77 730 LINE",
"77 0 LINE"
);
},
{
closed = 1;
nodes = (
"440 780 LINE",
"563 1000 LINE",
"406 1000 LINE",
"327 840 LINE",
"325 840 LINE",
"245 1000 LINE",
"88 1000 LINE",
"211 780 LINE"
);
}
);
vertWidth = 1000;
width = 636;
}
);
leftKerningGroup = H;
rightKerningGroup = E;
unicode = 011A;
},
{
glyphname = Ecircumflex;
lastChange = "2021-04-04 08:12:55 +0000";
layers = (
{
components = (
{
name = E;
},
{
name = circumflexcomb;
transform = "{1, 0, 0, 1, 120, 210}";
}
);
layerId = "D65C9A1E-0FCA-4B2D-8EDF-9F36CA9182A1";
width = 500;
},
{
layerId = "E27A6A66-A1F8-4E1B-8224-7C0FE77551F2";
paths = (
{
closed = 1;
nodes = (
"557 0 LINE",
"557 72 LINE",
"173 72 LINE",
"173 349 LINE",
"537 349 LINE",
"537 420 LINE",
"173 420 LINE",
"173 658 LINE",
"557 658 LINE",
"557 730 LINE",
"93 730 LINE",
"93 0 LINE"
);
},
{
closed = 1;
nodes = (
"215 780 LINE",
"324 962 LINE",
"326 962 LINE",
"435 780 LINE",
"530 780 LINE",
"394 1000 LINE",
"255 1000 LINE",
"120 780 LINE"
);
}
);
vertWidth = 1000;
width = 630;
},
{
layerId = "FC9CFCDA-9E80-4E73-BA51-8504D15957FA";
paths = (
{
closed = 1;
nodes = (
"573 0 LINE",
"573 119 LINE",
"217 119 LINE",
"217 322 LINE",
"553 322 LINE",
"553 437 LINE",
"217 437 LINE",
"217 611 LINE",
"573 611 LINE",
"573 730 LINE",
"77 730 LINE",
"77 0 LINE"
);
},
{
closed = 1;
nodes = (
"244 780 LINE",
"324 940 LINE",
"326 940 LINE",
"405 780 LINE",
"562 780 LINE",
"439 1000 LINE",
"210 1000 LINE",
"87 780 LINE"
);
}
);
vertWidth = 1000;
width = 636;
}
);
leftKerningGroup = H;
rightKerningGroup = E;
unicode = 00CA;
},
{
glyphname = Ecircumflexacute;
lastChange = "2021-04-04 08:12:55 +0000";
layers = (
{
components = (
{
name = E;
},
{
name = circumflexcomb;
transform = "{1, 0, 0, 1, 120, 210}";
},
{
anchor = top_acR;
name = acutecomb;
transform = "{1, 0, 0, 1, 343, 390}";
}
);
layerId = "D65C9A1E-0FCA-4B2D-8EDF-9F36CA9182A1";
width = 500;
},
{
layerId = "E27A6A66-A1F8-4E1B-8224-7C0FE77551F2";
paths = (
{
closed = 1;
nodes = (
"557 0 LINE",
"557 72 LINE",
"173 72 LINE",
"173 349 LINE",
"537 349 LINE",
"537 420 LINE",
"173 420 LINE",
"173 658 LINE",
"557 658 LINE",
"557 730 LINE",
"93 730 LINE",
"93 0 LINE"
);
},
{
closed = 1;
nodes = (
"215 780 LINE",
"324 962 LINE",
"326 962 LINE",
"435 780 LINE",
"530 780 LINE",
"394 1000 LINE",
"255 1000 LINE",
"120 780 LINE"
);
},
{
closed = 1;
nodes = (
"480 960 LINE",
"601 1180 LINE",
"500 1180 LINE",
"399 960 LINE"
);
}
);
vertWidth = 1000;
width = 630;
},
{
layerId = "FC9CFCDA-9E80-4E73-BA51-8504D15957FA";
paths = (
{
closed = 1;
nodes = (
"573 0 LINE",
"573 119 LINE",
"217 119 LINE",
"217 322 LINE",
"553 322 LINE",
"553 437 LINE",
"217 437 LINE",
"217 611 LINE",
"573 611 LINE",
"573 730 LINE",
"77 730 LINE",
"77 0 LINE"
);
},
{
closed = 1;
nodes = (
"244 780 LINE",
"324 940 LINE",
"326 940 LINE",
"405 780 LINE",
"562 780 LINE",
"439 1000 LINE",
"210 1000 LINE",
"87 780 LINE"
);
},
{
closed = 1;
nodes = (
"544 960 LINE",
"664 1180 LINE",
"494 1180 LINE",
"414 960 LINE"
);
}
);
vertWidth = 1000;
width = 636;
}
);
leftKerningGroup = H;
rightKerningGroup = E;
unicode = 1EBE;
},
{
glyphname = Ecircumflexdotbelow;
lastChange = "2021-04-04 08:12:55 +0000";
layers = (
{
components = (
{
name = E;
},
{
name = dotbelowcomb;
transform = "{1, 0, 0, 1, 262, -44}";
},
{
name = circumflexcomb;
transform = "{1, 0, 0, 1, 120, 210}";
}
);
layerId = "D65C9A1E-0FCA-4B2D-8EDF-9F36CA9182A1";
width = 500;
},
{
layerId = "E27A6A66-A1F8-4E1B-8224-7C0FE77551F2";
paths = (
{
closed = 1;
nodes = (
"557 0 LINE",
"557 72 LINE",
"173 72 LINE",
"173 349 LINE",
"537 349 LINE",
"537 420 LINE",
"173 420 LINE",
"173 658 LINE",
"557 658 LINE",
"557 730 LINE",
"93 730 LINE",
"93 0 LINE"
);
},
{
closed = 1;
nodes = (
"377 -197 LINE",
"377 -93 LINE",
"273 -93 LINE",
"273 -197 LINE"
);
},
{
closed = 1;
nodes = (
"215 780 LINE",
"324 962 LINE",
"326 962 LINE",
"435 780 LINE",
"530 780 LINE",
"394 1000 LINE",
"255 1000 LINE",
"120 780 LINE"
);
}
);
vertWidth = 1000;
width = 630;
},
{
layerId = "FC9CFCDA-9E80-4E73-BA51-8504D15957FA";
paths = (
{
closed = 1;
nodes = (
"573 0 LINE",
"573 119 LINE",
"217 119 LINE",
"217 322 LINE",
"553 322 LINE",
"553 437 LINE",
"217 437 LINE",
"217 611 LINE",
"573 611 LINE",
"573 730 LINE",
"77 730 LINE",
"77 0 LINE"
);
},
{
closed = 1;
nodes = (
"398 -219 LINE",
"398 -71 LINE",
"251 -71 LINE",
"251 -219 LINE"
);
},
{
closed = 1;
nodes = (
"244 780 LINE",
"324 940 LINE",
"326 940 LINE",
"405 780 LINE",
"562 780 LINE",
"439 1000 LINE",
"210 1000 LINE",
"87 780 LINE"
);
}
);
vertWidth = 1000;
width = 636;
}
);
leftKerningGroup = H;
rightKerningGroup = E;
unicode = 1EC6;
},
{
glyphname = Ecircumflexgrave;
lastChange = "2021-04-04 08:12:55 +0000";
layers = (
{
components = (
{
name = E;
},
{
name = circumflexcomb;
transform = "{1, 0, 0, 1, 120, 210}";
},
{
anchor = top_grL;
name = gravecomb;
transform = "{1, 0, 0, 1, 71, 390}";
}
);
layerId = "D65C9A1E-0FCA-4B2D-8EDF-9F36CA9182A1";
width = 500;
},
{
layerId = "E27A6A66-A1F8-4E1B-8224-7C0FE77551F2";
paths = (
{
closed = 1;
nodes = (
"557 0 LINE",
"557 72 LINE",
"173 72 LINE",
"173 349 LINE",
"537 349 LINE",
"537 420 LINE",
"173 420 LINE",
"173 658 LINE",
"557 658 LINE",
"557 730 LINE",
"93 730 LINE",
"93 0 LINE"
);
},
{
closed = 1;
nodes = (
"215 780 LINE",
"324 962 LINE",
"326 962 LINE",
"435 780 LINE",
"530 780 LINE",
"394 1000 LINE",
"255 1000 LINE",
"120 780 LINE"
);
},
{
closed = 1;
nodes = (
"246 960 LINE",
"145 1180 LINE",
"44 1180 LINE",
"165 960 LINE"
);
}
);
vertWidth = 1000;
width = 630;
},
{
layerId = "FC9CFCDA-9E80-4E73-BA51-8504D15957FA";
paths = (
{
closed = 1;
nodes = (
"573 0 LINE",
"573 119 LINE",
"217 119 LINE",
"217 322 LINE",
"553 322 LINE",
"553 437 LINE",
"217 437 LINE",
"217 611 LINE",
"573 611 LINE",
"573 730 LINE",
"77 730 LINE",
"77 0 LINE"
);
},
{
closed = 1;
nodes = (
"234 960 LINE",
"153 1180 LINE",
"-17 1180 LINE",
"104 960 LINE"
);
},
{
closed = 1;
nodes = (
"244 780 LINE",
"324 940 LINE",
"326 940 LINE",
"405 780 LINE",
"562 780 LINE",
"439 1000 LINE",
"210 1000 LINE",
"87 780 LINE"
);
}
);
vertWidth = 1000;
width = 636;
}
);
leftKerningGroup = H;
rightKerningGroup = E;
unicode = 1EC0;
},
{
glyphname = Ecircumflexhookabove;
lastChange = "2021-04-04 08:12:55 +0000";
layers = (
{
components = (
{
name = E;
},
{
name = circumflexcomb;
transform = "{1, 0, 0, 1, 120, 210}";
},
{
anchor = top_hkR;
name = hookabovecomb;
transform = "{1, 0, 0, 1, 147, 390}";
}
);
layerId = "D65C9A1E-0FCA-4B2D-8EDF-9F36CA9182A1";
width = 500;
},
{
layerId = "E27A6A66-A1F8-4E1B-8224-7C0FE77551F2";
paths = (
{
closed = 1;
nodes = (
"557 0 LINE",
"557 72 LINE",
"173 72 LINE",
"173 349 LINE",
"537 349 LINE",
"537 420 LINE",
"173 420 LINE",
"173 658 LINE",
"557 658 LINE",
"557 730 LINE",
"93 730 LINE",
"93 0 LINE"
);
},
{
closed = 1;
nodes = (
"215 780 LINE",
"324 962 LINE",
"326 962 LINE",
"435 780 LINE",
"530 780 LINE",
"394 1000 LINE",
"255 1000 LINE",
"120 780 LINE"
);
},
{
closed = 1;
nodes = (
"505 983 LINE",
"518 1012 OFFCURVE",
"527 1054 OFFCURVE",
"527 1083 CURVE SMOOTH",
"527 1144 OFFCURVE",
"486 1163 OFFCURVE",
"358 1163 CURVE SMOOTH",
"300 1163 OFFCURVE",
"245 1157 OFFCURVE",
"190 1146 CURVE",
"198 1081 LINE",
"249 1094 OFFCURVE",
"294 1099 OFFCURVE",
"342 1099 CURVE SMOOTH",
"421 1099 OFFCURVE",
"442 1090 OFFCURVE",
"442 1057 CURVE SMOOTH",
"442 1038 OFFCURVE",
"435 1008 OFFCURVE",
"425 983 CURVE"
);
}
);
vertWidth = 1000;
width = 630;
},
{
layerId = "FC9CFCDA-9E80-4E73-BA51-8504D15957FA";
paths = (
{
closed = 1;
nodes = (
"573 0 LINE",
"573 119 LINE",
"217 119 LINE",
"217 322 LINE",
"553 322 LINE",
"553 437 LINE",
"217 437 LINE",
"217 611 LINE",
"573 611 LINE",
"573 730 LINE",
"77 730 LINE",
"77 0 LINE"
);
},
{
closed = 1;
nodes = (
"244 780 LINE",
"324 940 LINE",
"326 940 LINE",
"405 780 LINE",
"562 780 LINE",
"439 1000 LINE",
"210 1000 LINE",
"87 780 LINE"
);
},
{
closed = 1;
nodes = (
"540 992 LINE",
"554 1024 OFFCURVE",
"563 1072 OFFCURVE",
"563 1105 CURVE SMOOTH",
"563 1172 OFFCURVE",
"522 1192 OFFCURVE",
"382 1192 CURVE SMOOTH",
"322 1192 OFFCURVE",
"255 1185 OFFCURVE",
"200 1174 CURVE",
"212 1071 LINE",
"262 1085 OFFCURVE",
"312 1092 OFFCURVE",
"357 1092 CURVE SMOOTH",
"413 1092 OFFCURVE",
"427 1085 OFFCURVE",
"427 1057 CURVE SMOOTH",
"427 1040 OFFCURVE",
"422 1015 OFFCURVE",
"414 992 CURVE"
);
}
);
vertWidth = 1000;
width = 636;
}
);
leftKerningGroup = H;
rightKerningGroup = E;
unicode = 1EC2;
},
{
glyphname = Ecircumflextilde;
lastChange = "2021-04-04 08:12:55 +0000";
layers = (
{
components = (
{
name = E;
},
{
name = circumflexcomb;
transform = "{1, 0, 0, 1, 120, 210}";
},
{
anchor = top_td;
name = tildecomb;
transform = "{1, 0, 0, 1, 102, 409}";
}
);
layerId = "D65C9A1E-0FCA-4B2D-8EDF-9F36CA9182A1";
width = 500;
},
{
layerId = "E27A6A66-A1F8-4E1B-8224-7C0FE77551F2";
paths = (
{
closed = 1;
nodes = (
"557 0 LINE",
"557 72 LINE",
"173 72 LINE",
"173 349 LINE",
"537 349 LINE",
"537 420 LINE",
"173 420 LINE",
"173 658 LINE",
"557 658 LINE",
"557 730 LINE",
"93 730 LINE",
"93 0 LINE"
);
},
{
closed = 1;
nodes = (
"215 780 LINE",
"324 962 LINE",
"326 962 LINE",
"435 780 LINE",
"530 780 LINE",
"394 1000 LINE",
"255 1000 LINE",
"120 780 LINE"
);
},
{
closed = 1;
nodes = (
"504 1014 OFFCURVE",
"535 1070 OFFCURVE",
"535 1179 CURVE",
"462 1179 LINE",
"462 1116 OFFCURVE",
"450 1086 OFFCURVE",
"427 1086 CURVE SMOOTH",
"409 1086 OFFCURVE",
"374 1103 OFFCURVE",
"331 1134 CURVE SMOOTH",
"276 1173 OFFCURVE",
"238 1190 OFFCURVE",
"206 1190 CURVE SMOOTH",
"146 1190 OFFCURVE",
"115 1134 OFFCURVE",
"115 1025 CURVE",
"188 1025 LINE",
"188 1088 OFFCURVE",
"200 1118 OFFCURVE",
"223 1118 CURVE SMOOTH",
"241 1118 OFFCURVE",
"276 1101 OFFCURVE",
"319 1070 CURVE SMOOTH",
"374 1031 OFFCURVE",
"412 1014 OFFCURVE",
"444 1014 CURVE SMOOTH"
);
}
);
vertWidth = 1000;
width = 630;
},
{
layerId = "FC9CFCDA-9E80-4E73-BA51-8504D15957FA";
paths = (
{
closed = 1;
nodes = (
"573 0 LINE",
"573 119 LINE",
"217 119 LINE",
"217 322 LINE",
"553 322 LINE",
"553 437 LINE",
"217 437 LINE",
"217 611 LINE",
"573 611 LINE",
"573 730 LINE",
"77 730 LINE",
"77 0 LINE"
);
},
{
closed = 1;
nodes = (
"244 780 LINE",
"324 940 LINE",
"326 940 LINE",
"405 780 LINE",
"562 780 LINE",
"439 1000 LINE",
"210 1000 LINE",
"87 780 LINE"
);
},
{
closed = 1;
nodes = (
"518 1024 OFFCURVE",
"555 1089 OFFCURVE",
"555 1218 CURVE",
"439 1218 LINE",
"439 1163 OFFCURVE",
"432 1141 OFFCURVE",
"413 1141 CURVE SMOOTH",
"398 1141 OFFCURVE",
"371 1154 OFFCURVE",
"337 1176 CURVE SMOOTH",
"282 1210 OFFCURVE",
"241 1226 OFFCURVE",
"205 1226 CURVE SMOOTH",
"132 1226 OFFCURVE",
"95 1161 OFFCURVE",
"95 1033 CURVE",
"211 1033 LINE",
"211 1088 OFFCURVE",
"218 1109 OFFCURVE",
"237 1109 CURVE SMOOTH",
"252 1109 OFFCURVE",
"279 1096 OFFCURVE",
"313 1075 CURVE SMOOTH",
"368 1040 OFFCURVE",
"409 1024 OFFCURVE",
"445 1024 CURVE SMOOTH"
);
}
);
vertWidth = 1000;
width = 636;
}
);
leftKerningGroup = H;
rightKerningGroup = E;
unicode = 1EC4;
},
{
glyphname = Edblgrave;
lastChange = "2021-04-04 08:12:55 +0000";
layers = (
{
components = (
{
name = E;
},
{
name = dblgravecomb;
transform = "{1, 0, 0, 1, 114, 210}";
}
);
layerId = "D65C9A1E-0FCA-4B2D-8EDF-9F36CA9182A1";
width = 500;
},
{
layerId = "E27A6A66-A1F8-4E1B-8224-7C0FE77551F2";
paths = (
{
closed = 1;
nodes = (
"557 0 LINE",
"557 72 LINE",
"173 72 LINE",
"173 349 LINE",
"537 349 LINE",
"537 420 LINE",
"173 420 LINE",
"173 658 LINE",
"557 658 LINE",
"557 730 LINE",
"93 730 LINE",
"93 0 LINE"
);
},
{
closed = 1;
nodes = (
"308 780 LINE",
"211 1000 LINE",
"113 1000 LINE",
"230 780 LINE"
);
},
{
closed = 1;
nodes = (
"522 780 LINE",
"424 1000 LINE",
"326 1000 LINE",
"443 780 LINE"
);
}
);
vertWidth = 1000;
width = 630;
},
{
layerId = "FC9CFCDA-9E80-4E73-BA51-8504D15957FA";
paths = (
{
closed = 1;
nodes = (
"573 0 LINE",
"573 119 LINE",
"217 119 LINE",
"217 322 LINE",
"553 322 LINE",
"553 437 LINE",
"217 437 LINE",
"217 611 LINE",
"573 611 LINE",
"573 730 LINE",
"77 730 LINE",
"77 0 LINE"
);
},
{
closed = 1;
nodes = (
"314 780 LINE",
"239 1000 LINE",
"80 1000 LINE",
"193 780 LINE"
);
},
{
closed = 1;
nodes = (
"541 780 LINE",
"465 1000 LINE",
"307 1000 LINE",
"419 780 LINE"
);
}
);
vertWidth = 1000;
width = 636;
}
);
leftKerningGroup = H;
rightKerningGroup = E;
unicode = 0204;
},
{
glyphname = Edieresis;
lastChange = "2021-04-04 08:12:55 +0000";
layers = (
{
components = (
{
name = E;
},
{
name = dieresiscomb;
transform = "{1, 0, 0, 1, 142, 210}";
}
);
layerId = "D65C9A1E-0FCA-4B2D-8EDF-9F36CA9182A1";
width = 500;
},
{
layerId = "E27A6A66-A1F8-4E1B-8224-7C0FE77551F2";
paths = (
{
closed = 1;
nodes = (
"557 0 LINE",
"557 72 LINE",
"173 72 LINE",
"173 349 LINE",
"537 349 LINE",
"537 420 LINE",
"173 420 LINE",
"173 658 LINE",
"557 658 LINE",
"557 730 LINE",
"93 730 LINE",
"93 0 LINE"
);
},
{
closed = 1;
nodes = (
"252 823 LINE",
"252 927 LINE",
"148 927 LINE",
"148 823 LINE"
);
},
{
closed = 1;
nodes = (
"501 823 LINE",
"501 927 LINE",
"397 927 LINE",
"397 823 LINE"
);
}
);
vertWidth = 1000;
width = 630;
},
{
layerId = "FC9CFCDA-9E80-4E73-BA51-8504D15957FA";
paths = (
{
closed = 1;
nodes = (
"573 0 LINE",
"573 119 LINE",
"217 119 LINE",
"217 322 LINE",
"553 322 LINE",
"553 437 LINE",
"217 437 LINE",
"217 611 LINE",
"573 611 LINE",
"573 730 LINE",
"77 730 LINE",
"77 0 LINE"
);
},
{
closed = 1;
nodes = (
"268 801 LINE",
"268 949 LINE",
"121 949 LINE",
"121 801 LINE"
);
},
{
closed = 1;
nodes = (
"528 801 LINE",
"528 949 LINE",
"380 949 LINE",
"380 801 LINE"
);
}
);
vertWidth = 1000;
width = 636;
}
);
leftKerningGroup = H;
rightKerningGroup = E;
unicode = 00CB;
},
{
glyphname = Edotaccent;
lastChange = "2021-04-04 08:12:55 +0000";
layers = (
{
components = (
{
name = E;
},
{
name = dotaccentcomb;
transform = "{1, 0, 0, 1, 262, 210}";
}
);
layerId = "D65C9A1E-0FCA-4B2D-8EDF-9F36CA9182A1";
width = 500;
},
{
layerId = "E27A6A66-A1F8-4E1B-8224-7C0FE77551F2";
paths = (
{
closed = 1;
nodes = (
"557 0 LINE",
"557 72 LINE",
"173 72 LINE",
"173 349 LINE",
"537 349 LINE",
"537 420 LINE",
"173 420 LINE",
"173 658 LINE",
"557 658 LINE",
"557 730 LINE",
"93 730 LINE",
"93 0 LINE"
);
},
{
closed = 1;
nodes = (
"377 823 LINE",
"377 927 LINE",
"273 927 LINE",
"273 823 LINE"
);
}
);
vertWidth = 1000;
width = 630;
},
{
layerId = "FC9CFCDA-9E80-4E73-BA51-8504D15957FA";
paths = (
{
closed = 1;
nodes = (
"573 0 LINE",
"573 119 LINE",
"217 119 LINE",
"217 322 LINE",
"553 322 LINE",
"553 437 LINE",
"217 437 LINE",
"217 611 LINE",
"573 611 LINE",
"573 730 LINE",
"77 730 LINE",
"77 0 LINE"
);
},
{
closed = 1;
nodes = (
"398 801 LINE",
"398 949 LINE",
"251 949 LINE",
"251 801 LINE"
);
}
);
vertWidth = 1000;
width = 636;
}
);
leftKerningGroup = H;
rightKerningGroup = E;
unicode = 0116;
},
{
glyphname = Edotbelow;
lastChange = "2021-04-04 08:12:55 +0000";
layers = (
{
components = (
{
name = E;
},
{
name = dotbelowcomb;
transform = "{1, 0, 0, 1, 262, -44}";
}
);
layerId = "D65C9A1E-0FCA-4B2D-8EDF-9F36CA9182A1";
width = 500;
},
{
layerId = "E27A6A66-A1F8-4E1B-8224-7C0FE77551F2";
paths = (
{
closed = 1;
nodes = (
"557 0 LINE",
"557 72 LINE",
"173 72 LINE",
"173 349 LINE",
"537 349 LINE",
"537 420 LINE",
"173 420 LINE",
"173 658 LINE",
"557 658 LINE",
"557 730 LINE",
"93 730 LINE",
"93 0 LINE"
);
},
{
closed = 1;
nodes = (
"377 -197 LINE",
"377 -93 LINE",
"273 -93 LINE",
"273 -197 LINE"
);
}
);
vertWidth = 1000;
width = 630;
},
{
layerId = "FC9CFCDA-9E80-4E73-BA51-8504D15957FA";
paths = (
{
closed = 1;
nodes = (
"573 0 LINE",
"573 119 LINE",
"217 119 LINE",
"217 322 LINE",
"553 322 LINE",
"553 437 LINE",
"217 437 LINE",
"217 611 LINE",
"573 611 LINE",
"573 730 LINE",
"77 730 LINE",
"77 0 LINE"
);
},
{
closed = 1;
nodes = (
"398 -219 LINE",
"398 -71 LINE",
"251 -71 LINE",
"251 -219 LINE"
);
}
);
vertWidth = 1000;
width = 636;
}
);
leftKerningGroup = H;
rightKerningGroup = E;
unicode = 1EB8;
},
{
glyphname = Egrave;
lastChange = "2021-04-04 08:12:55 +0000";
layers = (
{
components = (
{
name = E;
},
{
name = gravecomb;
transform = "{1, 0, 0, 1, 215, 210}";
}
);
layerId = "D65C9A1E-0FCA-4B2D-8EDF-9F36CA9182A1";
width = 500;
},
{
layerId = "E27A6A66-A1F8-4E1B-8224-7C0FE77551F2";
paths = (
{
closed = 1;
nodes = (
"557 0 LINE",
"557 72 LINE",
"173 72 LINE",
"173 349 LINE",
"537 349 LINE",
"537 420 LINE",
"173 420 LINE",
"173 658 LINE",
"557 658 LINE",
"557 730 LINE",
"93 730 LINE",
"93 0 LINE"
);
},
{
closed = 1;
nodes = (
"414 780 LINE",
"313 1000 LINE",
"212 1000 LINE",
"333 780 LINE"
);
}
);
vertWidth = 1000;
width = 630;
},
{
layerId = "FC9CFCDA-9E80-4E73-BA51-8504D15957FA";
paths = (
{
closed = 1;
nodes = (
"573 0 LINE",
"573 119 LINE",
"217 119 LINE",
"217 322 LINE",
"553 322 LINE",
"553 437 LINE",
"217 437 LINE",
"217 611 LINE",
"573 611 LINE",
"573 730 LINE",
"77 730 LINE",
"77 0 LINE"
);
},
{
closed = 1;
nodes = (
"431 780 LINE",
"350 1000 LINE",
"180 1000 LINE",
"301 780 LINE"
);
}
);
vertWidth = 1000;
width = 636;
}
);
leftKerningGroup = H;
rightKerningGroup = E;
unicode = 00C8;
},
{
glyphname = Ehookabove;
lastChange = "2021-04-04 08:12:55 +0000";
layers = (
{
components = (
{
name = E;
},
{
name = hookabovecomb;
transform = "{1, 0, 0, 1, 137, 210}";
}
);
layerId = "D65C9A1E-0FCA-4B2D-8EDF-9F36CA9182A1";
width = 500;
},
{
layerId = "E27A6A66-A1F8-4E1B-8224-7C0FE77551F2";
paths = (
{
closed = 1;
nodes = (
"557 0 LINE",
"557 72 LINE",
"173 72 LINE",
"173 349 LINE",
"537 349 LINE",
"537 420 LINE",
"173 420 LINE",
"173 658 LINE",
"557 658 LINE",
"557 730 LINE",
"93 730 LINE",
"93 0 LINE"
);
},
{
closed = 1;
nodes = (
"472 790 LINE",
"485 819 OFFCURVE",
"494 861 OFFCURVE",
"494 890 CURVE SMOOTH",
"494 951 OFFCURVE",
"453 970 OFFCURVE",
"325 970 CURVE SMOOTH",
"267 970 OFFCURVE",
"212 964 OFFCURVE",
"157 953 CURVE",
"165 888 LINE",
"216 901 OFFCURVE",
"261 906 OFFCURVE",
"309 906 CURVE SMOOTH",
"388 906 OFFCURVE",
"409 897 OFFCURVE",
"409 864 CURVE SMOOTH",
"409 845 OFFCURVE",
"402 815 OFFCURVE",
"392 790 CURVE"
);
}
);
vertWidth = 1000;
width = 630;
},
{
layerId = "FC9CFCDA-9E80-4E73-BA51-8504D15957FA";
paths = (
{
closed = 1;
nodes = (
"573 0 LINE",
"573 119 LINE",
"217 119 LINE",
"217 322 LINE",
"553 322 LINE",
"553 437 LINE",
"217 437 LINE",
"217 611 LINE",
"573 611 LINE",
"573 730 LINE",
"77 730 LINE",
"77 0 LINE"
);
},
{
closed = 1;
nodes = (
"483 785 LINE",
"497 817 OFFCURVE",
"506 865 OFFCURVE",
"506 898 CURVE SMOOTH",
"506 965 OFFCURVE",
"465 985 OFFCURVE",
"325 985 CURVE SMOOTH",
"265 985 OFFCURVE",
"198 978 OFFCURVE",
"143 967 CURVE",
"155 864 LINE",
"205 878 OFFCURVE",
"255 885 OFFCURVE",
"300 885 CURVE SMOOTH",
"356 885 OFFCURVE",
"370 878 OFFCURVE",
"370 850 CURVE SMOOTH",
"370 833 OFFCURVE",
"365 808 OFFCURVE",
"357 785 CURVE"
);
}
);
vertWidth = 1000;
width = 636;
}
);
leftKerningGroup = H;
rightKerningGroup = E;
unicode = 1EBA;
},
{
glyphname = Einvertedbreve;
lastChange = "2021-04-04 08:12:55 +0000";
layers = (
{
components = (
{
name = E;
},
{
name = breveinvertedcomb;
transform = "{1, 0, 0, 1, 118, 210}";
}
);
layerId = "D65C9A1E-0FCA-4B2D-8EDF-9F36CA9182A1";
width = 500;
},
{
layerId = "E27A6A66-A1F8-4E1B-8224-7C0FE77551F2";
paths = (
{
closed = 1;
nodes = (
"557 0 LINE",
"557 72 LINE",
"173 72 LINE",
"173 349 LINE",
"537 349 LINE",
"537 420 LINE",
"173 420 LINE",
"173 658 LINE",
"557 658 LINE",
"557 730 LINE",
"93 730 LINE",
"93 0 LINE"
);
},
{
closed = 1;
nodes = (
"201 813 LINE",
"211 886 OFFCURVE",
"259 929 OFFCURVE",
"327 929 CURVE SMOOTH",
"394 929 OFFCURVE",
"440 886 OFFCURVE",
"452 813 CURVE",
"537 813 LINE",
"526 920 OFFCURVE",
"441 993 OFFCURVE",
"327 993 CURVE SMOOTH",
"211 993 OFFCURVE",
"126 920 OFFCURVE",
"117 813 CURVE"
);
}
);
vertWidth = 1000;
width = 630;
},
{
layerId = "FC9CFCDA-9E80-4E73-BA51-8504D15957FA";
paths = (
{
closed = 1;
nodes = (
"573 0 LINE",
"573 119 LINE",
"217 119 LINE",
"217 322 LINE",
"553 322 LINE",
"553 437 LINE",
"217 437 LINE",
"217 611 LINE",
"573 611 LINE",
"573 730 LINE",
"77 730 LINE",
"77 0 LINE"
);
},
{
closed = 1;
nodes = (
"229 807 LINE",
"237 871 OFFCURVE",
"271 906 OFFCURVE",
"325 906 CURVE SMOOTH",
"378 906 OFFCURVE",
"411 871 OFFCURVE",
"420 807 CURVE",
"555 807 LINE",
"549 924 OFFCURVE",
"454 1007 OFFCURVE",
"325 1007 CURVE SMOOTH",
"194 1007 OFFCURVE",
"99 924 OFFCURVE",
"95 807 CURVE"
);
}
);
vertWidth = 1000;
width = 636;
}
);
leftKerningGroup = H;
rightKerningGroup = E;
unicode = 0206;
},
{
glyphname = Emacron;
lastChange = "2021-04-04 08:12:55 +0000";
layers = (
{
components = (
{
name = E;
},
{
name = macroncomb;
transform = "{1, 0, 0, 1, 125, 210}";
}
);
layerId = "D65C9A1E-0FCA-4B2D-8EDF-9F36CA9182A1";
width = 500;
},
{
layerId = "E27A6A66-A1F8-4E1B-8224-7C0FE77551F2";
paths = (
{
closed = 1;
nodes = (
"557 0 LINE",
"557 72 LINE",
"173 72 LINE",
"173 349 LINE",
"537 349 LINE",
"537 420 LINE",
"173 420 LINE",
"173 658 LINE",
"557 658 LINE",
"557 730 LINE",
"93 730 LINE",
"93 0 LINE"
);
},
{
closed = 1;
nodes = (
"506 843 LINE",
"506 907 LINE",
"143 907 LINE",
"143 843 LINE"
);
}
);
vertWidth = 1000;
width = 630;
},
{
layerId = "FC9CFCDA-9E80-4E73-BA51-8504D15957FA";
paths = (
{
closed = 1;
nodes = (
"573 0 LINE",
"573 119 LINE",
"217 119 LINE",
"217 322 LINE",
"553 322 LINE",
"553 437 LINE",
"217 437 LINE",
"217 611 LINE",
"573 611 LINE",
"573 730 LINE",
"77 730 LINE",
"77 0 LINE"
);
},
{
closed = 1;
nodes = (
"521 823 LINE",
"521 927 LINE",
"129 927 LINE",
"129 823 LINE"
);
}
);
vertWidth = 1000;
width = 636;
}
);
leftKerningGroup = H;
rightKerningGroup = E;
unicode = 0112;
},
{
glyphname = Eogonek;
lastChange = "2021-04-04 08:12:55 +0000";
layers = (
{
components = (
{
name = E;
},
{
name = ogonekcomb;
transform = "{1, 0, 0, 1, 365, 0}";
}
);
layerId = "D65C9A1E-0FCA-4B2D-8EDF-9F36CA9182A1";
width = 500;
},
{
layerId = "E27A6A66-A1F8-4E1B-8224-7C0FE77551F2";
paths = (
{
closed = 1;
nodes = (
"557 0 LINE",
"557 72 LINE",
"173 72 LINE",
"173 349 LINE",
"537 349 LINE",
"537 420 LINE",
"173 420 LINE",
"173 658 LINE",
"557 658 LINE",
"557 730 LINE",
"93 730 LINE",
"93 0 LINE"
);
},
{
closed = 1;
nodes = (
"576 -218 OFFCURVE",
"613 -211 OFFCURVE",
"645 -197 CURVE",
"631 -134 LINE",
"604 -147 OFFCURVE",
"573 -153 OFFCURVE",
"541 -153 CURVE SMOOTH",
"495 -153 OFFCURVE",
"460 -141 OFFCURVE",
"460 -107 CURVE SMOOTH",
"460 -74 OFFCURVE",
"495 -36 OFFCURVE",
"557 0 CURVE",
"486 21 LINE",
"421 -21 OFFCURVE",
"385 -69 OFFCURVE",
"385 -120 CURVE SMOOTH",
"385 -175 OFFCURVE",
"430 -218 OFFCURVE",
"535 -218 CURVE SMOOTH"
);
}
);
vertWidth = 1000;
width = 630;
},
{
layerId = "FC9CFCDA-9E80-4E73-BA51-8504D15957FA";
paths = (
{
closed = 1;
nodes = (
"573 0 LINE",
"573 119 LINE",
"217 119 LINE",
"217 322 LINE",
"553 322 LINE",
"553 437 LINE",
"217 437 LINE",
"217 611 LINE",
"573 611 LINE",
"573 730 LINE",
"77 730 LINE",
"77 0 LINE"
);
},
{
closed = 1;
nodes = (
"589 -218 OFFCURVE",
"628 -211 OFFCURVE",
"663 -197 CURVE",
"647 -96 LINE",
"618 -108 OFFCURVE",
"585 -115 OFFCURVE",
"555 -115 CURVE SMOOTH",
"515 -115 OFFCURVE",
"493 -103 OFFCURVE",
"493 -81 CURVE SMOOTH",
"493 -56 OFFCURVE",
"521 -28 OFFCURVE",
"573 0 CURVE",
"449 33 LINE",
"393 -12 OFFCURVE",
"366 -54 OFFCURVE",
"366 -102 CURVE SMOOTH",
"366 -176 OFFCURVE",
"431 -218 OFFCURVE",
"545 -218 CURVE SMOOTH"
);
}
);
vertWidth = 1000;
width = 636;
}
);
leftKerningGroup = H;
rightKerningGroup = E;
unicode = 0118;
},
{
glyphname = Etilde;
lastChange = "2021-04-04 08:12:55 +0000";
layers = (
{
components = (
{
name = E;
},
{
name = tildecomb;
transform = "{1, 0, 0, 1, 102, 210}";
}
);
layerId = "D65C9A1E-0FCA-4B2D-8EDF-9F36CA9182A1";
width = 500;
},
{
layerId = "E27A6A66-A1F8-4E1B-8224-7C0FE77551F2";
paths = (
{
closed = 1;
nodes = (
"557 0 LINE",
"557 72 LINE",
"173 72 LINE",
"173 349 LINE",
"537 349 LINE",
"537 420 LINE",
"173 420 LINE",
"173 658 LINE",
"557 658 LINE",
"557 730 LINE",
"93 730 LINE",
"93 0 LINE"
);
},
{
closed = 1;
nodes = (
"504 794 OFFCURVE",
"535 850 OFFCURVE",
"535 959 CURVE",
"462 959 LINE",
"462 896 OFFCURVE",
"450 866 OFFCURVE",
"427 866 CURVE SMOOTH",
"409 866 OFFCURVE",
"374 883 OFFCURVE",
"331 914 CURVE SMOOTH",
"276 953 OFFCURVE",
"238 970 OFFCURVE",
"206 970 CURVE SMOOTH",
"146 970 OFFCURVE",
"115 914 OFFCURVE",
"115 805 CURVE",
"188 805 LINE",
"188 868 OFFCURVE",
"200 898 OFFCURVE",
"223 898 CURVE SMOOTH",
"241 898 OFFCURVE",
"276 881 OFFCURVE",
"319 850 CURVE SMOOTH",
"374 811 OFFCURVE",
"412 794 OFFCURVE",
"444 794 CURVE SMOOTH"
);
}
);
vertWidth = 1000;
width = 630;
},
{
layerId = "FC9CFCDA-9E80-4E73-BA51-8504D15957FA";
paths = (
{
closed = 1;
nodes = (
"573 0 LINE",
"573 119 LINE",
"217 119 LINE",
"217 322 LINE",
"553 322 LINE",
"553 437 LINE",
"217 437 LINE",
"217 611 LINE",
"573 611 LINE",
"573 730 LINE",
"77 730 LINE",
"77 0 LINE"
);
},
{
closed = 1;
nodes = (
"518 784 OFFCURVE",
"555 849 OFFCURVE",
"555 978 CURVE",
"439 978 LINE",
"439 923 OFFCURVE",
"432 901 OFFCURVE",
"413 901 CURVE SMOOTH",
"398 901 OFFCURVE",
"371 914 OFFCURVE",
"337 936 CURVE SMOOTH",
"282 970 OFFCURVE",
"241 986 OFFCURVE",
"205 986 CURVE SMOOTH",
"132 986 OFFCURVE",
"95 921 OFFCURVE",
"95 793 CURVE",
"211 793 LINE",
"211 848 OFFCURVE",
"218 869 OFFCURVE",
"237 869 CURVE SMOOTH",
"252 869 OFFCURVE",
"279 856 OFFCURVE",
"313 835 CURVE SMOOTH",
"368 800 OFFCURVE",
"409 784 OFFCURVE",
"445 784 CURVE SMOOTH"
);
}
);
vertWidth = 1000;
width = 636;
}
);
leftKerningGroup = H;
rightKerningGroup = E;
unicode = 1EBC;
},
{
color = 10;
glyphname = F;
lastChange = "2021-04-04 13:42:24 +0000";
layers = (
{
layerId = "D65C9A1E-0FCA-4B2D-8EDF-9F36CA9182A1";
paths = (
{
closed = 1;
nodes = (
"124 0 LINE",
"124 366 LINE",
"434 366 LINE",
"434 386 LINE",
"124 386 LINE",
"124 710 LINE",
"444 710 LINE",
"444 730 LINE",
"104 730 LINE",
"104 0 LINE"
);
}
);
width = 500;
},
{
layerId = "E27A6A66-A1F8-4E1B-8224-7C0FE77551F2";
paths = (
{
closed = 1;
nodes = (
"169 0 LINE",
"169 341 LINE",
"437 341 LINE",
"437 411 LINE",
"169 411 LINE",
"169 660 LINE",
"447 660 LINE",
"447 730 LINE",
"87 730 LINE",
"87 0 LINE"
);
}
);
vertWidth = 1000;
width = 500;
},
{
layerId = "FC9CFCDA-9E80-4E73-BA51-8504D15957FA";
paths = (
{
closed = 1;
nodes = (
"214 0 LINE",
"214 316 LINE",
"440 316 LINE",
"440 436 LINE",
"214 436 LINE",
"214 610 LINE",
"450 610 LINE",
"450 730 LINE",
"70 730 LINE",
"70 0 LINE"
);
}
);
vertWidth = 1000;
width = 500;
}
);
leftKerningGroup = H;
rightKerningGroup = F;
unicode = 0046;
},
{
color = 10;
glyphname = G;
lastChange = "2021-04-10 05:34:54 +0000";
layers = (
{
layerId = "E27A6A66-A1F8-4E1B-8224-7C0FE77551F2";
paths = (
{
closed = 1;
nodes = (
"346 -10 OFFCURVE",
"404 -3 OFFCURVE",
"447 10 CURVE",
"447 420 LINE",
"217 420 LINE",
"217 352 LINE",
"367 352 LINE",
"367 44 LINE",
"398 82 LINE",
"364 68 OFFCURVE",
"328 62 OFFCURVE",
"297 62 CURVE SMOOTH",
"178 62 OFFCURVE",
"119 154 OFFCURVE",
"119 340 CURVE SMOOTH",
"119 390 LINE SMOOTH",
"119 584 OFFCURVE",
"178 668 OFFCURVE",
"314 668 CURVE SMOOTH",
"350 668 OFFCURVE",
"390 662 OFFCURVE",
"428 653 CURVE",
"428 727 LINE",
"391 735 OFFCURVE",
"348 740 OFFCURVE",
"309 740 CURVE SMOOTH",
"126 740 OFFCURVE",
"37 627 OFFCURVE",
"37 395 CURVE SMOOTH",
"37 335 LINE SMOOTH",
"37 103 OFFCURVE",
"124 -10 OFFCURVE",
"302 -10 CURVE SMOOTH"
);
}
);
vertWidth = 1000;
width = 500;
},
{
layerId = "FC9CFCDA-9E80-4E73-BA51-8504D15957FA";
paths = (
{
closed = 1;
nodes = (
"351 -10 OFFCURVE",
"415 -2 OFFCURVE",
"460 10 CURVE",
"460 444 LINE",
"220 444 LINE",
"220 328 LINE",
"320 328 LINE",
"320 69 LINE",
"369 146 LINE",
"341 124 OFFCURVE",
"319 116 OFFCURVE",
"292 116 CURVE SMOOTH",
"208 116 OFFCURVE",
"164 195 OFFCURVE",
"164 345 CURVE SMOOTH",
"164 385 LINE SMOOTH",
"164 550 OFFCURVE",
"208 614 OFFCURVE",
"322 614 CURVE SMOOTH",
"360 614 OFFCURVE",
"398 607 OFFCURVE",
"440 596 CURVE",
"440 726 LINE",
"400 734 OFFCURVE",
"356 740 OFFCURVE",
"311 740 CURVE SMOOTH",
"115 740 OFFCURVE",
"20 627 OFFCURVE",
"20 395 CURVE SMOOTH",
"20 335 LINE SMOOTH",
"20 103 OFFCURVE",
"112 -10 OFFCURVE",
"301 -10 CURVE SMOOTH"
);
}
);
vertWidth = 1000;
width = 500;
},
{
layerId = "D65C9A1E-0FCA-4B2D-8EDF-9F36CA9182A1";
paths = (
{
closed = 1;
nodes = (
"344 -10 OFFCURVE",
"392 -3 OFFCURVE",
"433 10 CURVE",
"433 396 LINE",
"213 396 LINE",
"213 376 LINE",
"413 376 LINE",
"413 19 LINE",
"427 29 LINE",
"389 17 OFFCURVE",
"343 10 OFFCURVE",
"302 10 CURVE SMOOTH",
"147 10 OFFCURVE",
"73 114 OFFCURVE",
"73 335 CURVE SMOOTH",
"73 395 LINE SMOOTH",
"73 616 OFFCURVE",
"148 720 OFFCURVE",
"306 720 CURVE SMOOTH",
"341 720 OFFCURVE",
"381 715 OFFCURVE",
"416 707 CURVE",
"416 727 LINE",
"381 735 OFFCURVE",
"342 740 OFFCURVE",
"306 740 CURVE SMOOTH",
"136 740 OFFCURVE",
"53 627 OFFCURVE",
"53 395 CURVE SMOOTH",
"53 335 LINE SMOOTH",
"53 103 OFFCURVE",
"135 -10 OFFCURVE",
"302 -10 CURVE SMOOTH"
);
}
);
width = 500;
}
);
leftKerningGroup = O;
rightKerningGroup = G;
unicode = 0047;
},
{
glyphname = Gbreve;
lastChange = "2021-04-05 01:37:26 +0000";
layers = (
{
components = (
{
name = G;
},
{
name = brevecomb;
transform = "{1, 0, 0, 1, 223, 210}";
}
);
layerId = "D65C9A1E-0FCA-4B2D-8EDF-9F36CA9182A1";
width = 500;
},
{
layerId = "E27A6A66-A1F8-4E1B-8224-7C0FE77551F2";
paths = (
{
closed = 1;
nodes = (
"557 -10 OFFCURVE",
"665 11 OFFCURVE",
"740 46 CURVE",
"740 417 LINE",
"357 417 LINE",
"357 348 LINE",
"660 348 LINE",
"660 74 LINE",
"676 105 LINE",
"617 79 OFFCURVE",
"536 63 OFFCURVE",
"458 63 CURVE SMOOTH",
"250 63 OFFCURVE",
"129 174 OFFCURVE",
"129 365 CURVE SMOOTH",
"129 553 OFFCURVE",
"252 667 OFFCURVE",
"454 667 CURVE SMOOTH",
"537 667 OFFCURVE",
"621 647 OFFCURVE",
"685 612 CURVE",
"706 681 LINE",
"638 719 OFFCURVE",
"549 740 OFFCURVE",
"454 740 CURVE SMOOTH",
"205 740 OFFCURVE",
"47 598 OFFCURVE",
"47 365 CURVE SMOOTH",
"47 131 OFFCURVE",
"201 -10 OFFCURVE",
"458 -10 CURVE SMOOTH"
);
},
{
closed = 1;
nodes = (
"543 787 OFFCURVE",
"628 860 OFFCURVE",
"639 967 CURVE",
"554 967 LINE",
"542 894 OFFCURVE",
"496 851 OFFCURVE",
"429 851 CURVE SMOOTH",
"361 851 OFFCURVE",
"313 894 OFFCURVE",
"303 967 CURVE",
"219 967 LINE",
"228 860 OFFCURVE",
"313 787 OFFCURVE",
"429 787 CURVE SMOOTH"
);
}
);
vertWidth = 1000;
width = 820;
},
{
layerId = "FC9CFCDA-9E80-4E73-BA51-8504D15957FA";
paths = (
{
closed = 1;
nodes = (
"561 -10 OFFCURVE",
"669 11 OFFCURVE",
"745 48 CURVE",
"745 435 LINE",
"359 435 LINE",
"359 317 LINE",
"605 317 LINE",
"605 102 LINE",
"624 144 LINE",
"576 122 OFFCURVE",
"519 112 OFFCURVE",
"458 112 CURVE SMOOTH",
"281 112 OFFCURVE",
"182 202 OFFCURVE",
"182 365 CURVE SMOOTH",
"182 526 OFFCURVE",
"280 618 OFFCURVE",
"450 618 CURVE SMOOTH",
"529 618 OFFCURVE",
"611 599 OFFCURVE",
"673 566 CURVE",
"704 683 LINE",
"637 720 OFFCURVE",
"547 740 OFFCURVE",
"450 740 CURVE SMOOTH",
"194 740 OFFCURVE",
"39 599 OFFCURVE",
"39 365 CURVE SMOOTH",
"39 130 OFFCURVE",
"195 -10 OFFCURVE",
"458 -10 CURVE SMOOTH"
);
},
{
closed = 1;
nodes = (
"553 773 OFFCURVE",
"648 856 OFFCURVE",
"654 973 CURVE",
"519 973 LINE",
"510 909 OFFCURVE",
"477 874 OFFCURVE",
"424 874 CURVE SMOOTH",
"370 874 OFFCURVE",
"336 909 OFFCURVE",
"328 973 CURVE",
"194 973 LINE",
"198 856 OFFCURVE",
"293 773 OFFCURVE",
"424 773 CURVE SMOOTH"
);
}
);
vertWidth = 1000;
width = 810;
}
);
leftKerningGroup = O;
rightKerningGroup = G;
unicode = 011E;
},
{
glyphname = Gcaron;
lastChange = "2021-04-05 01:37:26 +0000";
layers = (
{
components = (
{
name = G;
},
{
name = caroncomb;
transform = "{1, 0, 0, 1, 232, 210}";
}
);
layerId = "D65C9A1E-0FCA-4B2D-8EDF-9F36CA9182A1";
width = 500;
},
{
layerId = "E27A6A66-A1F8-4E1B-8224-7C0FE77551F2";
paths = (
{
closed = 1;
nodes = (
"557 -10 OFFCURVE",
"665 11 OFFCURVE",
"740 46 CURVE",
"740 417 LINE",
"357 417 LINE",
"357 348 LINE",
"660 348 LINE",
"660 74 LINE",
"676 105 LINE",
"617 79 OFFCURVE",
"536 63 OFFCURVE",
"458 63 CURVE SMOOTH",
"250 63 OFFCURVE",
"129 174 OFFCURVE",
"129 365 CURVE SMOOTH",
"129 553 OFFCURVE",
"252 667 OFFCURVE",
"454 667 CURVE SMOOTH",
"537 667 OFFCURVE",
"621 647 OFFCURVE",
"685 612 CURVE",
"706 681 LINE",
"638 719 OFFCURVE",
"549 740 OFFCURVE",
"454 740 CURVE SMOOTH",
"205 740 OFFCURVE",
"47 598 OFFCURVE",
"47 365 CURVE SMOOTH",
"47 131 OFFCURVE",
"201 -10 OFFCURVE",
"458 -10 CURVE SMOOTH"
);
},
{
closed = 1;
nodes = (
"500 780 LINE",
"636 1000 LINE",
"541 1000 LINE",
"432 818 LINE",
"430 818 LINE",
"321 1000 LINE",
"226 1000 LINE",
"361 780 LINE"
);
}
);
vertWidth = 1000;
width = 820;
},
{
layerId = "FC9CFCDA-9E80-4E73-BA51-8504D15957FA";
paths = (
{
closed = 1;
nodes = (
"561 -10 OFFCURVE",
"669 11 OFFCURVE",
"745 48 CURVE",
"745 435 LINE",
"359 435 LINE",
"359 317 LINE",
"605 317 LINE",
"605 102 LINE",
"624 144 LINE",
"576 122 OFFCURVE",
"519 112 OFFCURVE",
"458 112 CURVE SMOOTH",
"281 112 OFFCURVE",
"182 202 OFFCURVE",
"182 365 CURVE SMOOTH",
"182 526 OFFCURVE",
"280 618 OFFCURVE",
"450 618 CURVE SMOOTH",
"529 618 OFFCURVE",
"611 599 OFFCURVE",
"673 566 CURVE",
"704 683 LINE",
"637 720 OFFCURVE",
"547 740 OFFCURVE",
"450 740 CURVE SMOOTH",
"194 740 OFFCURVE",
"39 599 OFFCURVE",
"39 365 CURVE SMOOTH",
"39 130 OFFCURVE",
"195 -10 OFFCURVE",
"458 -10 CURVE SMOOTH"
);
},
{
closed = 1;
nodes = (
"539 780 LINE",
"662 1000 LINE",
"505 1000 LINE",
"426 840 LINE",
"424 840 LINE",
"344 1000 LINE",
"187 1000 LINE",
"310 780 LINE"
);
}
);
vertWidth = 1000;
width = 810;
}
);
leftKerningGroup = O;
rightKerningGroup = G;
unicode = 01E6;
},
{
glyphname = Gcircumflex;
lastChange = "2021-04-05 01:37:26 +0000";
layers = (
{
components = (
{
name = G;
},
{
name = circumflexcomb;
transform = "{1, 0, 0, 1, 228, 210}";
}
);
layerId = "D65C9A1E-0FCA-4B2D-8EDF-9F36CA9182A1";
width = 500;
},
{
layerId = "E27A6A66-A1F8-4E1B-8224-7C0FE77551F2";
paths = (
{
closed = 1;
nodes = (
"557 -10 OFFCURVE",
"665 11 OFFCURVE",
"740 46 CURVE",
"740 417 LINE",
"357 417 LINE",
"357 348 LINE",
"660 348 LINE",
"660 74 LINE",
"676 105 LINE",
"617 79 OFFCURVE",
"536 63 OFFCURVE",
"458 63 CURVE SMOOTH",
"250 63 OFFCURVE",
"129 174 OFFCURVE",
"129 365 CURVE SMOOTH",
"129 553 OFFCURVE",
"252 667 OFFCURVE",
"454 667 CURVE SMOOTH",
"537 667 OFFCURVE",
"621 647 OFFCURVE",
"685 612 CURVE",
"706 681 LINE",
"638 719 OFFCURVE",
"549 740 OFFCURVE",
"454 740 CURVE SMOOTH",
"205 740 OFFCURVE",
"47 598 OFFCURVE",
"47 365 CURVE SMOOTH",
"47 131 OFFCURVE",
"201 -10 OFFCURVE",
"458 -10 CURVE SMOOTH"
);
},
{
closed = 1;
nodes = (
"318 780 LINE",
"427 962 LINE",
"429 962 LINE",
"538 780 LINE",
"633 780 LINE",
"497 1000 LINE",
"358 1000 LINE",
"223 780 LINE"
);
}
);
vertWidth = 1000;
width = 820;
},
{
layerId = "FC9CFCDA-9E80-4E73-BA51-8504D15957FA";
paths = (
{
closed = 1;
nodes = (
"561 -10 OFFCURVE",
"669 11 OFFCURVE",
"745 48 CURVE",
"745 435 LINE",
"359 435 LINE",
"359 317 LINE",
"605 317 LINE",
"605 102 LINE",
"624 144 LINE",
"576 122 OFFCURVE",
"519 112 OFFCURVE",
"458 112 CURVE SMOOTH",
"281 112 OFFCURVE",
"182 202 OFFCURVE",
"182 365 CURVE SMOOTH",
"182 526 OFFCURVE",
"280 618 OFFCURVE",
"450 618 CURVE SMOOTH",
"529 618 OFFCURVE",
"611 599 OFFCURVE",
"673 566 CURVE",
"704 683 LINE",
"637 720 OFFCURVE",
"547 740 OFFCURVE",
"450 740 CURVE SMOOTH",
"194 740 OFFCURVE",
"39 599 OFFCURVE",
"39 365 CURVE SMOOTH",
"39 130 OFFCURVE",
"195 -10 OFFCURVE",
"458 -10 CURVE SMOOTH"
);
},
{
closed = 1;
nodes = (
"343 780 LINE",
"423 940 LINE",
"425 940 LINE",
"504 780 LINE",
"661 780 LINE",
"538 1000 LINE",
"309 1000 LINE",
"186 780 LINE"
);
}
);
vertWidth = 1000;
width = 810;
}
);
leftKerningGroup = O;
rightKerningGroup = G;
unicode = 011C;
},
{
glyphname = Gcommaaccent;
lastChange = "2021-04-05 01:37:26 +0000";
layers = (
{
components = (
{
name = G;
},
{
name = commaaccentcomb;
transform = "{1, 0, 0, 1, 302, 0}";
}
);
layerId = "D65C9A1E-0FCA-4B2D-8EDF-9F36CA9182A1";
width = 500;
},
{
layerId = "E27A6A66-A1F8-4E1B-8224-7C0FE77551F2";
paths = (
{
closed = 1;
nodes = (
"557 -10 OFFCURVE",
"665 11 OFFCURVE",
"740 46 CURVE",
"740 417 LINE",
"357 417 LINE",
"357 348 LINE",
"660 348 LINE",
"660 74 LINE",
"676 105 LINE",
"617 79 OFFCURVE",
"536 63 OFFCURVE",
"458 63 CURVE SMOOTH",
"250 63 OFFCURVE",
"129 174 OFFCURVE",
"129 365 CURVE SMOOTH",
"129 553 OFFCURVE",
"252 667 OFFCURVE",
"454 667 CURVE SMOOTH",
"537 667 OFFCURVE",
"621 647 OFFCURVE",
"685 612 CURVE",
"706 681 LINE",
"638 719 OFFCURVE",
"549 740 OFFCURVE",
"454 740 CURVE SMOOTH",
"205 740 OFFCURVE",
"47 598 OFFCURVE",
"47 365 CURVE SMOOTH",
"47 131 OFFCURVE",
"201 -10 OFFCURVE",
"458 -10 CURVE SMOOTH"
);
},
{
closed = 1;
nodes = (
"407 -270 LINE",
"528 -50 LINE",
"427 -50 LINE",
"326 -270 LINE"
);
}
);
vertWidth = 1000;
width = 820;
},
{
layerId = "FC9CFCDA-9E80-4E73-BA51-8504D15957FA";
paths = (
{
closed = 1;
nodes = (
"561 -10 OFFCURVE",
"669 11 OFFCURVE",
"745 48 CURVE",
"745 435 LINE",
"359 435 LINE",
"359 317 LINE",
"605 317 LINE",
"605 102 LINE",
"624 144 LINE",
"576 122 OFFCURVE",
"519 112 OFFCURVE",
"458 112 CURVE SMOOTH",
"281 112 OFFCURVE",
"182 202 OFFCURVE",
"182 365 CURVE SMOOTH",
"182 526 OFFCURVE",
"280 618 OFFCURVE",
"450 618 CURVE SMOOTH",
"529 618 OFFCURVE",
"611 599 OFFCURVE",
"673 566 CURVE",
"704 683 LINE",
"637 720 OFFCURVE",
"547 740 OFFCURVE",
"450 740 CURVE SMOOTH",
"194 740 OFFCURVE",
"39 599 OFFCURVE",
"39 365 CURVE SMOOTH",
"39 130 OFFCURVE",
"195 -10 OFFCURVE",
"458 -10 CURVE SMOOTH"
);
},
{
closed = 1;
nodes = (
"429 -270 LINE",
"549 -50 LINE",
"379 -50 LINE",
"299 -270 LINE"
);
}
);
vertWidth = 1000;
width = 810;
}
);
leftKerningGroup = O;
rightKerningGroup = G;
unicode = 0122;
},
{
glyphname = Gdotaccent;
lastChange = "2021-04-05 01:37:26 +0000";
layers = (
{
components = (
{
name = G;
},
{
name = dotaccentcomb;
transform = "{1, 0, 0, 1, 370, 210}";
}
);
layerId = "D65C9A1E-0FCA-4B2D-8EDF-9F36CA9182A1";
width = 500;
},
{
layerId = "E27A6A66-A1F8-4E1B-8224-7C0FE77551F2";
paths = (
{
closed = 1;
nodes = (
"557 -10 OFFCURVE",
"665 11 OFFCURVE",
"740 46 CURVE",
"740 417 LINE",
"357 417 LINE",
"357 348 LINE",
"660 348 LINE",
"660 74 LINE",
"676 105 LINE",
"617 79 OFFCURVE",
"536 63 OFFCURVE",
"458 63 CURVE SMOOTH",
"250 63 OFFCURVE",
"129 174 OFFCURVE",
"129 365 CURVE SMOOTH",
"129 553 OFFCURVE",
"252 667 OFFCURVE",
"454 667 CURVE SMOOTH",
"537 667 OFFCURVE",
"621 647 OFFCURVE",
"685 612 CURVE",
"706 681 LINE",
"638 719 OFFCURVE",
"549 740 OFFCURVE",
"454 740 CURVE SMOOTH",
"205 740 OFFCURVE",
"47 598 OFFCURVE",
"47 365 CURVE SMOOTH",
"47 131 OFFCURVE",
"201 -10 OFFCURVE",
"458 -10 CURVE SMOOTH"
);
},
{
closed = 1;
nodes = (
"480 823 LINE",
"480 927 LINE",
"376 927 LINE",
"376 823 LINE"
);
}
);
vertWidth = 1000;
width = 820;
},
{
layerId = "FC9CFCDA-9E80-4E73-BA51-8504D15957FA";
paths = (
{
closed = 1;
nodes = (
"561 -10 OFFCURVE",
"669 11 OFFCURVE",
"745 48 CURVE",
"745 435 LINE",
"359 435 LINE",
"359 317 LINE",
"605 317 LINE",
"605 102 LINE",
"624 144 LINE",
"576 122 OFFCURVE",
"519 112 OFFCURVE",
"458 112 CURVE SMOOTH",
"281 112 OFFCURVE",
"182 202 OFFCURVE",
"182 365 CURVE SMOOTH",
"182 526 OFFCURVE",
"280 618 OFFCURVE",
"450 618 CURVE SMOOTH",
"529 618 OFFCURVE",
"611 599 OFFCURVE",
"673 566 CURVE",
"704 683 LINE",
"637 720 OFFCURVE",
"547 740 OFFCURVE",
"450 740 CURVE SMOOTH",
"194 740 OFFCURVE",
"39 599 OFFCURVE",
"39 365 CURVE SMOOTH",
"39 130 OFFCURVE",
"195 -10 OFFCURVE",
"458 -10 CURVE SMOOTH"
);
},
{
closed = 1;
nodes = (
"497 801 LINE",
"497 949 LINE",
"350 949 LINE",
"350 801 LINE"
);
}
);
vertWidth = 1000;
width = 810;
}
);
leftKerningGroup = O;
rightKerningGroup = G;
unicode = 0120;
},
{
color = 10;
glyphname = H;
lastChange = "2021-04-10 08:58:31 +0000";
layers = (
{
layerId = "D65C9A1E-0FCA-4B2D-8EDF-9F36CA9182A1";
paths = (
{
closed = 1;
nodes = (
"90 0 LINE",
"90 376 LINE",
"410 376 LINE",
"410 0 LINE",
"430 0 LINE",
"430 730 LINE",
"410 730 LINE",
"410 396 LINE",
"90 396 LINE",
"90 730 LINE",
"70 730 LINE",
"70 0 LINE"
);
}
);
width = 500;
},
{
layerId = "E27A6A66-A1F8-4E1B-8224-7C0FE77551F2";
paths = (
{
closed = 1;
nodes = (
"135 0 LINE",
"135 350 LINE",
"365 350 LINE",
"365 0 LINE",
"445 0 LINE",
"445 730 LINE",
"365 730 LINE",
"365 422 LINE",
"135 422 LINE",
"135 730 LINE",
"55 730 LINE",
"55 0 LINE"
);
}
);
vertWidth = 1000;
width = 500;
},
{
layerId = "FC9CFCDA-9E80-4E73-BA51-8504D15957FA";
paths = (
{
closed = 1;
nodes = (
"180 0 LINE",
"180 324 LINE",
"320 324 LINE",
"320 0 LINE",
"460 0 LINE",
"460 730 LINE",
"320 730 LINE",
"320 448 LINE",
"180 448 LINE",
"180 730 LINE",
"40 730 LINE",
"40 0 LINE"
);
}
);
vertWidth = 1000;
width = 500;
}
);
leftKerningGroup = H;
rightKerningGroup = H;
rightMetricsKey = "=|";
unicode = 0048;
},
{
glyphname = Hbar;
lastChange = "2021-04-04 01:01:52 +0000";
layers = (
{
components = (
{
name = H;
transform = "{1, 0, 0, 1, 35, 0}";
}
);
layerId = "D65C9A1E-0FCA-4B2D-8EDF-9F36CA9182A1";
paths = (
{
closed = 1;
nodes = (
"775 586 LINE",
"775 606 LINE",
"35 606 LINE",
"35 586 LINE"
);
}
);
width = 810;
},
{
layerId = "E27A6A66-A1F8-4E1B-8224-7C0FE77551F2";
paths = (
{
closed = 1;
nodes = (
"676 0 LINE",
"676 730 LINE",
"596 730 LINE",
"596 0 LINE"
);
},
{
closed = 1;
nodes = (
"213 0 LINE",
"213 730 LINE",
"133 730 LINE",
"133 0 LINE"
);
},
{
closed = 1;
nodes = (
"636 348 LINE",
"636 421 LINE",
"173 421 LINE",
"173 348 LINE"
);
},
{
closed = 1;
nodes = (
"794 563 LINE",
"794 629 LINE",
"32 629 LINE",
"32 563 LINE"
);
}
);
vertWidth = 1000;
width = 826;
},
{
layerId = "FC9CFCDA-9E80-4E73-BA51-8504D15957FA";
paths = (
{
closed = 1;
nodes = (
"698 0 LINE",
"698 730 LINE",
"558 730 LINE",
"558 0 LINE"
);
},
{
closed = 1;
nodes = (
"261 0 LINE",
"261 730 LINE",
"121 730 LINE",
"121 0 LINE"
);
},
{
closed = 1;
nodes = (
"628 318 LINE",
"628 441 LINE",
"191 441 LINE",
"191 318 LINE"
);
},
{
closed = 1;
nodes = (
"814 543 LINE",
"814 649 LINE",
"28 649 LINE",
"28 543 LINE"
);
}
);
vertWidth = 1000;
width = 842;
}
);
leftKerningGroup = W;
leftMetricsKey = "=W";
rightKerningGroup = W;
rightMetricsKey = "=|";
unicode = 0126;
},
{
glyphname = Hcircumflex;
lastChange = "2021-04-04 02:12:22 +0000";
layers = (
{
components = (
{
name = H;
},
{
name = circumflexcomb;
transform = "{1, 0, 0, 1, 160, 210}";
}
);
layerId = "D65C9A1E-0FCA-4B2D-8EDF-9F36CA9182A1";
width = 500;
},
{
layerId = "E27A6A66-A1F8-4E1B-8224-7C0FE77551F2";
paths = (
{
closed = 1;
nodes = (
"255 780 LINE",
"364 962 LINE",
"366 962 LINE",
"475 780 LINE",
"570 780 LINE",
"434 1000 LINE",
"295 1000 LINE",
"160 780 LINE"
);
},
{
closed = 1;
nodes = (
"173 0 LINE",
"173 730 LINE",
"93 730 LINE",
"93 0 LINE"
);
},
{
closed = 1;
nodes = (
"597 348 LINE",
"597 421 LINE",
"133 421 LINE",
"133 348 LINE"
);
},
{
closed = 1;
nodes = (
"637 0 LINE",
"637 730 LINE",
"557 730 LINE",
"557 0 LINE"
);
}
);
vertWidth = 1000;
width = 730;
},
{
layerId = "FC9CFCDA-9E80-4E73-BA51-8504D15957FA";
paths = (
{
closed = 1;
nodes = (
"284 780 LINE",
"364 940 LINE",
"366 940 LINE",
"445 780 LINE",
"602 780 LINE",
"479 1000 LINE",
"250 1000 LINE",
"127 780 LINE"
);
},
{
closed = 1;
nodes = (
"217 0 LINE",
"217 730 LINE",
"77 730 LINE",
"77 0 LINE"
);
},
{
closed = 1;
nodes = (
"583 318 LINE",
"583 441 LINE",
"147 441 LINE",
"147 318 LINE"
);
},
{
closed = 1;
nodes = (
"653 0 LINE",
"653 730 LINE",
"513 730 LINE",
"513 0 LINE"
);
}
);
vertWidth = 1000;
width = 730;
}
);
leftKerningGroup = H;
rightKerningGroup = H;
unicode = 0124;
},
{
color = 10;
glyphname = I;
lastChange = "2021-04-10 02:32:05 +0000";
layers = (
{
layerId = "D65C9A1E-0FCA-4B2D-8EDF-9F36CA9182A1";
paths = (
{
closed = 1;
nodes = (
"420 0 LINE",
"420 20 LINE",
"260 20 LINE",
"260 710 LINE",
"420 710 LINE",
"420 730 LINE",
"80 730 LINE",
"80 710 LINE",
"240 710 LINE",
"240 20 LINE",
"80 20 LINE",
"80 0 LINE"
);
}
);
width = 500;
},
{
layerId = "E27A6A66-A1F8-4E1B-8224-7C0FE77551F2";
paths = (
{
closed = 1;
nodes = (
"425 0 LINE",
"425 70 LINE",
"291 70 LINE",
"291 660 LINE",
"425 660 LINE",
"425 730 LINE",
"75 730 LINE",
"75 660 LINE",
"209 660 LINE",
"209 70 LINE",
"75 70 LINE",
"75 0 LINE"
);
}
);
vertWidth = 1000;
width = 500;
},
{
layerId = "FC9CFCDA-9E80-4E73-BA51-8504D15957FA";
paths = (
{
closed = 1;
nodes = (
"430 0 LINE",
"430 120 LINE",
"322 120 LINE",
"322 610 LINE",
"430 610 LINE",
"430 730 LINE",
"70 730 LINE",
"70 610 LINE",
"178 610 LINE",
"178 120 LINE",
"70 120 LINE",
"70 0 LINE"
);
}
);
vertWidth = 1000;
width = 500;
}
);
leftKerningGroup = I;
rightKerningGroup = I;
rightMetricsKey = "=|";
unicode = 0049;
},
{
glyphname = Iacute;
lastChange = "2021-04-04 02:12:22 +0000";
layers = (
{
components = (
{
name = I;
},
{
name = acutecomb;
transform = "{1, 0, 0, 1, 5, 210}";
}
);
layerId = "D65C9A1E-0FCA-4B2D-8EDF-9F36CA9182A1";
width = 500;
},
{
layerId = "E27A6A66-A1F8-4E1B-8224-7C0FE77551F2";
paths = (
{
closed = 1;
nodes = (
"186 0 LINE",
"186 730 LINE",
"103 730 LINE",
"103 0 LINE"
);
},
{
closed = 1;
nodes = (
"132 780 LINE",
"253 1000 LINE",
"152 1000 LINE",
"51 780 LINE"
);
}
);
vertWidth = 1000;
width = 289;
},
{
layerId = "FC9CFCDA-9E80-4E73-BA51-8504D15957FA";
paths = (
{
closed = 1;
nodes = (
"231 0 LINE",
"231 730 LINE",
"85 730 LINE",
"85 0 LINE"
);
},
{
closed = 1;
nodes = (
"179 780 LINE",
"299 1000 LINE",
"129 1000 LINE",
"49 780 LINE"
);
}
);
vertWidth = 1000;
width = 315;
}
);
leftKerningGroup = I;
rightKerningGroup = I;
unicode = 00CD;
},
{
glyphname = Ibreve;
lastChange = "2021-04-04 02:12:22 +0000";
layers = (
{
components = (
{
name = I;
},
{
name = brevecomb;
transform = "{1, 0, 0, 1, -79, 210}";
}
);
layerId = "D65C9A1E-0FCA-4B2D-8EDF-9F36CA9182A1";
width = 500;
},
{
layerId = "E27A6A66-A1F8-4E1B-8224-7C0FE77551F2";
paths = (
{
closed = 1;
nodes = (
"259 787 OFFCURVE",
"344 860 OFFCURVE",
"355 967 CURVE",
"270 967 LINE",
"258 894 OFFCURVE",
"212 851 OFFCURVE",
"145 851 CURVE SMOOTH",
"77 851 OFFCURVE",
"29 894 OFFCURVE",
"19 967 CURVE",
"-65 967 LINE",
"-56 860 OFFCURVE",
"29 787 OFFCURVE",
"145 787 CURVE SMOOTH"
);
},
{
closed = 1;
nodes = (
"186 0 LINE",
"186 730 LINE",
"103 730 LINE",
"103 0 LINE"
);
}
);
vertWidth = 1000;
width = 289;
},
{
layerId = "FC9CFCDA-9E80-4E73-BA51-8504D15957FA";
paths = (
{
closed = 1;
nodes = (
"231 0 LINE",
"231 730 LINE",
"85 730 LINE",
"85 0 LINE"
);
},
{
closed = 1;
nodes = (
"287 773 OFFCURVE",
"382 856 OFFCURVE",
"388 973 CURVE",
"253 973 LINE",
"244 909 OFFCURVE",
"211 874 OFFCURVE",
"158 874 CURVE SMOOTH",
"104 874 OFFCURVE",
"70 909 OFFCURVE",
"62 973 CURVE",
"-72 973 LINE",
"-68 856 OFFCURVE",
"27 773 OFFCURVE",
"158 773 CURVE SMOOTH"
);
}
);
vertWidth = 1000;
width = 315;
}
);
leftKerningGroup = I;
rightKerningGroup = I;
unicode = 012C;
},
{
glyphname = Icircumflex;
lastChange = "2021-04-04 02:12:22 +0000";
layers = (
{
components = (
{
name = I;
},
{
name = circumflexcomb;
transform = "{1, 0, 0, 1, -74, 210}";
}
);
layerId = "D65C9A1E-0FCA-4B2D-8EDF-9F36CA9182A1";
width = 500;
},
{
layerId = "E27A6A66-A1F8-4E1B-8224-7C0FE77551F2";
paths = (
{
closed = 1;
nodes = (
"34 780 LINE",
"143 962 LINE",
"145 962 LINE",
"254 780 LINE",
"349 780 LINE",
"213 1000 LINE",
"74 1000 LINE",
"-61 780 LINE"
);
},
{
closed = 1;
nodes = (
"186 0 LINE",
"186 730 LINE",
"103 730 LINE",
"103 0 LINE"
);
}
);
vertWidth = 1000;
width = 289;
},
{
layerId = "FC9CFCDA-9E80-4E73-BA51-8504D15957FA";
paths = (
{
closed = 1;
nodes = (
"231 0 LINE",
"231 730 LINE",
"85 730 LINE",
"85 0 LINE"
);
},
{
closed = 1;
nodes = (
"77 780 LINE",
"157 940 LINE",
"159 940 LINE",
"238 780 LINE",
"395 780 LINE",
"272 1000 LINE",
"43 1000 LINE",
"-80 780 LINE"
);
}
);
vertWidth = 1000;
width = 315;
}
);
leftKerningGroup = I;
rightKerningGroup = I;
unicode = 00CE;
},
{
glyphname = Idblgrave;
lastChange = "2021-04-04 02:12:22 +0000";
layers = (
{
components = (
{
name = I;
},
{
name = dblgravecomb;
transform = "{1, 0, 0, 1, -80, 210}";
}
);
layerId = "D65C9A1E-0FCA-4B2D-8EDF-9F36CA9182A1";
width = 500;
},
{
layerId = "E27A6A66-A1F8-4E1B-8224-7C0FE77551F2";
paths = (
{
closed = 1;
nodes = (
"186 0 LINE",
"186 730 LINE",
"103 730 LINE",
"103 0 LINE"
);
},
{
closed = 1;
nodes = (
"127 780 LINE",
"30 1000 LINE",
"-68 1000 LINE",
"49 780 LINE"
);
},
{
closed = 1;
nodes = (
"341 780 LINE",
"243 1000 LINE",
"145 1000 LINE",
"262 780 LINE"
);
}
);
vertWidth = 1000;
width = 289;
},
{
layerId = "FC9CFCDA-9E80-4E73-BA51-8504D15957FA";
paths = (
{
closed = 1;
nodes = (
"231 0 LINE",
"231 730 LINE",
"85 730 LINE",
"85 0 LINE"
);
},
{
closed = 1;
nodes = (
"147 780 LINE",
"72 1000 LINE",
"-87 1000 LINE",
"26 780 LINE"
);
},
{
closed = 1;
nodes = (
"374 780 LINE",
"298 1000 LINE",
"140 1000 LINE",
"252 780 LINE"
);
}
);
vertWidth = 1000;
width = 315;
}
);
leftKerningGroup = I;
rightKerningGroup = I;
unicode = 0208;
},
{
glyphname = Idieresis;
lastChange = "2021-04-04 02:12:22 +0000";
layers = (
{
components = (
{
name = I;
},
{
name = dieresiscomb;
transform = "{1, 0, 0, 1, -52, 210}";
}
);
layerId = "D65C9A1E-0FCA-4B2D-8EDF-9F36CA9182A1";
width = 500;
},
{
layerId = "E27A6A66-A1F8-4E1B-8224-7C0FE77551F2";
paths = (
{
closed = 1;
nodes = (
"186 0 LINE",
"186 730 LINE",
"103 730 LINE",
"103 0 LINE"
);
},
{
closed = 1;
nodes = (
"71 823 LINE",
"71 927 LINE",
"-33 927 LINE",
"-33 823 LINE"
);
},
{
closed = 1;
nodes = (
"320 823 LINE",
"320 927 LINE",
"216 927 LINE",
"216 823 LINE"
);
}
);
vertWidth = 1000;
width = 289;
},
{
layerId = "FC9CFCDA-9E80-4E73-BA51-8504D15957FA";
paths = (
{
closed = 1;
nodes = (
"231 0 LINE",
"231 730 LINE",
"85 730 LINE",
"85 0 LINE"
);
},
{
closed = 1;
nodes = (
"101 801 LINE",
"101 949 LINE",
"-46 949 LINE",
"-46 801 LINE"
);
},
{
closed = 1;
nodes = (
"361 801 LINE",
"361 949 LINE",
"213 949 LINE",
"213 801 LINE"
);
}
);
vertWidth = 1000;
width = 315;
}
);
leftKerningGroup = I;
rightKerningGroup = I;
unicode = 00CF;
},
{
glyphname = Idotaccent;
lastChange = "2021-04-04 02:12:22 +0000";
layers = (
{
components = (
{
name = I;
},
{
name = dotaccentcomb;
transform = "{1, 0, 0, 1, 68, 210}";
}
);
layerId = "D65C9A1E-0FCA-4B2D-8EDF-9F36CA9182A1";
width = 500;
},
{
layerId = "E27A6A66-A1F8-4E1B-8224-7C0FE77551F2";
paths = (
{
closed = 1;
nodes = (
"186 0 LINE",
"186 730 LINE",
"103 730 LINE",
"103 0 LINE"
);
},
{
closed = 1;
nodes = (
"196 823 LINE",
"196 927 LINE",
"92 927 LINE",
"92 823 LINE"
);
}
);
vertWidth = 1000;
width = 289;
},
{
layerId = "FC9CFCDA-9E80-4E73-BA51-8504D15957FA";
paths = (
{
closed = 1;
nodes = (
"231 0 LINE",
"231 730 LINE",
"85 730 LINE",
"85 0 LINE"
);
},
{
closed = 1;
nodes = (
"231 801 LINE",
"231 949 LINE",
"84 949 LINE",
"84 801 LINE"
);
}
);
vertWidth = 1000;
width = 315;
}
);
leftKerningGroup = I;
rightKerningGroup = I;
unicode = 0130;
},
{
glyphname = Idotbelow;
lastChange = "2021-04-04 02:12:22 +0000";
layers = (
{
components = (
{
name = I;
},
{
name = dotbelowcomb;
transform = "{1, 0, 0, 1, 68, -44}";
}
);
layerId = "D65C9A1E-0FCA-4B2D-8EDF-9F36CA9182A1";
width = 500;
},
{
layerId = "E27A6A66-A1F8-4E1B-8224-7C0FE77551F2";
paths = (
{
closed = 1;
nodes = (
"186 0 LINE",
"186 730 LINE",
"103 730 LINE",
"103 0 LINE"
);
},
{
closed = 1;
nodes = (
"196 -197 LINE",
"196 -93 LINE",
"92 -93 LINE",
"92 -197 LINE"
);
}
);
vertWidth = 1000;
width = 289;
},
{
layerId = "FC9CFCDA-9E80-4E73-BA51-8504D15957FA";
paths = (
{
closed = 1;
nodes = (
"231 0 LINE",
"231 730 LINE",
"85 730 LINE",
"85 0 LINE"
);
},
{
closed = 1;
nodes = (
"231 -219 LINE",
"231 -71 LINE",
"84 -71 LINE",
"84 -219 LINE"
);
}
);
vertWidth = 1000;
width = 315;
}
);
leftKerningGroup = I;
rightKerningGroup = I;
unicode = 1ECA;
},
{
glyphname = Igrave;
lastChange = "2021-04-04 02:12:22 +0000";
layers = (
{
components = (
{
name = I;
},
{
name = gravecomb;
transform = "{1, 0, 0, 1, 21, 210}";
}
);
layerId = "D65C9A1E-0FCA-4B2D-8EDF-9F36CA9182A1";
width = 500;
},
{
layerId = "E27A6A66-A1F8-4E1B-8224-7C0FE77551F2";
paths = (
{
closed = 1;
nodes = (
"186 0 LINE",
"186 730 LINE",
"103 730 LINE",
"103 0 LINE"
);
},
{
closed = 1;
nodes = (
"233 780 LINE",
"132 1000 LINE",
"31 1000 LINE",
"152 780 LINE"
);
}
);
vertWidth = 1000;
width = 289;
},
{
layerId = "FC9CFCDA-9E80-4E73-BA51-8504D15957FA";
paths = (
{
closed = 1;
nodes = (
"231 0 LINE",
"231 730 LINE",
"85 730 LINE",
"85 0 LINE"
);
},
{
closed = 1;
nodes = (
"264 780 LINE",
"183 1000 LINE",
"13 1000 LINE",
"134 780 LINE"
);
}
);
vertWidth = 1000;
width = 315;
}
);
leftKerningGroup = I;
rightKerningGroup = I;
unicode = 00CC;
},
{
glyphname = Ihookabove;
lastChange = "2021-04-04 02:12:22 +0000";
layers = (
{
components = (
{
name = I;
},
{
name = hookabovecomb;
transform = "{1, 0, 0, 1, -57, 210}";
}
);
layerId = "D65C9A1E-0FCA-4B2D-8EDF-9F36CA9182A1";
width = 500;
},
{
layerId = "E27A6A66-A1F8-4E1B-8224-7C0FE77551F2";
paths = (
{
closed = 1;
nodes = (
"291 790 LINE",
"304 819 OFFCURVE",
"313 861 OFFCURVE",
"313 890 CURVE SMOOTH",
"313 951 OFFCURVE",
"272 970 OFFCURVE",
"144 970 CURVE SMOOTH",
"86 970 OFFCURVE",
"31 964 OFFCURVE",
"-24 953 CURVE",
"-16 888 LINE",
"35 901 OFFCURVE",
"80 906 OFFCURVE",
"128 906 CURVE SMOOTH",
"207 906 OFFCURVE",
"228 897 OFFCURVE",
"228 864 CURVE SMOOTH",
"228 845 OFFCURVE",
"221 815 OFFCURVE",
"211 790 CURVE"
);
},
{
closed = 1;
nodes = (
"186 0 LINE",
"186 730 LINE",
"103 730 LINE",
"103 0 LINE"
);
}
);
vertWidth = 1000;
width = 289;
},
{
layerId = "FC9CFCDA-9E80-4E73-BA51-8504D15957FA";
paths = (
{
closed = 1;
nodes = (
"231 0 LINE",
"231 730 LINE",
"85 730 LINE",
"85 0 LINE"
);
},
{
closed = 1;
nodes = (
"316 785 LINE",
"330 817 OFFCURVE",
"339 865 OFFCURVE",
"339 898 CURVE SMOOTH",
"339 965 OFFCURVE",
"298 985 OFFCURVE",
"158 985 CURVE SMOOTH",
"98 985 OFFCURVE",
"31 978 OFFCURVE",
"-24 967 CURVE",
"-12 864 LINE",
"38 878 OFFCURVE",
"88 885 OFFCURVE",
"133 885 CURVE SMOOTH",
"189 885 OFFCURVE",
"203 878 OFFCURVE",
"203 850 CURVE SMOOTH",
"203 833 OFFCURVE",
"198 808 OFFCURVE",
"190 785 CURVE"
);
}
);
vertWidth = 1000;
width = 315;
}
);
leftKerningGroup = I;
rightKerningGroup = I;
unicode = 1EC8;
},
{
glyphname = Iinvertedbreve;
lastChange = "2021-04-04 02:12:22 +0000";
layers = (
{
components = (
{
name = I;
},
{
name = breveinvertedcomb;
transform = "{1, 0, 0, 1, -76, 210}";
}
);
layerId = "D65C9A1E-0FCA-4B2D-8EDF-9F36CA9182A1";
width = 500;
},
{
layerId = "E27A6A66-A1F8-4E1B-8224-7C0FE77551F2";
paths = (
{
closed = 1;
nodes = (
"20 813 LINE",
"30 886 OFFCURVE",
"78 929 OFFCURVE",
"146 929 CURVE SMOOTH",
"213 929 OFFCURVE",
"259 886 OFFCURVE",
"271 813 CURVE",
"356 813 LINE",
"345 920 OFFCURVE",
"260 993 OFFCURVE",
"146 993 CURVE SMOOTH",
"30 993 OFFCURVE",
"-55 920 OFFCURVE",
"-64 813 CURVE"
);
},
{
closed = 1;
nodes = (
"186 0 LINE",
"186 730 LINE",
"103 730 LINE",
"103 0 LINE"
);
}
);
vertWidth = 1000;
width = 289;
},
{
layerId = "FC9CFCDA-9E80-4E73-BA51-8504D15957FA";
paths = (
{
closed = 1;
nodes = (
"231 0 LINE",
"231 730 LINE",
"85 730 LINE",
"85 0 LINE"
);
},
{
closed = 1;
nodes = (
"62 807 LINE",
"70 871 OFFCURVE",
"104 906 OFFCURVE",
"158 906 CURVE SMOOTH",
"211 906 OFFCURVE",
"244 871 OFFCURVE",
"253 807 CURVE",
"388 807 LINE",
"382 924 OFFCURVE",
"287 1007 OFFCURVE",
"158 1007 CURVE SMOOTH",
"27 1007 OFFCURVE",
"-68 924 OFFCURVE",
"-72 807 CURVE"
);
}
);
vertWidth = 1000;
width = 315;
}
);
leftKerningGroup = I;
rightKerningGroup = I;
unicode = 020A;
},
{
glyphname = Imacron;
lastChange = "2021-04-04 02:12:22 +0000";
layers = (
{
components = (
{
name = I;
},
{
name = macroncomb;
transform = "{1, 0, 0, 1, -69, 210}";
}
);
layerId = "D65C9A1E-0FCA-4B2D-8EDF-9F36CA9182A1";
width = 500;
},
{
layerId = "E27A6A66-A1F8-4E1B-8224-7C0FE77551F2";
paths = (
{
closed = 1;
nodes = (
"186 0 LINE",
"186 730 LINE",
"103 730 LINE",
"103 0 LINE"
);
},
{
closed = 1;
nodes = (
"326 843 LINE",
"326 907 LINE",
"-37 907 LINE",
"-37 843 LINE"
);
}
);
vertWidth = 1000;
width = 289;
},
{
layerId = "FC9CFCDA-9E80-4E73-BA51-8504D15957FA";
paths = (
{
closed = 1;
nodes = (
"231 0 LINE",
"231 730 LINE",
"85 730 LINE",
"85 0 LINE"
);
},
{
closed = 1;
nodes = (
"354 823 LINE",
"354 927 LINE",
"-38 927 LINE",
"-38 823 LINE"
);
}
);
vertWidth = 1000;
width = 315;
}
);
leftKerningGroup = I;
rightKerningGroup = I;
unicode = 012A;
},
{
glyphname = Iogonek;
lastChange = "2021-04-04 02:12:22 +0000";
layers = (
{
components = (
{
name = I;
},
{
name = ogonekcomb;
transform = "{1, 0, 0, 1, -34, 0}";
}
);
layerId = "D65C9A1E-0FCA-4B2D-8EDF-9F36CA9182A1";
width = 500;
},
{
layerId = "E27A6A66-A1F8-4E1B-8224-7C0FE77551F2";
paths = (
{
closed = 1;
nodes = (
"205 -218 OFFCURVE",
"242 -211 OFFCURVE",
"274 -197 CURVE",
"260 -134 LINE",
"233 -147 OFFCURVE",
"202 -153 OFFCURVE",
"170 -153 CURVE SMOOTH",
"124 -153 OFFCURVE",
"89 -141 OFFCURVE",
"89 -107 CURVE SMOOTH",
"89 -74 OFFCURVE",
"124 -36 OFFCURVE",
"186 0 CURVE",
"115 21 LINE",
"50 -21 OFFCURVE",
"14 -69 OFFCURVE",
"14 -120 CURVE SMOOTH",
"14 -175 OFFCURVE",
"59 -218 OFFCURVE",
"164 -218 CURVE SMOOTH"
);
},
{
closed = 1;
nodes = (
"186 0 LINE",
"186 730 LINE",
"103 730 LINE",
"103 0 LINE"
);
}
);
vertWidth = 1000;
width = 289;
},
{
layerId = "FC9CFCDA-9E80-4E73-BA51-8504D15957FA";
paths = (
{
closed = 1;
nodes = (
"231 0 LINE",
"231 730 LINE",
"85 730 LINE",
"85 0 LINE"
);
},
{
closed = 1;
nodes = (
"246 -218 OFFCURVE",
"285 -211 OFFCURVE",
"320 -197 CURVE",
"304 -96 LINE",
"275 -108 OFFCURVE",
"242 -115 OFFCURVE",
"212 -115 CURVE SMOOTH",
"172 -115 OFFCURVE",
"150 -103 OFFCURVE",
"150 -81 CURVE SMOOTH",
"150 -56 OFFCURVE",
"178 -28 OFFCURVE",
"230 0 CURVE",
"106 33 LINE",
"50 -12 OFFCURVE",
"23 -54 OFFCURVE",
"23 -102 CURVE SMOOTH",
"23 -176 OFFCURVE",
"88 -218 OFFCURVE",
"202 -218 CURVE SMOOTH"
);
}
);
vertWidth = 1000;
width = 315;
}
);
leftKerningGroup = I;
rightKerningGroup = I;
unicode = 012E;
},
{
glyphname = Itilde;
lastChange = "2021-04-04 02:12:22 +0000";
layers = (
{
components = (
{
name = I;
},
{
name = tildecomb;
transform = "{1, 0, 0, 1, -92, 210}";
}
);
layerId = "D65C9A1E-0FCA-4B2D-8EDF-9F36CA9182A1";
width = 500;
},
{
layerId = "E27A6A66-A1F8-4E1B-8224-7C0FE77551F2";
paths = (
{
closed = 1;
nodes = (
"323 794 OFFCURVE",
"354 850 OFFCURVE",
"354 959 CURVE",
"281 959 LINE",
"281 896 OFFCURVE",
"269 866 OFFCURVE",
"246 866 CURVE SMOOTH",
"228 866 OFFCURVE",
"193 883 OFFCURVE",
"150 914 CURVE SMOOTH",
"95 953 OFFCURVE",
"57 970 OFFCURVE",
"25 970 CURVE SMOOTH",
"-35 970 OFFCURVE",
"-66 914 OFFCURVE",
"-66 805 CURVE",
"7 805 LINE",
"7 868 OFFCURVE",
"19 898 OFFCURVE",
"42 898 CURVE SMOOTH",
"60 898 OFFCURVE",
"95 881 OFFCURVE",
"138 850 CURVE SMOOTH",
"193 811 OFFCURVE",
"231 794 OFFCURVE",
"263 794 CURVE SMOOTH"
);
},
{
closed = 1;
nodes = (
"186 0 LINE",
"186 730 LINE",
"103 730 LINE",
"103 0 LINE"
);
}
);
vertWidth = 1000;
width = 289;
},
{
layerId = "FC9CFCDA-9E80-4E73-BA51-8504D15957FA";
paths = (
{
closed = 1;
nodes = (
"231 0 LINE",
"231 730 LINE",
"85 730 LINE",
"85 0 LINE"
);
},
{
closed = 1;
nodes = (
"351 784 OFFCURVE",
"388 849 OFFCURVE",
"388 978 CURVE",
"272 978 LINE",
"272 923 OFFCURVE",
"265 901 OFFCURVE",
"246 901 CURVE SMOOTH",
"231 901 OFFCURVE",
"204 914 OFFCURVE",
"170 936 CURVE SMOOTH",
"115 970 OFFCURVE",
"74 986 OFFCURVE",
"38 986 CURVE SMOOTH",
"-35 986 OFFCURVE",
"-72 921 OFFCURVE",
"-72 793 CURVE",
"44 793 LINE",
"44 848 OFFCURVE",
"51 869 OFFCURVE",
"70 869 CURVE SMOOTH",
"85 869 OFFCURVE",
"112 856 OFFCURVE",
"146 835 CURVE SMOOTH",
"201 800 OFFCURVE",
"242 784 OFFCURVE",
"278 784 CURVE SMOOTH"
);
}
);
vertWidth = 1000;
width = 315;
}
);
leftKerningGroup = I;
rightKerningGroup = I;
unicode = 0128;
},
{
color = 10;
glyphname = J;
lastChange = "2021-04-09 12:39:45 +0000";
layers = (
{
layerId = "D65C9A1E-0FCA-4B2D-8EDF-9F36CA9182A1";
paths = (
{
closed = 1;
nodes = (
"320 -10 OFFCURVE",
"378 52 OFFCURVE",
"378 195 CURVE SMOOTH",
"378 730 LINE",
"88 730 LINE",
"88 710 LINE",
"358 710 LINE",
"358 195 LINE SMOOTH",
"358 63 OFFCURVE",
"308 10 OFFCURVE",
"186 10 CURVE SMOOTH",
"133 10 OFFCURVE",
"88 20 OFFCURVE",
"48 41 CURVE",
"48 19 LINE",
"87 0 OFFCURVE",
"132 -10 OFFCURVE",
"186 -10 CURVE SMOOTH"
);
}
);
width = 500;
},
{
layerId = "E27A6A66-A1F8-4E1B-8224-7C0FE77551F2";
paths = (
{
closed = 1;
nodes = (
"334 -10 OFFCURVE",
"395 52 OFFCURVE",
"395 195 CURVE SMOOTH",
"395 730 LINE",
"85 730 LINE",
"85 660 LINE",
"313 660 LINE",
"313 202 LINE SMOOTH",
"313 103 OFFCURVE",
"275 62 OFFCURVE",
"182 62 CURVE SMOOTH",
"132 62 OFFCURVE",
"86 74 OFFCURVE",
"45 94 CURVE",
"45 19 LINE",
"87 0 OFFCURVE",
"135 -10 OFFCURVE",
"192 -10 CURVE SMOOTH"
);
}
);
vertWidth = 1000;
width = 500;
},
{
layerId = "FC9CFCDA-9E80-4E73-BA51-8504D15957FA";
paths = (
{
closed = 1;
nodes = (
"347 -10 OFFCURVE",
"412 52 OFFCURVE",
"412 195 CURVE SMOOTH",
"412 730 LINE",
"82 730 LINE",
"82 610 LINE",
"268 610 LINE",
"268 210 LINE SMOOTH",
"268 144 OFFCURVE",
"241 116 OFFCURVE",
"177 116 CURVE SMOOTH",
"134 116 OFFCURVE",
"83 129 OFFCURVE",
"42 149 CURVE",
"42 19 LINE",
"86 0 OFFCURVE",
"137 -10 OFFCURVE",
"197 -10 CURVE SMOOTH"
);
}
);
vertWidth = 1000;
width = 500;
}
);
leftKerningGroup = J;
rightKerningGroup = U;
unicode = 004A;
},
{
glyphname = Jcircumflex;
lastChange = "2021-04-05 02:06:36 +0000";
layers = (
{
components = (
{
name = J;
},
{
name = circumflexcomb;
transform = "{1, 0, 0, 1, 104, 210}";
}
);
layerId = "D65C9A1E-0FCA-4B2D-8EDF-9F36CA9182A1";
width = 500;
},
{
layerId = "E27A6A66-A1F8-4E1B-8224-7C0FE77551F2";
paths = (
{
closed = 1;
nodes = (
"436 -10 OFFCURVE",
"522 72 OFFCURVE",
"522 247 CURVE SMOOTH",
"522 730 LINE",
"441 730 LINE",
"441 260 LINE SMOOTH",
"441 123 OFFCURVE",
"383 65 OFFCURVE",
"246 65 CURVE SMOOTH",
"174 65 OFFCURVE",
"110 81 OFFCURVE",
"41 117 CURVE",
"22 43 LINE",
"88 7 OFFCURVE",
"164 -10 OFFCURVE",
"250 -10 CURVE SMOOTH"
);
},
{
closed = 1;
nodes = (
"194 780 LINE",
"303 962 LINE",
"305 962 LINE",
"414 780 LINE",
"509 780 LINE",
"373 1000 LINE",
"234 1000 LINE",
"99 780 LINE"
);
}
);
vertWidth = 1000;
width = 607;
},
{
layerId = "FC9CFCDA-9E80-4E73-BA51-8504D15957FA";
paths = (
{
closed = 1;
nodes = (
"444 -10 OFFCURVE",
"533 72 OFFCURVE",
"533 253 CURVE SMOOTH",
"533 730 LINE",
"390 730 LINE",
"390 280 LINE SMOOTH",
"390 160 OFFCURVE",
"349 116 OFFCURVE",
"237 116 CURVE SMOOTH",
"176 116 OFFCURVE",
"120 130 OFFCURVE",
"38 163 CURVE",
"13 36 LINE",
"83 5 OFFCURVE",
"161 -10 OFFCURVE",
"246 -10 CURVE SMOOTH"
);
},
{
closed = 1;
nodes = (
"219 780 LINE",
"299 940 LINE",
"301 940 LINE",
"380 780 LINE",
"537 780 LINE",
"414 1000 LINE",
"185 1000 LINE",
"62 780 LINE"
);
}
);
vertWidth = 1000;
width = 603;
}
);
leftKerningGroup = J;
rightKerningGroup = U;
unicode = 0134;
},
{
color = 10;
glyphname = K;
lastChange = "2021-04-05 02:29:18 +0000";
layers = (
{
layerId = "D65C9A1E-0FCA-4B2D-8EDF-9F36CA9182A1";
paths = (
{
closed = 1;
nodes = (
"112 0 LINE",
"112 370 LINE",
"116 370 LINE",
"436 0 LINE",
"462 0 LINE",
"127 386 LINE",
"458 730 LINE",
"432 730 LINE",
"116 402 LINE",
"112 402 LINE",
"112 730 LINE",
"92 730 LINE",
"92 0 LINE"
);
}
);
width = 500;
},
{
layerId = "E27A6A66-A1F8-4E1B-8224-7C0FE77551F2";
paths = (
{
closed = 1;
nodes = (
"155 0 LINE",
"155 358 LINE",
"159 358 LINE",
"387 0 LINE",
"475 0 LINE",
"230 386 LINE",
"471 730 LINE",
"384 730 LINE",
"159 414 LINE",
"155 414 LINE",
"155 730 LINE",
"75 730 LINE",
"75 0 LINE"
);
}
);
vertWidth = 1000;
width = 500;
},
{
layerId = "FC9CFCDA-9E80-4E73-BA51-8504D15957FA";
paths = (
{
closed = 1;
nodes = (
"198 0 LINE",
"198 346 LINE",
"202 346 LINE",
"338 0 LINE",
"488 0 LINE",
"333 386 LINE",
"483 730 LINE",
"335 730 LINE",
"202 426 LINE",
"198 426 LINE",
"198 730 LINE",
"58 730 LINE",
"58 0 LINE"
);
}
);
vertWidth = 1000;
width = 500;
}
);
leftKerningGroup = H;
rightKerningGroup = K;
unicode = 004B;
},
{
glyphname = Kcommaaccent;
lastChange = "2021-04-05 02:29:31 +0000";
layers = (
{
components = (
{
name = K;
},
{
name = commaaccentcomb;
transform = "{1, 0, 0, 1, 194, 0}";
}
);
layerId = "D65C9A1E-0FCA-4B2D-8EDF-9F36CA9182A1";
width = 500;
},
{
layerId = "E27A6A66-A1F8-4E1B-8224-7C0FE77551F2";
paths = (
{
closed = 1;
nodes = (
"173 0 LINE",
"173 359 LINE",
"175 359 LINE",
"569 0 LINE",
"673 0 LINE",
"253 385 LINE",
"663 730 LINE",
"559 730 LINE",
"175 410 LINE",
"173 410 LINE",
"173 730 LINE",
"93 730 LINE",
"93 0 LINE"
);
},
{
closed = 1;
nodes = (
"312 -270 LINE",
"433 -50 LINE",
"332 -50 LINE",
"231 -270 LINE"
);
}
);
vertWidth = 1000;
width = 698;
},
{
layerId = "FC9CFCDA-9E80-4E73-BA51-8504D15957FA";
paths = (
{
closed = 1;
nodes = (
"217 0 LINE",
"217 346 LINE",
"219 346 LINE",
"527 0 LINE",
"697 0 LINE",
"359 380 LINE",
"687 730 LINE",
"517 730 LINE",
"219 414 LINE",
"217 414 LINE",
"217 730 LINE",
"77 730 LINE",
"77 0 LINE"
);
},
{
closed = 1;
nodes = (
"347 -270 LINE",
"467 -50 LINE",
"297 -50 LINE",
"217 -270 LINE"
);
}
);
vertWidth = 1000;
width = 715;
}
);
leftKerningGroup = H;
rightKerningGroup = K;
unicode = 0136;
},
{
color = 10;
glyphname = L;
lastChange = "2021-04-10 08:57:37 +0000";
layers = (
{
layerId = "D65C9A1E-0FCA-4B2D-8EDF-9F36CA9182A1";
paths = (
{
closed = 1;
nodes = (
"445 0 LINE",
"445 20 LINE",
"115 20 LINE",
"115 730 LINE",
"95 730 LINE",
"95 0 LINE"
);
}
);
width = 500;
},
{
layerId = "E27A6A66-A1F8-4E1B-8224-7C0FE77551F2";
paths = (
{
closed = 1;
nodes = (
"450 0 LINE",
"450 72 LINE",
"162 72 LINE",
"162 730 LINE",
"80 730 LINE",
"80 0 LINE"
);
}
);
vertWidth = 1000;
width = 500;
},
{
layerId = "FC9CFCDA-9E80-4E73-BA51-8504D15957FA";
paths = (
{
closed = 1;
nodes = (
"455 0 LINE",
"455 124 LINE",
"209 124 LINE",
"209 730 LINE",
"65 730 LINE",
"65 0 LINE"
);
}
);
vertWidth = 1000;
width = 500;
}
);
leftKerningGroup = H;
rightKerningGroup = L;
unicode = 004C;
},
{
glyphname = LJ;
lastChange = "2021-04-05 02:06:36 +0000";
layers = (
{
components = (
{
name = L;
},
{
name = J;
transform = "{1, 0, 0, 1, 500, 0}";
}
);
layerId = "D65C9A1E-0FCA-4B2D-8EDF-9F36CA9182A1";
width = 1000;
},
{
layerId = "E27A6A66-A1F8-4E1B-8224-7C0FE77551F2";
paths = (
{
closed = 1;
nodes = (
"1090 -10 OFFCURVE",
"1176 72 OFFCURVE",
"1176 247 CURVE SMOOTH",
"1176 730 LINE",
"1095 730 LINE",
"1095 260 LINE SMOOTH",
"1095 123 OFFCURVE",
"1037 65 OFFCURVE",
"900 65 CURVE SMOOTH",
"828 65 OFFCURVE",
"764 81 OFFCURVE",
"695 117 CURVE",
"676 43 LINE",
"742 7 OFFCURVE",
"818 -10 OFFCURVE",
"904 -10 CURVE SMOOTH"
);
},
{
closed = 1;
nodes = (
"590 0 LINE",
"590 73 LINE",
"175 73 LINE",
"175 730 LINE",
"93 730 LINE",
"93 0 LINE"
);
}
);
vertWidth = 1000;
width = 1260;
},
{
layerId = "FC9CFCDA-9E80-4E73-BA51-8504D15957FA";
paths = (
{
closed = 1;
nodes = (
"1097 -10 OFFCURVE",
"1186 72 OFFCURVE",
"1186 253 CURVE SMOOTH",
"1186 730 LINE",
"1043 730 LINE",
"1043 280 LINE SMOOTH",
"1043 160 OFFCURVE",
"1002 116 OFFCURVE",
"890 116 CURVE SMOOTH",
"829 116 OFFCURVE",
"773 130 OFFCURVE",
"691 163 CURVE",
"666 36 LINE",
"736 5 OFFCURVE",
"814 -10 OFFCURVE",
"899 -10 CURVE SMOOTH"
);
},
{
closed = 1;
nodes = (
"600 0 LINE",
"600 123 LINE",
"220 123 LINE",
"220 730 LINE",
"77 730 LINE",
"77 0 LINE"
);
}
);
vertWidth = 1000;
width = 1256;
}
);
leftKerningGroup = H;
rightKerningGroup = U;
unicode = 01C7;
},
{
glyphname = Lacute;
lastChange = "2021-04-04 08:30:43 +0000";
layers = (
{
components = (
{
name = L;
},
{
name = acutecomb;
transform = "{1, 0, 0, 1, 196, 210}";
}
);
layerId = "D65C9A1E-0FCA-4B2D-8EDF-9F36CA9182A1";
width = 500;
},
{
layerId = "E27A6A66-A1F8-4E1B-8224-7C0FE77551F2";
paths = (
{
closed = 1;
nodes = (
"590 0 LINE",
"590 73 LINE",
"175 73 LINE",
"175 730 LINE",
"93 730 LINE",
"93 0 LINE"
);
},
{
closed = 1;
nodes = (
"307 780 LINE",
"428 1000 LINE",
"327 1000 LINE",
"226 780 LINE"
);
}
);
vertWidth = 1000;
width = 634;
},
{
layerId = "FC9CFCDA-9E80-4E73-BA51-8504D15957FA";
paths = (
{
closed = 1;
nodes = (
"600 0 LINE",
"600 123 LINE",
"220 123 LINE",
"220 730 LINE",
"77 730 LINE",
"77 0 LINE"
);
},
{
closed = 1;
nodes = (
"339 780 LINE",
"459 1000 LINE",
"289 1000 LINE",
"209 780 LINE"
);
}
);
vertWidth = 1000;
width = 633;
}
);
leftKerningGroup = H;
rightKerningGroup = L;
unicode = 0139;
},
{
glyphname = Lcaron;
lastChange = "2021-04-04 01:01:52 +0000";
layers = (
{
components = (
{
name = L;
},
{
name = quoteright;
transform = "{1, 0, 0, 1, 360, 0}";
}
);
layerId = "D65C9A1E-0FCA-4B2D-8EDF-9F36CA9182A1";
rightMetricsKey = "=K*2";
width = 646;
},
{
layerId = "E27A6A66-A1F8-4E1B-8224-7C0FE77551F2";
paths = (
{
closed = 1;
nodes = (
"590 0 LINE",
"590 73 LINE",
"175 73 LINE",
"175 730 LINE",
"93 730 LINE",
"93 0 LINE"
);
},
{
closed = 1;
nodes = (
"461 470 LINE",
"574 770 LINE",
"480 770 LINE",
"387 470 LINE"
);
}
);
vertWidth = 1000;
width = 633;
},
{
layerId = "FC9CFCDA-9E80-4E73-BA51-8504D15957FA";
paths = (
{
closed = 1;
nodes = (
"600 0 LINE",
"600 123 LINE",
"220 123 LINE",
"220 730 LINE",
"77 730 LINE",
"77 0 LINE"
);
},
{
closed = 1;
nodes = (
"479 470 LINE",
"596 770 LINE",
"439 770 LINE",
"363 470 LINE"
);
}
);
vertWidth = 1000;
width = 626;
}
);
leftKerningGroup = H;
leftMetricsKey = "=L";
rightKerningGroup = L;
rightMetricsKey = "=K";
unicode = 013D;
},
{
glyphname = Lcommaaccent;
lastChange = "2021-04-04 08:30:43 +0000";
layers = (
{
components = (
{
name = L;
},
{
name = commaaccentcomb;
transform = "{1, 0, 0, 1, 191, 0}";
}
);
layerId = "D65C9A1E-0FCA-4B2D-8EDF-9F36CA9182A1";
width = 500;
},
{
layerId = "E27A6A66-A1F8-4E1B-8224-7C0FE77551F2";
paths = (
{
closed = 1;
nodes = (
"590 0 LINE",
"590 73 LINE",
"175 73 LINE",
"175 730 LINE",
"93 730 LINE",
"93 0 LINE"
);
},
{
closed = 1;
nodes = (
"298 -270 LINE",
"419 -50 LINE",
"318 -50 LINE",
"217 -270 LINE"
);
}
);
vertWidth = 1000;
width = 634;
},
{
layerId = "FC9CFCDA-9E80-4E73-BA51-8504D15957FA";
paths = (
{
closed = 1;
nodes = (
"600 0 LINE",
"600 123 LINE",
"220 123 LINE",
"220 730 LINE",
"77 730 LINE",
"77 0 LINE"
);
},
{
closed = 1;
nodes = (
"323 -270 LINE",
"443 -50 LINE",
"273 -50 LINE",
"193 -270 LINE"
);
}
);
vertWidth = 1000;
width = 633;
}
);
leftKerningGroup = H;
rightKerningGroup = L;
unicode = 013B;
},
{
glyphname = Ldot;
lastChange = "2021-04-04 01:01:52 +0000";
layers = (
{
components = (
{
name = L;
},
{
name = periodcentered;
transform = "{1, 0, 0, 1, 415, 85}";
}
);
layerId = "D65C9A1E-0FCA-4B2D-8EDF-9F36CA9182A1";
rightMetricsKey = "=+30";
width = 665;
},
{
layerId = "E27A6A66-A1F8-4E1B-8224-7C0FE77551F2";
paths = (
{
closed = 1;
nodes = (
"590 0 LINE",
"590 73 LINE",
"175 73 LINE",
"175 730 LINE",
"93 730 LINE",
"93 0 LINE"
);
},
{
closed = 1;
nodes = (
"561 322 LINE",
"561 428 LINE",
"454 428 LINE",
"454 322 LINE"
);
}
);
vertWidth = 1000;
width = 667;
},
{
layerId = "FC9CFCDA-9E80-4E73-BA51-8504D15957FA";
paths = (
{
closed = 1;
nodes = (
"600 0 LINE",
"600 123 LINE",
"220 123 LINE",
"220 730 LINE",
"77 730 LINE",
"77 0 LINE"
);
},
{
closed = 1;
nodes = (
"581 298 LINE",
"581 452 LINE",
"427 452 LINE",
"427 298 LINE"
);
}
);
vertWidth = 1000;
width = 668;
}
);
leftKerningGroup = H;
rightKerningGroup = L;
rightMetricsKey = "=+35";
unicode = 013F;
},
{
glyphname = Lj;
lastChange = "2021-04-08 07:08:31 +0000";
layers = (
{
components = (
{
name = L;
},
{
name = j;
transform = "{1, 0, 0, 1, 500, 0}";
}
);
layerId = "D65C9A1E-0FCA-4B2D-8EDF-9F36CA9182A1";
width = 1000;
},
{
layerId = "E27A6A66-A1F8-4E1B-8224-7C0FE77551F2";
paths = (
{
closed = 1;
nodes = (
"590 0 LINE",
"590 73 LINE",
"175 73 LINE",
"175 730 LINE",
"93 730 LINE",
"93 0 LINE"
);
},
{
closed = 1;
nodes = (
"775 -199 OFFCURVE",
"837 -140 OFFCURVE",
"837 47 CURVE SMOOTH",
"837 520 LINE",
"757 520 LINE",
"757 47 LINE SMOOTH",
"757 -96 OFFCURVE",
"719 -132 OFFCURVE",
"547 -151 CURVE",
"558 -220 LINE"
);
},
{
closed = 1;
nodes = (
"844 637 LINE",
"844 730 LINE",
"750 730 LINE",
"750 637 LINE"
);
}
);
vertWidth = 1000;
width = 936;
},
{
layerId = "FC9CFCDA-9E80-4E73-BA51-8504D15957FA";
paths = (
{
closed = 1;
nodes = (
"600 0 LINE",
"600 123 LINE",
"220 123 LINE",
"220 730 LINE",
"77 730 LINE",
"77 0 LINE"
);
},
{
closed = 1;
nodes = (
"811 -199 OFFCURVE",
"879 -138 OFFCURVE",
"879 59 CURVE SMOOTH",
"879 513 LINE",
"739 513 LINE",
"739 59 LINE SMOOTH",
"739 -66 OFFCURVE",
"710 -91 OFFCURVE",
"549 -107 CURVE",
"570 -220 LINE"
);
},
{
closed = 1;
nodes = (
"879 603 LINE",
"879 730 LINE",
"739 730 LINE",
"739 603 LINE"
);
}
);
vertWidth = 1000;
width = 956;
}
);
leftKerningGroup = H;
rightKerningGroup = g;
unicode = 01C8;
},
{
glyphname = Lslash;
lastChange = "2021-04-04 01:01:52 +0000";
layers = (
{
components = (
{
name = L;
transform = "{1, 0, 0, 1, 85, 0}";
}
);
layerId = "D65C9A1E-0FCA-4B2D-8EDF-9F36CA9182A1";
paths = (
{
closed = 1;
nodes = (
"359 431 LINE",
"351 449 LINE",
"21 299 LINE",
"29 281 LINE"
);
}
);
width = 720;
},
{
layerId = "E27A6A66-A1F8-4E1B-8224-7C0FE77551F2";
paths = (
{
closed = 1;
nodes = (
"678 0 LINE",
"678 73 LINE",
"263 73 LINE",
"263 730 LINE",
"181 730 LINE",
"181 0 LINE"
);
},
{
closed = 1;
nodes = (
"416 415 LINE",
"390 477 LINE",
"13 315 LINE",
"40 253 LINE"
);
}
);
vertWidth = 1000;
width = 721;
},
{
layerId = "FC9CFCDA-9E80-4E73-BA51-8504D15957FA";
paths = (
{
closed = 1;
nodes = (
"692 0 LINE",
"692 123 LINE",
"313 123 LINE",
"313 730 LINE",
"169 730 LINE",
"169 0 LINE"
);
},
{
closed = 1;
nodes = (
"474 402 LINE",
"431 502 LINE",
"8 328 LINE",
"51 228 LINE"
);
}
);
vertWidth = 1000;
width = 726;
}
);
leftKerningGroup = t;
leftMetricsKey = "=t*.5";
rightKerningGroup = L;
rightMetricsKey = "=L";
unicode = 0141;
},
{
color = 10;
glyphname = M;
lastChange = "2021-04-10 02:32:11 +0000";
layers = (
{
layerId = "D65C9A1E-0FCA-4B2D-8EDF-9F36CA9182A1";
paths = (
{
closed = 1;
nodes = (
"70 0 LINE",
"69 691 LINE",
"73 691 LINE",
"235 140 LINE",
"265 140 LINE",
"427 691 LINE",
"431 691 LINE",
"430 0 LINE",
"450 0 LINE",
"450 730 LINE",
"418 730 LINE",
"252 165 LINE",
"248 165 LINE",
"82 730 LINE",
"50 730 LINE",
"50 0 LINE"
);
}
);
width = 500;
},
{
layerId = "E27A6A66-A1F8-4E1B-8224-7C0FE77551F2";
paths = (
{
closed = 1;
nodes = (
"118 0 LINE",
"118 586 LINE",
"122 586 LINE",
"205 140 LINE",
"295 140 LINE",
"378 586 LINE",
"382 586 LINE",
"382 0 LINE",
"460 0 LINE",
"460 730 LINE",
"334 730 LINE",
"252 289 LINE",
"248 289 LINE",
"166 730 LINE",
"40 730 LINE",
"40 0 LINE"
);
}
);
vertWidth = 1000;
width = 500;
},
{
layerId = "FC9CFCDA-9E80-4E73-BA51-8504D15957FA";
paths = (
{
closed = 1;
nodes = (
"165 0 LINE",
"153 500 LINE",
"157 500 LINE",
"205 140 LINE",
"295 140 LINE",
"343 500 LINE",
"347 500 LINE",
"335 0 LINE",
"470 0 LINE",
"470 730 LINE",
"280 730 LINE",
"252 430 LINE",
"248 430 LINE",
"220 730 LINE",
"30 730 LINE",
"30 0 LINE"
);
}
);
vertWidth = 1000;
width = 500;
}
);
leftKerningGroup = H;
rightKerningGroup = H;
rightMetricsKey = "=|";
unicode = 004D;
},
{
color = 10;
glyphname = N;
lastChange = "2021-04-10 02:32:17 +0000";
layers = (
{
layerId = "D65C9A1E-0FCA-4B2D-8EDF-9F36CA9182A1";
paths = (
{
closed = 1;
nodes = (
"90 0 LINE",
"90 681 LINE",
"93 681 LINE",
"408 0 LINE",
"430 0 LINE",
"430 730 LINE",
"410 730 LINE",
"410 49 LINE",
"407 49 LINE",
"92 730 LINE",
"70 730 LINE",
"70 0 LINE"
);
}
);
width = 500;
},
{
layerId = "E27A6A66-A1F8-4E1B-8224-7C0FE77551F2";
paths = (
{
closed = 1;
nodes = (
"135 0 LINE",
"135 561 LINE",
"139 561 LINE",
"344 0 LINE",
"445 0 LINE",
"445 730 LINE",
"365 730 LINE",
"365 170 LINE",
"362 170 LINE",
"156 730 LINE",
"55 730 LINE",
"55 0 LINE"
);
}
);
vertWidth = 1000;
width = 500;
},
{
layerId = "FC9CFCDA-9E80-4E73-BA51-8504D15957FA";
paths = (
{
closed = 1;
nodes = (
"180 0 LINE",
"180 460 LINE",
"184 460 LINE",
"280 0 LINE",
"460 0 LINE",
"460 730 LINE",
"320 730 LINE",
"320 270 LINE",
"316 270 LINE",
"220 730 LINE",
"40 730 LINE",
"40 0 LINE"
);
}
);
vertWidth = 1000;
width = 500;
}
);
leftKerningGroup = H;
rightKerningGroup = H;
rightMetricsKey = "=|";
unicode = 004E;
},
{
glyphname = NJ;
lastChange = "2021-04-05 02:52:33 +0000";
layers = (
{
components = (
{
name = N;
},
{
name = J;
transform = "{1, 0, 0, 1, 500, 0}";
}
);
layerId = "D65C9A1E-0FCA-4B2D-8EDF-9F36CA9182A1";
width = 1000;
},
{
layerId = "E27A6A66-A1F8-4E1B-8224-7C0FE77551F2";
paths = (
{
closed = 1;
nodes = (
"173 0 LINE",
"173 603 LINE",
"175 603 LINE",
"570 0 LINE",
"660 0 LINE",
"660 730 LINE",
"580 730 LINE",
"580 127 LINE",
"578 127 LINE",
"184 730 LINE",
"93 730 LINE",
"93 0 LINE"
);
},
{
closed = 1;
nodes = (
"1189 -10 OFFCURVE",
"1275 72 OFFCURVE",
"1275 247 CURVE SMOOTH",
"1275 730 LINE",
"1194 730 LINE",
"1194 260 LINE SMOOTH",
"1194 123 OFFCURVE",
"1136 65 OFFCURVE",
"999 65 CURVE SMOOTH",
"927 65 OFFCURVE",
"863 81 OFFCURVE",
"794 117 CURVE",
"775 43 LINE",
"841 7 OFFCURVE",
"917 -10 OFFCURVE",
"1003 -10 CURVE SMOOTH"
);
}
);
vertWidth = 1000;
width = 1360;
},
{
layerId = "FC9CFCDA-9E80-4E73-BA51-8504D15957FA";
paths = (
{
closed = 1;
nodes = (
"217 0 LINE",
"217 497 LINE",
"219 497 LINE",
"523 0 LINE",
"670 0 LINE",
"670 730 LINE",
"530 730 LINE",
"530 233 LINE",
"528 233 LINE",
"223 730 LINE",
"77 730 LINE",
"77 0 LINE"
);
},
{
closed = 1;
nodes = (
"1191 -10 OFFCURVE",
"1280 72 OFFCURVE",
"1280 253 CURVE SMOOTH",
"1280 730 LINE",
"1137 730 LINE",
"1137 280 LINE SMOOTH",
"1137 160 OFFCURVE",
"1096 116 OFFCURVE",
"984 116 CURVE SMOOTH",
"923 116 OFFCURVE",
"867 130 OFFCURVE",
"785 163 CURVE",
"760 36 LINE",
"830 5 OFFCURVE",
"908 -10 OFFCURVE",
"993 -10 CURVE SMOOTH"
);
}
);
vertWidth = 1000;
width = 1349;
}
);
leftKerningGroup = H;
rightKerningGroup = U;
unicode = 01CA;
},
{
glyphname = Nacute;
lastChange = "2021-04-05 02:52:33 +0000";
layers = (
{
components = (
{
name = N;
},
{
name = acutecomb;
transform = "{1, 0, 0, 1, 254, 210}";
}
);
layerId = "D65C9A1E-0FCA-4B2D-8EDF-9F36CA9182A1";
width = 500;
},
{
layerId = "E27A6A66-A1F8-4E1B-8224-7C0FE77551F2";
paths = (
{
closed = 1;
nodes = (
"173 0 LINE",
"173 603 LINE",
"175 603 LINE",
"570 0 LINE",
"660 0 LINE",
"660 730 LINE",
"580 730 LINE",
"580 127 LINE",
"578 127 LINE",
"184 730 LINE",
"93 730 LINE",
"93 0 LINE"
);
},
{
closed = 1;
nodes = (
"364 780 LINE",
"485 1000 LINE",
"384 1000 LINE",
"283 780 LINE"
);
}
);
vertWidth = 1000;
width = 753;
},
{
layerId = "FC9CFCDA-9E80-4E73-BA51-8504D15957FA";
paths = (
{
closed = 1;
nodes = (
"217 0 LINE",
"217 497 LINE",
"219 497 LINE",
"523 0 LINE",
"670 0 LINE",
"670 730 LINE",
"530 730 LINE",
"530 233 LINE",
"528 233 LINE",
"223 730 LINE",
"77 730 LINE",
"77 0 LINE"
);
},
{
closed = 1;
nodes = (
"395 780 LINE",
"515 1000 LINE",
"345 1000 LINE",
"265 780 LINE"
);
}
);
vertWidth = 1000;
width = 747;
}
);
leftKerningGroup = H;
rightKerningGroup = H;
unicode = 0143;
},
{
glyphname = Ncaron;
lastChange = "2021-04-05 02:52:33 +0000";
layers = (
{
components = (
{
name = N;
},
{
name = caroncomb;
transform = "{1, 0, 0, 1, 179, 210}";
}
);
layerId = "D65C9A1E-0FCA-4B2D-8EDF-9F36CA9182A1";
width = 500;
},
{
layerId = "E27A6A66-A1F8-4E1B-8224-7C0FE77551F2";
paths = (
{
closed = 1;
nodes = (
"173 0 LINE",
"173 603 LINE",
"175 603 LINE",
"570 0 LINE",
"660 0 LINE",
"660 730 LINE",
"580 730 LINE",
"580 127 LINE",
"578 127 LINE",
"184 730 LINE",
"93 730 LINE",
"93 0 LINE"
);
},
{
closed = 1;
nodes = (
"448 780 LINE",
"584 1000 LINE",
"489 1000 LINE",
"380 818 LINE",
"378 818 LINE",
"269 1000 LINE",
"174 1000 LINE",
"309 780 LINE"
);
}
);
vertWidth = 1000;
width = 753;
},
{
layerId = "FC9CFCDA-9E80-4E73-BA51-8504D15957FA";
paths = (
{
closed = 1;
nodes = (
"217 0 LINE",
"217 497 LINE",
"219 497 LINE",
"523 0 LINE",
"670 0 LINE",
"670 730 LINE",
"530 730 LINE",
"530 233 LINE",
"528 233 LINE",
"223 730 LINE",
"77 730 LINE",
"77 0 LINE"
);
},
{
closed = 1;
nodes = (
"488 780 LINE",
"611 1000 LINE",
"454 1000 LINE",
"375 840 LINE",
"373 840 LINE",
"293 1000 LINE",
"136 1000 LINE",
"259 780 LINE"
);
}
);
vertWidth = 1000;
width = 747;
}
);
leftKerningGroup = H;
rightKerningGroup = H;
unicode = 0147;
},
{
glyphname = Ncommaaccent;
lastChange = "2021-04-05 02:52:33 +0000";
layers = (
{
components = (
{
name = N;
},
{
name = commaaccentcomb;
transform = "{1, 0, 0, 1, 249, 0}";
}
);
layerId = "D65C9A1E-0FCA-4B2D-8EDF-9F36CA9182A1";
width = 500;
},
{
layerId = "E27A6A66-A1F8-4E1B-8224-7C0FE77551F2";
paths = (
{
closed = 1;
nodes = (
"173 0 LINE",
"173 603 LINE",
"175 603 LINE",
"570 0 LINE",
"660 0 LINE",
"660 730 LINE",
"580 730 LINE",
"580 127 LINE",
"578 127 LINE",
"184 730 LINE",
"93 730 LINE",
"93 0 LINE"
);
},
{
closed = 1;
nodes = (
"355 -270 LINE",
"476 -50 LINE",
"375 -50 LINE",
"274 -270 LINE"
);
}
);
vertWidth = 1000;
width = 753;
},
{
layerId = "FC9CFCDA-9E80-4E73-BA51-8504D15957FA";
paths = (
{
closed = 1;
nodes = (
"217 0 LINE",
"217 497 LINE",
"219 497 LINE",
"523 0 LINE",
"670 0 LINE",
"670 730 LINE",
"530 730 LINE",
"530 233 LINE",
"528 233 LINE",
"223 730 LINE",
"77 730 LINE",
"77 0 LINE"
);
},
{
closed = 1;
nodes = (
"379 -270 LINE",
"499 -50 LINE",
"329 -50 LINE",
"249 -270 LINE"
);
}
);
vertWidth = 1000;
width = 747;
}
);
leftKerningGroup = H;
rightKerningGroup = H;
unicode = 0145;
},
{
glyphname = Eng;
lastChange = "2021-04-04 01:01:52 +0000";
layers = (
{
anchors = (
{
name = bottom;
position = "{380, 0}";
},
{
name = top;
position = "{380, 730}";
}
);
background = {
components = (
{
name = N;
transform = "{1, 0, 0, 1, -5, 0}";
}
);
};
layerId = "D65C9A1E-0FCA-4B2D-8EDF-9F36CA9182A1";
paths = (
{
closed = 1;
nodes = (
"607 -211 OFFCURVE",
"650 -164 OFFCURVE",
"650 -61 CURVE SMOOTH",
"650 730 LINE",
"630 730 LINE",
"630 21 LINE",
"628 21 LINE",
"141 730 LINE",
"110 730 LINE",
"110 0 LINE",
"130 0 LINE",
"130 709 LINE",
"132 709 LINE",
"641 -32 LINE",
"630 0 LINE",
"630 -61 LINE SMOOTH",
"630 -153 OFFCURVE",
"595 -191 OFFCURVE",
"510 -191 CURVE SMOOTH",
"485 -191 OFFCURVE",
"459 -186 OFFCURVE",
"437 -177 CURVE",
"430 -196 LINE",
"454 -205 OFFCURVE",
"483 -211 OFFCURVE",
"510 -211 CURVE SMOOTH"
);
}
);
width = 760;
},
{
layerId = "E27A6A66-A1F8-4E1B-8224-7C0FE77551F2";
paths = (
{
closed = 1;
nodes = (
"611 -218 OFFCURVE",
"660 -163 OFFCURVE",
"660 -38 CURVE SMOOTH",
"660 730 LINE",
"580 730 LINE",
"580 127 LINE",
"578 127 LINE",
"184 730 LINE",
"93 730 LINE",
"93 0 LINE",
"173 0 LINE",
"173 603 LINE",
"175 603 LINE",
"594 -38 LINE",
"581 6 LINE",
"581 -38 LINE SMOOTH",
"581 -116 OFFCURVE",
"552 -148 OFFCURVE",
"481 -148 CURVE SMOOTH",
"456 -148 OFFCURVE",
"430 -143 OFFCURVE",
"407 -135 CURVE",
"393 -202 LINE",
"427 -212 OFFCURVE",
"462 -218 OFFCURVE",
"496 -218 CURVE SMOOTH"
);
}
);
vertWidth = 1000;
width = 753;
},
{
layerId = "FC9CFCDA-9E80-4E73-BA51-8504D15957FA";
paths = (
{
closed = 1;
nodes = (
"617 -224 OFFCURVE",
"670 -165 OFFCURVE",
"670 -17 CURVE SMOOTH",
"670 730 LINE",
"530 730 LINE",
"530 233 LINE",
"528 233 LINE",
"223 730 LINE",
"77 730 LINE",
"77 0 LINE",
"217 0 LINE",
"217 497 LINE",
"219 497 LINE",
"555 -54 LINE",
"531 36 LINE",
"531 -17 LINE SMOOTH",
"531 -83 OFFCURVE",
"510 -107 OFFCURVE",
"453 -107 CURVE SMOOTH",
"429 -107 OFFCURVE",
"401 -103 OFFCURVE",
"375 -96 CURVE",
"357 -208 LINE",
"399 -218 OFFCURVE",
"441 -224 OFFCURVE",
"482 -224 CURVE SMOOTH"
);
}
);
vertWidth = 1000;
width = 747;
}
);
leftKerningGroup = H;
leftMetricsKey = "=N";
rightKerningGroup = H;
rightMetricsKey = "=N";
unicode = 014A;
},
{
glyphname = Nj;
lastChange = "2021-04-08 07:08:31 +0000";
layers = (
{
components = (
{
name = N;
},
{
name = j;
transform = "{1, 0, 0, 1, 500, 0}";
}
);
layerId = "D65C9A1E-0FCA-4B2D-8EDF-9F36CA9182A1";
width = 1000;
},
{
layerId = "E27A6A66-A1F8-4E1B-8224-7C0FE77551F2";
paths = (
{
closed = 1;
nodes = (
"173 0 LINE",
"173 603 LINE",
"175 603 LINE",
"570 0 LINE",
"660 0 LINE",
"660 730 LINE",
"580 730 LINE",
"580 127 LINE",
"578 127 LINE",
"184 730 LINE",
"93 730 LINE",
"93 0 LINE"
);
},
{
closed = 1;
nodes = (
"894 -199 OFFCURVE",
"956 -140 OFFCURVE",
"956 47 CURVE SMOOTH",
"956 520 LINE",
"876 520 LINE",
"876 47 LINE SMOOTH",
"876 -96 OFFCURVE",
"838 -132 OFFCURVE",
"666 -151 CURVE",
"677 -220 LINE"
);
},
{
closed = 1;
nodes = (
"963 637 LINE",
"963 730 LINE",
"869 730 LINE",
"869 637 LINE"
);
}
);
vertWidth = 1000;
width = 1056;
},
{
layerId = "FC9CFCDA-9E80-4E73-BA51-8504D15957FA";
paths = (
{
closed = 1;
nodes = (
"217 0 LINE",
"217 497 LINE",
"219 497 LINE",
"523 0 LINE",
"670 0 LINE",
"670 730 LINE",
"530 730 LINE",
"530 233 LINE",
"528 233 LINE",
"223 730 LINE",
"77 730 LINE",
"77 0 LINE"
);
},
{
closed = 1;
nodes = (
"925 -199 OFFCURVE",
"993 -138 OFFCURVE",
"993 59 CURVE SMOOTH",
"993 513 LINE",
"853 513 LINE",
"853 59 LINE SMOOTH",
"853 -66 OFFCURVE",
"824 -91 OFFCURVE",
"663 -107 CURVE",
"684 -220 LINE"
);
},
{
closed = 1;
nodes = (
"993 603 LINE",
"993 730 LINE",
"853 730 LINE",
"853 603 LINE"
);
}
);
vertWidth = 1000;
width = 1069;
}
);
leftKerningGroup = H;
rightKerningGroup = g;
unicode = 01CB;
},
{
glyphname = Ntilde;
lastChange = "2021-04-05 02:52:33 +0000";
layers = (
{
components = (
{
name = N;
},
{
name = tildecomb;
transform = "{1, 0, 0, 1, 157, 210}";
}
);
layerId = "D65C9A1E-0FCA-4B2D-8EDF-9F36CA9182A1";
width = 500;
},
{
layerId = "E27A6A66-A1F8-4E1B-8224-7C0FE77551F2";
paths = (
{
closed = 1;
nodes = (
"173 0 LINE",
"173 603 LINE",
"175 603 LINE",
"570 0 LINE",
"660 0 LINE",
"660 730 LINE",
"580 730 LINE",
"580 127 LINE",
"578 127 LINE",
"184 730 LINE",
"93 730 LINE",
"93 0 LINE"
);
},
{
closed = 1;
nodes = (
"556 794 OFFCURVE",
"587 850 OFFCURVE",
"587 959 CURVE",
"514 959 LINE",
"514 896 OFFCURVE",
"502 866 OFFCURVE",
"479 866 CURVE SMOOTH",
"461 866 OFFCURVE",
"426 883 OFFCURVE",
"383 914 CURVE SMOOTH",
"328 953 OFFCURVE",
"290 970 OFFCURVE",
"258 970 CURVE SMOOTH",
"198 970 OFFCURVE",
"167 914 OFFCURVE",
"167 805 CURVE",
"240 805 LINE",
"240 868 OFFCURVE",
"252 898 OFFCURVE",
"275 898 CURVE SMOOTH",
"293 898 OFFCURVE",
"328 881 OFFCURVE",
"371 850 CURVE SMOOTH",
"426 811 OFFCURVE",
"464 794 OFFCURVE",
"496 794 CURVE SMOOTH"
);
}
);
vertWidth = 1000;
width = 753;
},
{
layerId = "FC9CFCDA-9E80-4E73-BA51-8504D15957FA";
paths = (
{
closed = 1;
nodes = (
"217 0 LINE",
"217 497 LINE",
"219 497 LINE",
"523 0 LINE",
"670 0 LINE",
"670 730 LINE",
"530 730 LINE",
"530 233 LINE",
"528 233 LINE",
"223 730 LINE",
"77 730 LINE",
"77 0 LINE"
);
},
{
closed = 1;
nodes = (
"566 784 OFFCURVE",
"603 849 OFFCURVE",
"603 978 CURVE",
"487 978 LINE",
"487 923 OFFCURVE",
"480 901 OFFCURVE",
"461 901 CURVE SMOOTH",
"446 901 OFFCURVE",
"419 914 OFFCURVE",
"385 936 CURVE SMOOTH",
"330 970 OFFCURVE",
"289 986 OFFCURVE",
"253 986 CURVE SMOOTH",
"180 986 OFFCURVE",
"143 921 OFFCURVE",
"143 793 CURVE",
"259 793 LINE",
"259 848 OFFCURVE",
"266 869 OFFCURVE",
"285 869 CURVE SMOOTH",
"300 869 OFFCURVE",
"327 856 OFFCURVE",
"361 835 CURVE SMOOTH",
"416 800 OFFCURVE",
"457 784 OFFCURVE",
"493 784 CURVE SMOOTH"
);
}
);
vertWidth = 1000;
width = 747;
}
);
leftKerningGroup = H;
rightKerningGroup = H;
unicode = 00D1;
},
{
color = 10;
glyphname = O;
lastChange = "2021-04-10 02:32:21 +0000";
layers = (
{
layerId = "D65C9A1E-0FCA-4B2D-8EDF-9F36CA9182A1";
paths = (
{
closed = 1;
nodes = (
"393 -10 OFFCURVE",
"445 82 OFFCURVE",
"445 335 CURVE SMOOTH",
"445 395 LINE SMOOTH",
"445 648 OFFCURVE",
"393 740 OFFCURVE",
"250 740 CURVE SMOOTH",
"107 740 OFFCURVE",
"55 648 OFFCURVE",
"55 395 CURVE SMOOTH",
"55 335 LINE SMOOTH",
"55 82 OFFCURVE",
"107 -10 OFFCURVE",
"250 -10 CURVE SMOOTH"
);
},
{
closed = 1;
nodes = (
"120 10 OFFCURVE",
"75 93 OFFCURVE",
"75 335 CURVE SMOOTH",
"75 395 LINE SMOOTH",
"75 637 OFFCURVE",
"120 720 OFFCURVE",
"250 720 CURVE SMOOTH",
"380 720 OFFCURVE",
"425 637 OFFCURVE",
"425 395 CURVE SMOOTH",
"425 335 LINE SMOOTH",
"425 93 OFFCURVE",
"380 10 OFFCURVE",
"250 10 CURVE SMOOTH"
);
}
);
width = 500;
},
{
layerId = "E27A6A66-A1F8-4E1B-8224-7C0FE77551F2";
paths = (
{
closed = 1;
nodes = (
"404 -10 OFFCURVE",
"460 82 OFFCURVE",
"460 335 CURVE SMOOTH",
"460 395 LINE SMOOTH",
"460 648 OFFCURVE",
"404 740 OFFCURVE",
"250 740 CURVE SMOOTH",
"96 740 OFFCURVE",
"40 648 OFFCURVE",
"40 395 CURVE SMOOTH",
"40 335 LINE SMOOTH",
"40 82 OFFCURVE",
"96 -10 OFFCURVE",
"250 -10 CURVE SMOOTH"
);
},
{
closed = 1;
nodes = (
"151 62 OFFCURVE",
"122 125 OFFCURVE",
"122 340 CURVE SMOOTH",
"122 390 LINE SMOOTH",
"122 605 OFFCURVE",
"151 668 OFFCURVE",
"250 668 CURVE SMOOTH",
"349 668 OFFCURVE",
"378 605 OFFCURVE",
"378 390 CURVE SMOOTH",
"378 340 LINE SMOOTH",
"378 125 OFFCURVE",
"349 62 OFFCURVE",
"250 62 CURVE SMOOTH"
);
}
);
vertWidth = 1000;
width = 500;
},
{
layerId = "FC9CFCDA-9E80-4E73-BA51-8504D15957FA";
paths = (
{
closed = 1;
nodes = (
"415 -10 OFFCURVE",
"475 82 OFFCURVE",
"475 335 CURVE SMOOTH",
"475 395 LINE SMOOTH",
"475 648 OFFCURVE",
"415 740 OFFCURVE",
"250 740 CURVE SMOOTH",
"85 740 OFFCURVE",
"25 648 OFFCURVE",
"25 395 CURVE SMOOTH",
"25 335 LINE SMOOTH",
"25 82 OFFCURVE",
"85 -10 OFFCURVE",
"250 -10 CURVE SMOOTH"
);
},
{
closed = 1;
nodes = (
"183 114 OFFCURVE",
"169 154 OFFCURVE",
"169 345 CURVE SMOOTH",
"169 385 LINE SMOOTH",
"169 576 OFFCURVE",
"183 616 OFFCURVE",
"250 616 CURVE SMOOTH",
"317 616 OFFCURVE",
"331 576 OFFCURVE",
"331 385 CURVE SMOOTH",
"331 345 LINE SMOOTH",
"331 154 OFFCURVE",
"317 114 OFFCURVE",
"250 114 CURVE SMOOTH"
);
}
);
vertWidth = 1000;
width = 500;
}
);
leftKerningGroup = O;
rightKerningGroup = O;
rightMetricsKey = "=|";
unicode = 004F;
},
{
glyphname = Oacute;
lastChange = "2021-04-04 02:12:22 +0000";
layers = (
{
components = (
{
name = O;
},
{
name = acutecomb;
transform = "{1, 0, 0, 1, 299, 210}";
}
);
layerId = "D65C9A1E-0FCA-4B2D-8EDF-9F36CA9182A1";
width = 500;
},
{
layerId = "E27A6A66-A1F8-4E1B-8224-7C0FE77551F2";
paths = (
{
closed = 1;
nodes = (
"646 -10 OFFCURVE",
"794 138 OFFCURVE",
"794 365 CURVE SMOOTH",
"794 592 OFFCURVE",
"646 740 OFFCURVE",
"420 740 CURVE SMOOTH",
"194 740 OFFCURVE",
"47 592 OFFCURVE",
"47 365 CURVE SMOOTH",
"47 138 OFFCURVE",
"194 -10 OFFCURVE",
"420 -10 CURVE SMOOTH"
);
},
{
closed = 1;
nodes = (
"242 63 OFFCURVE",
"129 181 OFFCURVE",
"129 365 CURVE SMOOTH",
"129 549 OFFCURVE",
"242 667 OFFCURVE",
"420 667 CURVE SMOOTH",
"598 667 OFFCURVE",
"712 549 OFFCURVE",
"712 365 CURVE SMOOTH",
"712 181 OFFCURVE",
"598 63 OFFCURVE",
"420 63 CURVE SMOOTH"
);
},
{
closed = 1;
nodes = (
"408 780 LINE",
"529 1000 LINE",
"428 1000 LINE",
"327 780 LINE"
);
}
);
vertWidth = 1000;
width = 841;
},
{
layerId = "FC9CFCDA-9E80-4E73-BA51-8504D15957FA";
paths = (
{
closed = 1;
nodes = (
"648 -10 OFFCURVE",
"792 134 OFFCURVE",
"792 365 CURVE SMOOTH",
"792 596 OFFCURVE",
"648 740 OFFCURVE",
"415 740 CURVE SMOOTH",
"183 740 OFFCURVE",
"39 596 OFFCURVE",
"39 365 CURVE SMOOTH",
"39 134 OFFCURVE",
"183 -10 OFFCURVE",
"415 -10 CURVE SMOOTH"
);
},
{
closed = 1;
nodes = (
"268 113 OFFCURVE",
"182 206 OFFCURVE",
"182 365 CURVE SMOOTH",
"182 524 OFFCURVE",
"268 617 OFFCURVE",
"415 617 CURVE SMOOTH",
"562 617 OFFCURVE",
"648 524 OFFCURVE",
"648 365 CURVE SMOOTH",
"648 206 OFFCURVE",
"562 113 OFFCURVE",
"415 113 CURVE SMOOTH"
);
},
{
closed = 1;
nodes = (
"437 780 LINE",
"557 1000 LINE",
"387 1000 LINE",
"307 780 LINE"
);
}
);
vertWidth = 1000;
width = 831;
}
);
leftKerningGroup = O;
rightKerningGroup = O;
unicode = 00D3;
},
{
glyphname = Obreve;
lastChange = "2021-04-04 02:12:22 +0000";
layers = (
{
components = (
{
name = O;
},
{
name = brevecomb;
transform = "{1, 0, 0, 1, 215, 210}";
}
);
layerId = "D65C9A1E-0FCA-4B2D-8EDF-9F36CA9182A1";
width = 500;
},
{
layerId = "E27A6A66-A1F8-4E1B-8224-7C0FE77551F2";
paths = (
{
closed = 1;
nodes = (
"646 -10 OFFCURVE",
"794 138 OFFCURVE",
"794 365 CURVE SMOOTH",
"794 592 OFFCURVE",
"646 740 OFFCURVE",
"420 740 CURVE SMOOTH",
"194 740 OFFCURVE",
"47 592 OFFCURVE",
"47 365 CURVE SMOOTH",
"47 138 OFFCURVE",
"194 -10 OFFCURVE",
"420 -10 CURVE SMOOTH"
);
},
{
closed = 1;
nodes = (
"242 63 OFFCURVE",
"129 181 OFFCURVE",
"129 365 CURVE SMOOTH",
"129 549 OFFCURVE",
"242 667 OFFCURVE",
"420 667 CURVE SMOOTH",
"598 667 OFFCURVE",
"712 549 OFFCURVE",
"712 365 CURVE SMOOTH",
"712 181 OFFCURVE",
"598 63 OFFCURVE",
"420 63 CURVE SMOOTH"
);
},
{
closed = 1;
nodes = (
"535 787 OFFCURVE",
"620 860 OFFCURVE",
"631 967 CURVE",
"546 967 LINE",
"534 894 OFFCURVE",
"488 851 OFFCURVE",
"421 851 CURVE SMOOTH",
"353 851 OFFCURVE",
"305 894 OFFCURVE",
"295 967 CURVE",
"211 967 LINE",
"220 860 OFFCURVE",
"305 787 OFFCURVE",
"421 787 CURVE SMOOTH"
);
}
);
vertWidth = 1000;
width = 841;
},
{
layerId = "FC9CFCDA-9E80-4E73-BA51-8504D15957FA";
paths = (
{
closed = 1;
nodes = (
"648 -10 OFFCURVE",
"792 134 OFFCURVE",
"792 365 CURVE SMOOTH",
"792 596 OFFCURVE",
"648 740 OFFCURVE",
"415 740 CURVE SMOOTH",
"183 740 OFFCURVE",
"39 596 OFFCURVE",
"39 365 CURVE SMOOTH",
"39 134 OFFCURVE",
"183 -10 OFFCURVE",
"415 -10 CURVE SMOOTH"
);
},
{
closed = 1;
nodes = (
"268 113 OFFCURVE",
"182 206 OFFCURVE",
"182 365 CURVE SMOOTH",
"182 524 OFFCURVE",
"268 617 OFFCURVE",
"415 617 CURVE SMOOTH",
"562 617 OFFCURVE",
"648 524 OFFCURVE",
"648 365 CURVE SMOOTH",
"648 206 OFFCURVE",
"562 113 OFFCURVE",
"415 113 CURVE SMOOTH"
);
},
{
closed = 1;
nodes = (
"545 773 OFFCURVE",
"640 856 OFFCURVE",
"646 973 CURVE",
"511 973 LINE",
"502 909 OFFCURVE",
"469 874 OFFCURVE",
"416 874 CURVE SMOOTH",
"362 874 OFFCURVE",
"328 909 OFFCURVE",
"320 973 CURVE",
"186 973 LINE",
"190 856 OFFCURVE",
"285 773 OFFCURVE",
"416 773 CURVE SMOOTH"
);
}
);
vertWidth = 1000;
width = 831;
}
);
leftKerningGroup = O;
rightKerningGroup = O;
unicode = 014E;
},
{
glyphname = Ocircumflex;
lastChange = "2021-04-04 02:12:22 +0000";
layers = (
{
components = (
{
name = O;
},
{
name = circumflexcomb;
transform = "{1, 0, 0, 1, 220, 210}";
}
);
layerId = "D65C9A1E-0FCA-4B2D-8EDF-9F36CA9182A1";
width = 500;
},
{
layerId = "E27A6A66-A1F8-4E1B-8224-7C0FE77551F2";
paths = (
{
closed = 1;
nodes = (
"646 -10 OFFCURVE",
"794 138 OFFCURVE",
"794 365 CURVE SMOOTH",
"794 592 OFFCURVE",
"646 740 OFFCURVE",
"420 740 CURVE SMOOTH",
"194 740 OFFCURVE",
"47 592 OFFCURVE",
"47 365 CURVE SMOOTH",
"47 138 OFFCURVE",
"194 -10 OFFCURVE",
"420 -10 CURVE SMOOTH"
);
},
{
closed = 1;
nodes = (
"242 63 OFFCURVE",
"129 181 OFFCURVE",
"129 365 CURVE SMOOTH",
"129 549 OFFCURVE",
"242 667 OFFCURVE",
"420 667 CURVE SMOOTH",
"598 667 OFFCURVE",
"712 549 OFFCURVE",
"712 365 CURVE SMOOTH",
"712 181 OFFCURVE",
"598 63 OFFCURVE",
"420 63 CURVE SMOOTH"
);
},
{
closed = 1;
nodes = (
"310 780 LINE",
"419 962 LINE",
"421 962 LINE",
"530 780 LINE",
"625 780 LINE",
"489 1000 LINE",
"350 1000 LINE",
"215 780 LINE"
);
}
);
vertWidth = 1000;
width = 841;
},
{
layerId = "FC9CFCDA-9E80-4E73-BA51-8504D15957FA";
paths = (
{
closed = 1;
nodes = (
"648 -10 OFFCURVE",
"792 134 OFFCURVE",
"792 365 CURVE SMOOTH",
"792 596 OFFCURVE",
"648 740 OFFCURVE",
"415 740 CURVE SMOOTH",
"183 740 OFFCURVE",
"39 596 OFFCURVE",
"39 365 CURVE SMOOTH",
"39 134 OFFCURVE",
"183 -10 OFFCURVE",
"415 -10 CURVE SMOOTH"
);
},
{
closed = 1;
nodes = (
"268 113 OFFCURVE",
"182 206 OFFCURVE",
"182 365 CURVE SMOOTH",
"182 524 OFFCURVE",
"268 617 OFFCURVE",
"415 617 CURVE SMOOTH",
"562 617 OFFCURVE",
"648 524 OFFCURVE",
"648 365 CURVE SMOOTH",
"648 206 OFFCURVE",
"562 113 OFFCURVE",
"415 113 CURVE SMOOTH"
);
},
{
closed = 1;
nodes = (
"335 780 LINE",
"415 940 LINE",
"417 940 LINE",
"496 780 LINE",
"653 780 LINE",
"530 1000 LINE",
"301 1000 LINE",
"178 780 LINE"
);
}
);
vertWidth = 1000;
width = 831;
}
);
leftKerningGroup = O;
rightKerningGroup = O;
unicode = 00D4;
},
{
glyphname = Ocircumflexacute;
lastChange = "2021-04-04 02:12:22 +0000";
layers = (
{
components = (
{
name = O;
},
{
name = circumflexcomb;
transform = "{1, 0, 0, 1, 220, 210}";
},
{
anchor = top_acR;
name = acutecomb;
transform = "{1, 0, 0, 1, 443, 390}";
}
);
layerId = "D65C9A1E-0FCA-4B2D-8EDF-9F36CA9182A1";
width = 500;
},
{
layerId = "E27A6A66-A1F8-4E1B-8224-7C0FE77551F2";
paths = (
{
closed = 1;
nodes = (
"646 -10 OFFCURVE",
"794 138 OFFCURVE",
"794 365 CURVE SMOOTH",
"794 592 OFFCURVE",
"646 740 OFFCURVE",
"420 740 CURVE SMOOTH",
"194 740 OFFCURVE",
"47 592 OFFCURVE",
"47 365 CURVE SMOOTH",
"47 138 OFFCURVE",
"194 -10 OFFCURVE",
"420 -10 CURVE SMOOTH"
);
},
{
closed = 1;
nodes = (
"242 63 OFFCURVE",
"129 181 OFFCURVE",
"129 365 CURVE SMOOTH",
"129 549 OFFCURVE",
"242 667 OFFCURVE",
"420 667 CURVE SMOOTH",
"598 667 OFFCURVE",
"712 549 OFFCURVE",
"712 365 CURVE SMOOTH",
"712 181 OFFCURVE",
"598 63 OFFCURVE",
"420 63 CURVE SMOOTH"
);
},
{
closed = 1;
nodes = (
"310 780 LINE",
"419 962 LINE",
"421 962 LINE",
"530 780 LINE",
"625 780 LINE",
"489 1000 LINE",
"350 1000 LINE",
"215 780 LINE"
);
},
{
closed = 1;
nodes = (
"575 960 LINE",
"696 1180 LINE",
"595 1180 LINE",
"494 960 LINE"
);
}
);
vertWidth = 1000;
width = 841;
},
{
layerId = "FC9CFCDA-9E80-4E73-BA51-8504D15957FA";
paths = (
{
closed = 1;
nodes = (
"648 -10 OFFCURVE",
"792 134 OFFCURVE",
"792 365 CURVE SMOOTH",
"792 596 OFFCURVE",
"648 740 OFFCURVE",
"415 740 CURVE SMOOTH",
"183 740 OFFCURVE",
"39 596 OFFCURVE",
"39 365 CURVE SMOOTH",
"39 134 OFFCURVE",
"183 -10 OFFCURVE",
"415 -10 CURVE SMOOTH"
);
},
{
closed = 1;
nodes = (
"268 113 OFFCURVE",
"182 206 OFFCURVE",
"182 365 CURVE SMOOTH",
"182 524 OFFCURVE",
"268 617 OFFCURVE",
"415 617 CURVE SMOOTH",
"562 617 OFFCURVE",
"648 524 OFFCURVE",
"648 365 CURVE SMOOTH",
"648 206 OFFCURVE",
"562 113 OFFCURVE",
"415 113 CURVE SMOOTH"
);
},
{
closed = 1;
nodes = (
"335 780 LINE",
"415 940 LINE",
"417 940 LINE",
"496 780 LINE",
"653 780 LINE",
"530 1000 LINE",
"301 1000 LINE",
"178 780 LINE"
);
},
{
closed = 1;
nodes = (
"634 960 LINE",
"754 1180 LINE",
"584 1180 LINE",
"504 960 LINE"
);
}
);
vertWidth = 1000;
width = 831;
}
);
leftKerningGroup = O;
rightKerningGroup = O;
unicode = 1ED0;
},
{
glyphname = Ocircumflexdotbelow;
lastChange = "2021-04-04 02:12:22 +0000";
layers = (
{
components = (
{
name = O;
},
{
name = dotbelowcomb;
transform = "{1, 0, 0, 1, 362, -44}";
},
{
name = circumflexcomb;
transform = "{1, 0, 0, 1, 220, 210}";
}
);
layerId = "D65C9A1E-0FCA-4B2D-8EDF-9F36CA9182A1";
width = 500;
},
{
layerId = "E27A6A66-A1F8-4E1B-8224-7C0FE77551F2";
paths = (
{
closed = 1;
nodes = (
"646 -10 OFFCURVE",
"794 138 OFFCURVE",
"794 365 CURVE SMOOTH",
"794 592 OFFCURVE",
"646 740 OFFCURVE",
"420 740 CURVE SMOOTH",
"194 740 OFFCURVE",
"47 592 OFFCURVE",
"47 365 CURVE SMOOTH",
"47 138 OFFCURVE",
"194 -10 OFFCURVE",
"420 -10 CURVE SMOOTH"
);
},
{
closed = 1;
nodes = (
"472 -197 LINE",
"472 -93 LINE",
"368 -93 LINE",
"368 -197 LINE"
);
},
{
closed = 1;
nodes = (
"242 63 OFFCURVE",
"129 181 OFFCURVE",
"129 365 CURVE SMOOTH",
"129 549 OFFCURVE",
"242 667 OFFCURVE",
"420 667 CURVE SMOOTH",
"598 667 OFFCURVE",
"712 549 OFFCURVE",
"712 365 CURVE SMOOTH",
"712 181 OFFCURVE",
"598 63 OFFCURVE",
"420 63 CURVE SMOOTH"
);
},
{
closed = 1;
nodes = (
"310 780 LINE",
"419 962 LINE",
"421 962 LINE",
"530 780 LINE",
"625 780 LINE",
"489 1000 LINE",
"350 1000 LINE",
"215 780 LINE"
);
}
);
vertWidth = 1000;
width = 841;
},
{
layerId = "FC9CFCDA-9E80-4E73-BA51-8504D15957FA";
paths = (
{
closed = 1;
nodes = (
"648 -10 OFFCURVE",
"792 134 OFFCURVE",
"792 365 CURVE SMOOTH",
"792 596 OFFCURVE",
"648 740 OFFCURVE",
"415 740 CURVE SMOOTH",
"183 740 OFFCURVE",
"39 596 OFFCURVE",
"39 365 CURVE SMOOTH",
"39 134 OFFCURVE",
"183 -10 OFFCURVE",
"415 -10 CURVE SMOOTH"
);
},
{
closed = 1;
nodes = (
"489 -219 LINE",
"489 -71 LINE",
"342 -71 LINE",
"342 -219 LINE"
);
},
{
closed = 1;
nodes = (
"268 113 OFFCURVE",
"182 206 OFFCURVE",
"182 365 CURVE SMOOTH",
"182 524 OFFCURVE",
"268 617 OFFCURVE",
"415 617 CURVE SMOOTH",
"562 617 OFFCURVE",
"648 524 OFFCURVE",
"648 365 CURVE SMOOTH",
"648 206 OFFCURVE",
"562 113 OFFCURVE",
"415 113 CURVE SMOOTH"
);
},
{
closed = 1;
nodes = (
"335 780 LINE",
"415 940 LINE",
"417 940 LINE",
"496 780 LINE",
"653 780 LINE",
"530 1000 LINE",
"301 1000 LINE",
"178 780 LINE"
);
}
);
vertWidth = 1000;
width = 831;
}
);
leftKerningGroup = O;
rightKerningGroup = O;
unicode = 1ED8;
},
{
glyphname = Ocircumflexgrave;
lastChange = "2021-04-04 02:12:22 +0000";
layers = (
{
components = (
{
name = O;
},
{
name = circumflexcomb;
transform = "{1, 0, 0, 1, 220, 210}";
},
{
anchor = top_grL;
name = gravecomb;
transform = "{1, 0, 0, 1, 171, 390}";
}
);
layerId = "D65C9A1E-0FCA-4B2D-8EDF-9F36CA9182A1";
width = 500;
},
{
layerId = "E27A6A66-A1F8-4E1B-8224-7C0FE77551F2";
paths = (
{
closed = 1;
nodes = (
"646 -10 OFFCURVE",
"794 138 OFFCURVE",
"794 365 CURVE SMOOTH",
"794 592 OFFCURVE",
"646 740 OFFCURVE",
"420 740 CURVE SMOOTH",
"194 740 OFFCURVE",
"47 592 OFFCURVE",
"47 365 CURVE SMOOTH",
"47 138 OFFCURVE",
"194 -10 OFFCURVE",
"420 -10 CURVE SMOOTH"
);
},
{
closed = 1;
nodes = (
"242 63 OFFCURVE",
"129 181 OFFCURVE",
"129 365 CURVE SMOOTH",
"129 549 OFFCURVE",
"242 667 OFFCURVE",
"420 667 CURVE SMOOTH",
"598 667 OFFCURVE",
"712 549 OFFCURVE",
"712 365 CURVE SMOOTH",
"712 181 OFFCURVE",
"598 63 OFFCURVE",
"420 63 CURVE SMOOTH"
);
},
{
closed = 1;
nodes = (
"310 780 LINE",
"419 962 LINE",
"421 962 LINE",
"530 780 LINE",
"625 780 LINE",
"489 1000 LINE",
"350 1000 LINE",
"215 780 LINE"
);
},
{
closed = 1;
nodes = (
"342 960 LINE",
"241 1180 LINE",
"140 1180 LINE",
"261 960 LINE"
);
}
);
vertWidth = 1000;
width = 841;
},
{
layerId = "FC9CFCDA-9E80-4E73-BA51-8504D15957FA";
paths = (
{
closed = 1;
nodes = (
"648 -10 OFFCURVE",
"792 134 OFFCURVE",
"792 365 CURVE SMOOTH",
"792 596 OFFCURVE",
"648 740 OFFCURVE",
"415 740 CURVE SMOOTH",
"183 740 OFFCURVE",
"39 596 OFFCURVE",
"39 365 CURVE SMOOTH",
"39 134 OFFCURVE",
"183 -10 OFFCURVE",
"415 -10 CURVE SMOOTH"
);
},
{
closed = 1;
nodes = (
"268 113 OFFCURVE",
"182 206 OFFCURVE",
"182 365 CURVE SMOOTH",
"182 524 OFFCURVE",
"268 617 OFFCURVE",
"415 617 CURVE SMOOTH",
"562 617 OFFCURVE",
"648 524 OFFCURVE",
"648 365 CURVE SMOOTH",
"648 206 OFFCURVE",
"562 113 OFFCURVE",
"415 113 CURVE SMOOTH"
);
},
{
closed = 1;
nodes = (
"324 960 LINE",
"243 1180 LINE",
"73 1180 LINE",
"194 960 LINE"
);
},
{
closed = 1;
nodes = (
"335 780 LINE",
"415 940 LINE",
"417 940 LINE",
"496 780 LINE",
"653 780 LINE",
"530 1000 LINE",
"301 1000 LINE",
"178 780 LINE"
);
}
);
vertWidth = 1000;
width = 831;
}
);
leftKerningGroup = O;
rightKerningGroup = O;
unicode = 1ED2;
},
{
glyphname = Ocircumflexhookabove;
lastChange = "2021-04-04 02:12:22 +0000";
layers = (
{
components = (
{
name = O;
},
{
name = circumflexcomb;
transform = "{1, 0, 0, 1, 220, 210}";
},
{
anchor = top_hkR;
name = hookabovecomb;
transform = "{1, 0, 0, 1, 247, 390}";
}
);
layerId = "D65C9A1E-0FCA-4B2D-8EDF-9F36CA9182A1";
width = 500;
},
{
layerId = "E27A6A66-A1F8-4E1B-8224-7C0FE77551F2";
paths = (
{
closed = 1;
nodes = (
"646 -10 OFFCURVE",
"794 138 OFFCURVE",
"794 365 CURVE SMOOTH",
"794 592 OFFCURVE",
"646 740 OFFCURVE",
"420 740 CURVE SMOOTH",
"194 740 OFFCURVE",
"47 592 OFFCURVE",
"47 365 CURVE SMOOTH",
"47 138 OFFCURVE",
"194 -10 OFFCURVE",
"420 -10 CURVE SMOOTH"
);
},
{
closed = 1;
nodes = (
"242 63 OFFCURVE",
"129 181 OFFCURVE",
"129 365 CURVE SMOOTH",
"129 549 OFFCURVE",
"242 667 OFFCURVE",
"420 667 CURVE SMOOTH",
"598 667 OFFCURVE",
"712 549 OFFCURVE",
"712 365 CURVE SMOOTH",
"712 181 OFFCURVE",
"598 63 OFFCURVE",
"420 63 CURVE SMOOTH"
);
},
{
closed = 1;
nodes = (
"310 780 LINE",
"419 962 LINE",
"421 962 LINE",
"530 780 LINE",
"625 780 LINE",
"489 1000 LINE",
"350 1000 LINE",
"215 780 LINE"
);
},
{
closed = 1;
nodes = (
"600 983 LINE",
"613 1012 OFFCURVE",
"622 1054 OFFCURVE",
"622 1083 CURVE SMOOTH",
"622 1144 OFFCURVE",
"581 1163 OFFCURVE",
"453 1163 CURVE SMOOTH",
"395 1163 OFFCURVE",
"340 1157 OFFCURVE",
"285 1146 CURVE",
"293 1081 LINE",
"344 1094 OFFCURVE",
"389 1099 OFFCURVE",
"437 1099 CURVE SMOOTH",
"516 1099 OFFCURVE",
"537 1090 OFFCURVE",
"537 1057 CURVE SMOOTH",
"537 1038 OFFCURVE",
"530 1008 OFFCURVE",
"520 983 CURVE"
);
}
);
vertWidth = 1000;
width = 841;
},
{
layerId = "FC9CFCDA-9E80-4E73-BA51-8504D15957FA";
paths = (
{
closed = 1;
nodes = (
"648 -10 OFFCURVE",
"792 134 OFFCURVE",
"792 365 CURVE SMOOTH",
"792 596 OFFCURVE",
"648 740 OFFCURVE",
"415 740 CURVE SMOOTH",
"183 740 OFFCURVE",
"39 596 OFFCURVE",
"39 365 CURVE SMOOTH",
"39 134 OFFCURVE",
"183 -10 OFFCURVE",
"415 -10 CURVE SMOOTH"
);
},
{
closed = 1;
nodes = (
"268 113 OFFCURVE",
"182 206 OFFCURVE",
"182 365 CURVE SMOOTH",
"182 524 OFFCURVE",
"268 617 OFFCURVE",
"415 617 CURVE SMOOTH",
"562 617 OFFCURVE",
"648 524 OFFCURVE",
"648 365 CURVE SMOOTH",
"648 206 OFFCURVE",
"562 113 OFFCURVE",
"415 113 CURVE SMOOTH"
);
},
{
closed = 1;
nodes = (
"335 780 LINE",
"415 940 LINE",
"417 940 LINE",
"496 780 LINE",
"653 780 LINE",
"530 1000 LINE",
"301 1000 LINE",
"178 780 LINE"
);
},
{
closed = 1;
nodes = (
"630 992 LINE",
"644 1024 OFFCURVE",
"653 1072 OFFCURVE",
"653 1105 CURVE SMOOTH",
"653 1172 OFFCURVE",
"612 1192 OFFCURVE",
"472 1192 CURVE SMOOTH",
"412 1192 OFFCURVE",
"345 1185 OFFCURVE",
"290 1174 CURVE",
"302 1071 LINE",
"352 1085 OFFCURVE",
"402 1092 OFFCURVE",
"447 1092 CURVE SMOOTH",
"503 1092 OFFCURVE",
"517 1085 OFFCURVE",
"517 1057 CURVE SMOOTH",
"517 1040 OFFCURVE",
"512 1015 OFFCURVE",
"504 992 CURVE"
);
}
);
vertWidth = 1000;
width = 831;
}
);
leftKerningGroup = O;
rightKerningGroup = O;
unicode = 1ED4;
},
{
glyphname = Ocircumflextilde;
lastChange = "2021-04-04 02:12:22 +0000";
layers = (
{
components = (
{
name = O;
},
{
name = circumflexcomb;
transform = "{1, 0, 0, 1, 220, 210}";
},
{
anchor = top_td;
name = tildecomb;
transform = "{1, 0, 0, 1, 202, 409}";
}
);
layerId = "D65C9A1E-0FCA-4B2D-8EDF-9F36CA9182A1";
width = 500;
},
{
layerId = "E27A6A66-A1F8-4E1B-8224-7C0FE77551F2";
paths = (
{
closed = 1;
nodes = (
"646 -10 OFFCURVE",
"794 138 OFFCURVE",
"794 365 CURVE SMOOTH",
"794 592 OFFCURVE",
"646 740 OFFCURVE",
"420 740 CURVE SMOOTH",
"194 740 OFFCURVE",
"47 592 OFFCURVE",
"47 365 CURVE SMOOTH",
"47 138 OFFCURVE",
"194 -10 OFFCURVE",
"420 -10 CURVE SMOOTH"
);
},
{
closed = 1;
nodes = (
"242 63 OFFCURVE",
"129 181 OFFCURVE",
"129 365 CURVE SMOOTH",
"129 549 OFFCURVE",
"242 667 OFFCURVE",
"420 667 CURVE SMOOTH",
"598 667 OFFCURVE",
"712 549 OFFCURVE",
"712 365 CURVE SMOOTH",
"712 181 OFFCURVE",
"598 63 OFFCURVE",
"420 63 CURVE SMOOTH"
);
},
{
closed = 1;
nodes = (
"310 780 LINE",
"419 962 LINE",
"421 962 LINE",
"530 780 LINE",
"625 780 LINE",
"489 1000 LINE",
"350 1000 LINE",
"215 780 LINE"
);
},
{
closed = 1;
nodes = (
"599 1014 OFFCURVE",
"630 1070 OFFCURVE",
"630 1179 CURVE",
"557 1179 LINE",
"557 1116 OFFCURVE",
"545 1086 OFFCURVE",
"522 1086 CURVE SMOOTH",
"504 1086 OFFCURVE",
"469 1103 OFFCURVE",
"426 1134 CURVE SMOOTH",
"371 1173 OFFCURVE",
"333 1190 OFFCURVE",
"301 1190 CURVE SMOOTH",
"241 1190 OFFCURVE",
"210 1134 OFFCURVE",
"210 1025 CURVE",
"283 1025 LINE",
"283 1088 OFFCURVE",
"295 1118 OFFCURVE",
"318 1118 CURVE SMOOTH",
"336 1118 OFFCURVE",
"371 1101 OFFCURVE",
"414 1070 CURVE SMOOTH",
"469 1031 OFFCURVE",
"507 1014 OFFCURVE",
"539 1014 CURVE SMOOTH"
);
}
);
vertWidth = 1000;
width = 841;
},
{
layerId = "FC9CFCDA-9E80-4E73-BA51-8504D15957FA";
paths = (
{
closed = 1;
nodes = (
"648 -10 OFFCURVE",
"792 134 OFFCURVE",
"792 365 CURVE SMOOTH",
"792 596 OFFCURVE",
"648 740 OFFCURVE",
"415 740 CURVE SMOOTH",
"183 740 OFFCURVE",
"39 596 OFFCURVE",
"39 365 CURVE SMOOTH",
"39 134 OFFCURVE",
"183 -10 OFFCURVE",
"415 -10 CURVE SMOOTH"
);
},
{
closed = 1;
nodes = (
"268 113 OFFCURVE",
"182 206 OFFCURVE",
"182 365 CURVE SMOOTH",
"182 524 OFFCURVE",
"268 617 OFFCURVE",
"415 617 CURVE SMOOTH",
"562 617 OFFCURVE",
"648 524 OFFCURVE",
"648 365 CURVE SMOOTH",
"648 206 OFFCURVE",
"562 113 OFFCURVE",
"415 113 CURVE SMOOTH"
);
},
{
closed = 1;
nodes = (
"335 780 LINE",
"415 940 LINE",
"417 940 LINE",
"496 780 LINE",
"653 780 LINE",
"530 1000 LINE",
"301 1000 LINE",
"178 780 LINE"
);
},
{
closed = 1;
nodes = (
"608 1024 OFFCURVE",
"645 1089 OFFCURVE",
"645 1218 CURVE",
"529 1218 LINE",
"529 1163 OFFCURVE",
"522 1141 OFFCURVE",
"503 1141 CURVE SMOOTH",
"488 1141 OFFCURVE",
"461 1154 OFFCURVE",
"427 1176 CURVE SMOOTH",
"372 1210 OFFCURVE",
"331 1226 OFFCURVE",
"295 1226 CURVE SMOOTH",
"222 1226 OFFCURVE",
"185 1161 OFFCURVE",
"185 1033 CURVE",
"301 1033 LINE",
"301 1088 OFFCURVE",
"308 1109 OFFCURVE",
"327 1109 CURVE SMOOTH",
"342 1109 OFFCURVE",
"369 1096 OFFCURVE",
"403 1075 CURVE SMOOTH",
"458 1040 OFFCURVE",
"499 1024 OFFCURVE",
"535 1024 CURVE SMOOTH"
);
}
);
vertWidth = 1000;
width = 831;
}
);
leftKerningGroup = O;
rightKerningGroup = O;
unicode = 1ED6;
},
{
glyphname = Odblgrave;
lastChange = "2021-04-04 02:12:22 +0000";
layers = (
{
components = (
{
name = O;
},
{
name = dblgravecomb;
transform = "{1, 0, 0, 1, 214, 210}";
}
);
layerId = "D65C9A1E-0FCA-4B2D-8EDF-9F36CA9182A1";
width = 500;
},
{
layerId = "E27A6A66-A1F8-4E1B-8224-7C0FE77551F2";
paths = (
{
closed = 1;
nodes = (
"646 -10 OFFCURVE",
"794 138 OFFCURVE",
"794 365 CURVE SMOOTH",
"794 592 OFFCURVE",
"646 740 OFFCURVE",
"420 740 CURVE SMOOTH",
"194 740 OFFCURVE",
"47 592 OFFCURVE",
"47 365 CURVE SMOOTH",
"47 138 OFFCURVE",
"194 -10 OFFCURVE",
"420 -10 CURVE SMOOTH"
);
},
{
closed = 1;
nodes = (
"242 63 OFFCURVE",
"129 181 OFFCURVE",
"129 365 CURVE SMOOTH",
"129 549 OFFCURVE",
"242 667 OFFCURVE",
"420 667 CURVE SMOOTH",
"598 667 OFFCURVE",
"712 549 OFFCURVE",
"712 365 CURVE SMOOTH",
"712 181 OFFCURVE",
"598 63 OFFCURVE",
"420 63 CURVE SMOOTH"
);
},
{
closed = 1;
nodes = (
"403 780 LINE",
"306 1000 LINE",
"208 1000 LINE",
"325 780 LINE"
);
},
{
closed = 1;
nodes = (
"617 780 LINE",
"519 1000 LINE",
"421 1000 LINE",
"538 780 LINE"
);
}
);
vertWidth = 1000;
width = 841;
},
{
layerId = "FC9CFCDA-9E80-4E73-BA51-8504D15957FA";
paths = (
{
closed = 1;
nodes = (
"648 -10 OFFCURVE",
"792 134 OFFCURVE",
"792 365 CURVE SMOOTH",
"792 596 OFFCURVE",
"648 740 OFFCURVE",
"415 740 CURVE SMOOTH",
"183 740 OFFCURVE",
"39 596 OFFCURVE",
"39 365 CURVE SMOOTH",
"39 134 OFFCURVE",
"183 -10 OFFCURVE",
"415 -10 CURVE SMOOTH"
);
},
{
closed = 1;
nodes = (
"268 113 OFFCURVE",
"182 206 OFFCURVE",
"182 365 CURVE SMOOTH",
"182 524 OFFCURVE",
"268 617 OFFCURVE",
"415 617 CURVE SMOOTH",
"562 617 OFFCURVE",
"648 524 OFFCURVE",
"648 365 CURVE SMOOTH",
"648 206 OFFCURVE",
"562 113 OFFCURVE",
"415 113 CURVE SMOOTH"
);
},
{
closed = 1;
nodes = (
"405 780 LINE",
"330 1000 LINE",
"171 1000 LINE",
"284 780 LINE"
);
},
{
closed = 1;
nodes = (
"632 780 LINE",
"556 1000 LINE",
"398 1000 LINE",
"510 780 LINE"
);
}
);
vertWidth = 1000;
width = 831;
}
);
leftKerningGroup = O;
rightKerningGroup = O;
unicode = 020C;
},
{
glyphname = Odieresis;
lastChange = "2021-04-04 02:12:22 +0000";
layers = (
{
components = (
{
name = O;
},
{
name = dieresiscomb;
transform = "{1, 0, 0, 1, 242, 210}";
}
);
layerId = "D65C9A1E-0FCA-4B2D-8EDF-9F36CA9182A1";
width = 500;
},
{
layerId = "E27A6A66-A1F8-4E1B-8224-7C0FE77551F2";
paths = (
{
closed = 1;
nodes = (
"646 -10 OFFCURVE",
"794 138 OFFCURVE",
"794 365 CURVE SMOOTH",
"794 592 OFFCURVE",
"646 740 OFFCURVE",
"420 740 CURVE SMOOTH",
"194 740 OFFCURVE",
"47 592 OFFCURVE",
"47 365 CURVE SMOOTH",
"47 138 OFFCURVE",
"194 -10 OFFCURVE",
"420 -10 CURVE SMOOTH"
);
},
{
closed = 1;
nodes = (
"242 63 OFFCURVE",
"129 181 OFFCURVE",
"129 365 CURVE SMOOTH",
"129 549 OFFCURVE",
"242 667 OFFCURVE",
"420 667 CURVE SMOOTH",
"598 667 OFFCURVE",
"712 549 OFFCURVE",
"712 365 CURVE SMOOTH",
"712 181 OFFCURVE",
"598 63 OFFCURVE",
"420 63 CURVE SMOOTH"
);
},
{
closed = 1;
nodes = (
"347 823 LINE",
"347 927 LINE",
"243 927 LINE",
"243 823 LINE"
);
},
{
closed = 1;
nodes = (
"596 823 LINE",
"596 927 LINE",
"492 927 LINE",
"492 823 LINE"
);
}
);
vertWidth = 1000;
width = 841;
},
{
layerId = "FC9CFCDA-9E80-4E73-BA51-8504D15957FA";
paths = (
{
closed = 1;
nodes = (
"648 -10 OFFCURVE",
"792 134 OFFCURVE",
"792 365 CURVE SMOOTH",
"792 596 OFFCURVE",
"648 740 OFFCURVE",
"415 740 CURVE SMOOTH",
"183 740 OFFCURVE",
"39 596 OFFCURVE",
"39 365 CURVE SMOOTH",
"39 134 OFFCURVE",
"183 -10 OFFCURVE",
"415 -10 CURVE SMOOTH"
);
},
{
closed = 1;
nodes = (
"268 113 OFFCURVE",
"182 206 OFFCURVE",
"182 365 CURVE SMOOTH",
"182 524 OFFCURVE",
"268 617 OFFCURVE",
"415 617 CURVE SMOOTH",
"562 617 OFFCURVE",
"648 524 OFFCURVE",
"648 365 CURVE SMOOTH",
"648 206 OFFCURVE",
"562 113 OFFCURVE",
"415 113 CURVE SMOOTH"
);
},
{
closed = 1;
nodes = (
"358 801 LINE",
"358 949 LINE",
"211 949 LINE",
"211 801 LINE"
);
},
{
closed = 1;
nodes = (
"618 801 LINE",
"618 949 LINE",
"470 949 LINE",
"470 801 LINE"
);
}
);
vertWidth = 1000;
width = 831;
}
);
leftKerningGroup = O;
rightKerningGroup = O;
unicode = 00D6;
},
{
glyphname = Odieresismacron;
lastChange = "2021-04-04 02:12:22 +0000";
layers = (
{
components = (
{
name = O;
},
{
name = dieresiscomb;
transform = "{1, 0, 0, 1, 242, 210}";
},
{
name = macroncomb;
transform = "{1, 0, 0, 1, 225, 370}";
}
);
layerId = "D65C9A1E-0FCA-4B2D-8EDF-9F36CA9182A1";
width = 500;
},
{
layerId = "E27A6A66-A1F8-4E1B-8224-7C0FE77551F2";
paths = (
{
closed = 1;
nodes = (
"646 -10 OFFCURVE",
"794 138 OFFCURVE",
"794 365 CURVE SMOOTH",
"794 592 OFFCURVE",
"646 740 OFFCURVE",
"420 740 CURVE SMOOTH",
"194 740 OFFCURVE",
"47 592 OFFCURVE",
"47 365 CURVE SMOOTH",
"47 138 OFFCURVE",
"194 -10 OFFCURVE",
"420 -10 CURVE SMOOTH"
);
},
{
closed = 1;
nodes = (
"242 63 OFFCURVE",
"129 181 OFFCURVE",
"129 365 CURVE SMOOTH",
"129 549 OFFCURVE",
"242 667 OFFCURVE",
"420 667 CURVE SMOOTH",
"598 667 OFFCURVE",
"712 549 OFFCURVE",
"712 365 CURVE SMOOTH",
"712 181 OFFCURVE",
"598 63 OFFCURVE",
"420 63 CURVE SMOOTH"
);
},
{
closed = 1;
nodes = (
"347 823 LINE",
"347 927 LINE",
"243 927 LINE",
"243 823 LINE"
);
},
{
closed = 1;
nodes = (
"596 823 LINE",
"596 927 LINE",
"492 927 LINE",
"492 823 LINE"
);
},
{
closed = 1;
nodes = (
"602 1023 LINE",
"602 1087 LINE",
"239 1087 LINE",
"239 1023 LINE"
);
}
);
vertWidth = 1000;
width = 841;
},
{
layerId = "FC9CFCDA-9E80-4E73-BA51-8504D15957FA";
paths = (
{
closed = 1;
nodes = (
"648 -10 OFFCURVE",
"792 134 OFFCURVE",
"792 365 CURVE SMOOTH",
"792 596 OFFCURVE",
"648 740 OFFCURVE",
"415 740 CURVE SMOOTH",
"183 740 OFFCURVE",
"39 596 OFFCURVE",
"39 365 CURVE SMOOTH",
"39 134 OFFCURVE",
"183 -10 OFFCURVE",
"415 -10 CURVE SMOOTH"
);
},
{
closed = 1;
nodes = (
"268 113 OFFCURVE",
"182 206 OFFCURVE",
"182 365 CURVE SMOOTH",
"182 524 OFFCURVE",
"268 617 OFFCURVE",
"415 617 CURVE SMOOTH",
"562 617 OFFCURVE",
"648 524 OFFCURVE",
"648 365 CURVE SMOOTH",
"648 206 OFFCURVE",
"562 113 OFFCURVE",
"415 113 CURVE SMOOTH"
);
},
{
closed = 1;
nodes = (
"358 801 LINE",
"358 949 LINE",
"211 949 LINE",
"211 801 LINE"
);
},
{
closed = 1;
nodes = (
"618 801 LINE",
"618 949 LINE",
"470 949 LINE",
"470 801 LINE"
);
},
{
closed = 1;
nodes = (
"611 1023 LINE",
"611 1127 LINE",
"219 1127 LINE",
"219 1023 LINE"
);
}
);
vertWidth = 1000;
width = 831;
}
);
leftKerningGroup = O;
rightKerningGroup = O;
unicode = 022A;
},
{
glyphname = Odotaccent;
lastChange = "2021-04-04 02:12:22 +0000";
layers = (
{
components = (
{
name = O;
},
{
name = dotaccentcomb;
transform = "{1, 0, 0, 1, 362, 210}";
}
);
layerId = "D65C9A1E-0FCA-4B2D-8EDF-9F36CA9182A1";
width = 500;
},
{
layerId = "E27A6A66-A1F8-4E1B-8224-7C0FE77551F2";
paths = (
{
closed = 1;
nodes = (
"646 -10 OFFCURVE",
"794 138 OFFCURVE",
"794 365 CURVE SMOOTH",
"794 592 OFFCURVE",
"646 740 OFFCURVE",
"420 740 CURVE SMOOTH",
"194 740 OFFCURVE",
"47 592 OFFCURVE",
"47 365 CURVE SMOOTH",
"47 138 OFFCURVE",
"194 -10 OFFCURVE",
"420 -10 CURVE SMOOTH"
);
},
{
closed = 1;
nodes = (
"242 63 OFFCURVE",
"129 181 OFFCURVE",
"129 365 CURVE SMOOTH",
"129 549 OFFCURVE",
"242 667 OFFCURVE",
"420 667 CURVE SMOOTH",
"598 667 OFFCURVE",
"712 549 OFFCURVE",
"712 365 CURVE SMOOTH",
"712 181 OFFCURVE",
"598 63 OFFCURVE",
"420 63 CURVE SMOOTH"
);
},
{
closed = 1;
nodes = (
"472 823 LINE",
"472 927 LINE",
"368 927 LINE",
"368 823 LINE"
);
}
);
vertWidth = 1000;
width = 841;
},
{
layerId = "FC9CFCDA-9E80-4E73-BA51-8504D15957FA";
paths = (
{
closed = 1;
nodes = (
"648 -10 OFFCURVE",
"792 134 OFFCURVE",
"792 365 CURVE SMOOTH",
"792 596 OFFCURVE",
"648 740 OFFCURVE",
"415 740 CURVE SMOOTH",
"183 740 OFFCURVE",
"39 596 OFFCURVE",
"39 365 CURVE SMOOTH",
"39 134 OFFCURVE",
"183 -10 OFFCURVE",
"415 -10 CURVE SMOOTH"
);
},
{
closed = 1;
nodes = (
"268 113 OFFCURVE",
"182 206 OFFCURVE",
"182 365 CURVE SMOOTH",
"182 524 OFFCURVE",
"268 617 OFFCURVE",
"415 617 CURVE SMOOTH",
"562 617 OFFCURVE",
"648 524 OFFCURVE",
"648 365 CURVE SMOOTH",
"648 206 OFFCURVE",
"562 113 OFFCURVE",
"415 113 CURVE SMOOTH"
);
},
{
closed = 1;
nodes = (
"489 801 LINE",
"489 949 LINE",
"342 949 LINE",
"342 801 LINE"
);
}
);
vertWidth = 1000;
width = 831;
}
);
leftKerningGroup = O;
rightKerningGroup = O;
unicode = 022E;
},
{
glyphname = Odotaccentmacron;
lastChange = "2021-04-04 02:12:22 +0000";
layers = (
{
components = (
{
name = O;
},
{
name = dotaccentcomb;
transform = "{1, 0, 0, 1, 362, 210}";
},
{
name = macroncomb;
transform = "{1, 0, 0, 1, 225, 370}";
}
);
layerId = "D65C9A1E-0FCA-4B2D-8EDF-9F36CA9182A1";
width = 500;
},
{
layerId = "E27A6A66-A1F8-4E1B-8224-7C0FE77551F2";
paths = (
{
closed = 1;
nodes = (
"646 -10 OFFCURVE",
"794 138 OFFCURVE",
"794 365 CURVE SMOOTH",
"794 592 OFFCURVE",
"646 740 OFFCURVE",
"420 740 CURVE SMOOTH",
"194 740 OFFCURVE",
"47 592 OFFCURVE",
"47 365 CURVE SMOOTH",
"47 138 OFFCURVE",
"194 -10 OFFCURVE",
"420 -10 CURVE SMOOTH"
);
},
{
closed = 1;
nodes = (
"242 63 OFFCURVE",
"129 181 OFFCURVE",
"129 365 CURVE SMOOTH",
"129 549 OFFCURVE",
"242 667 OFFCURVE",
"420 667 CURVE SMOOTH",
"598 667 OFFCURVE",
"712 549 OFFCURVE",
"712 365 CURVE SMOOTH",
"712 181 OFFCURVE",
"598 63 OFFCURVE",
"420 63 CURVE SMOOTH"
);
},
{
closed = 1;
nodes = (
"472 823 LINE",
"472 927 LINE",
"368 927 LINE",
"368 823 LINE"
);
},
{
closed = 1;
nodes = (
"602 1023 LINE",
"602 1087 LINE",
"239 1087 LINE",
"239 1023 LINE"
);
}
);
vertWidth = 1000;
width = 841;
},
{
layerId = "FC9CFCDA-9E80-4E73-BA51-8504D15957FA";
paths = (
{
closed = 1;
nodes = (
"648 -10 OFFCURVE",
"792 134 OFFCURVE",
"792 365 CURVE SMOOTH",
"792 596 OFFCURVE",
"648 740 OFFCURVE",
"415 740 CURVE SMOOTH",
"183 740 OFFCURVE",
"39 596 OFFCURVE",
"39 365 CURVE SMOOTH",
"39 134 OFFCURVE",
"183 -10 OFFCURVE",
"415 -10 CURVE SMOOTH"
);
},
{
closed = 1;
nodes = (
"268 113 OFFCURVE",
"182 206 OFFCURVE",
"182 365 CURVE SMOOTH",
"182 524 OFFCURVE",
"268 617 OFFCURVE",
"415 617 CURVE SMOOTH",
"562 617 OFFCURVE",
"648 524 OFFCURVE",
"648 365 CURVE SMOOTH",
"648 206 OFFCURVE",
"562 113 OFFCURVE",
"415 113 CURVE SMOOTH"
);
},
{
closed = 1;
nodes = (
"489 801 LINE",
"489 949 LINE",
"342 949 LINE",
"342 801 LINE"
);
},
{
closed = 1;
nodes = (
"611 1023 LINE",
"611 1127 LINE",
"219 1127 LINE",
"219 1023 LINE"
);
}
);
vertWidth = 1000;
width = 831;
}
);
leftKerningGroup = O;
rightKerningGroup = O;
unicode = 0230;
},
